LuxiMono-BoldOblique.sfdir
StartChar: exclam
Encoding: 33 33 232
Width: 600
Flags: MW
HStem: 0 121<228 396 252 373> 703 20<373 517 517 517>
LayerCount: 2
Fore
SplineSet
228 0 m 1
 252 121 l 1
 396 121 l 1
 373 0 l 1
 228 0 l 1
299 205 m 1
 344 578 l 1
 373 723 l 1
 517 723 l 1
 488 578 l 1
 382 205 l 1
 299 205 l 1
EndSplineSet
EndChar
StartChar: quotedbl
Encoding: 34 34 255
Width: 600
Flags: W
LayerCount: 2
Fore
SplineSet
221 506 m 1
 250 771 l 1
 394 771 l 1
 317 506 l 1
 221 506 l 1
486 506 m 1
 515 771 l 1
 659 771 l 1
 582 506 l 1
 486 506 l 1
EndSplineSet
EndChar
StartChar: numbersign
Encoding: 35 35 257
Width: 600
Flags: MW
HStem: 0 20 211 84<99 165 66 203 99 252 291 353 479 558> 428 84<187 262 152 300 187 350 389 451 576 645> 703 20<397 483 483 483 584 671 671 671>
LayerCount: 2
Fore
SplineSet
69 0 m 1
 165 211 l 1
 66 211 l 1
 99 295 l 1
 203 295 l 1
 262 428 l 1
 152 428 l 1
 187 512 l 1
 300 512 l 1
 397 723 l 1
 483 723 l 1
 389 512 l 1
 490 512 l 1
 584 723 l 1
 671 723 l 1
 576 512 l 1
 678 512 l 1
 645 428 l 1
 539 428 l 1
 479 295 l 1
 592 295 l 1
 558 211 l 1
 441 211 l 1
 345 0 l 1
 257 0 l 1
 353 211 l 1
 252 211 l 1
 156 0 l 1
 69 0 l 1
291 295 m 1
 391 295 l 1
 451 428 l 1
 350 428 l 1
 291 295 l 1
EndSplineSet
EndChar
StartChar: dollar
Encoding: 36 36 214
Width: 600
Flags: MW
HStem: 0 20
VStem: 178 134<529 565.5 529 570>
LayerCount: 2
Fore
SplineSet
336 88 m 1
 348 90 l 2
 392 97 425 142 425 193 c 0
 425 224 412 246 374 278 c 1
 336 88 l 1
59 27 m 1
 91 186 l 1
 175 186 l 1
 173 113 l 1
 199 101 224 92 252 86 c 1
 302 335 l 1
 208 413 178 456 178 516 c 0
 178 624 279 711 416 722 c 1
 435 819 l 1
 520 819 l 1
 501 722 l 1
 547 717 585 709 624 698 c 1
 596 554 l 1
 512 554 l 1
 514 628 l 1
 505 632 494 635 483 636 c 1
 438 407 l 1
 529 335 563 287 563 232 c 0
 563 110 473 25 319 0 c 1
 300 -96 l 1
 215 -96 l 1
 234 0 l 1
 166 6 111 15 59 27 c 1
365 466 m 1
 399 635 l 1
 346 627 312 590 312 541 c 0
 312 517 327 496 365 466 c 1
EndSplineSet
EndChar
StartChar: percent
Encoding: 37 37 278
Width: 600
Flags: W
HStem: -18 20 0 84<450.5 478 450.5 496.5> 277 84<481.5 508.5> 362 84<236 263.5 236 282> 639 84<266.5 294> 721 20<650 727 727 727>
VStem: 103 113<478.5 532 478.5 557.5> 314 113<551.5 605> 318 113<116 169.5 116 195.5> 528 114<189.5 243.5>
LayerCount: 2
Fore
SplineSet
19 -18 m 1xa6c0
 650 741 l 1
 727 741 l 1
 95 -18 l 1
 19 -18 l 1xa6c0
515 361 m 0
 594 361 642 309 642 226 c 0
 642 104 550 0 443 0 c 0x7ac0
 366 0 318 51 318 134 c 0
 318 257 408 361 515 361 c 0
499 277 m 0
 464 277 431 207 431 132 c 0
 431 100 441 84 460 84 c 0
 496 84 528 152 528 227 c 0
 528 260 518 277 499 277 c 0
300 723 m 0
 379 723 427 672 427 588 c 0x7b
 427 466 336 362 228 362 c 0
 151 362 103 413 103 496 c 0
 103 619 193 723 300 723 c 0
284 639 m 0
 249 639 216 569 216 495 c 0
 216 462 226 446 246 446 c 0
 281 446 314 515 314 588 c 0
 314 622 304 639 284 639 c 0
EndSplineSet
EndChar
StartChar: ampersand
Encoding: 38 38 249
Width: 600
Flags: W
HStem: -18 104<259.5 268.5> 0 20 657 84<397 426>
VStem: 60 124<163 210.5> 247 113<567 604 567 607> 448 109<595.5 631>
LayerCount: 2
Fore
SplineSet
429 0 m 1x7c
 408 43 l 1
 354 0 302 -18 235 -18 c 0x9c
 125 -18 60 44 60 149 c 0
 60 272 138 379 270 439 c 1
 254 491 247 525 247 554 c 0
 247 660 329 741 436 741 c 0
 511 741 557 695 557 622 c 0
 557 539 507 473 391 405 c 1
 409 333 435 258 467 186 c 1
 496 227 515 275 525 332 c 1
 475 332 l 1
 492 416 l 1
 677 416 l 1
 660 332 l 1
 607 332 l 1
 588 250 552 180 499 119 c 1
 519 85 l 1
 581 85 l 1
 563 0 l 1
 429 0 l 1x7c
373 107 m 1xbc
 334 202 305 288 287 364 c 1
 215 324 184 275 184 201 c 0
 184 125 222 86 297 86 c 0
 327 86 349 92 373 107 c 1xbc
374 479 m 1
 426 531 448 573 448 618 c 0
 448 644 437 657 415 657 c 0
 379 657 360 630 360 578 c 0
 360 556 365 523 372 489 c 0
 373 487 373 484 374 479 c 1
EndSplineSet
EndChar
StartChar: quotesingle
Encoding: 39 39 254
Width: 600
Flags: W
LayerCount: 2
Fore
SplineSet
346 470 m 1
 370 771 l 1
 539 771 l 1
 443 470 l 1
 346 470 l 1
EndSplineSet
EndChar
StartChar: parenleft
Encoding: 40 40 245
Width: 600
Flags: MW
VStem: 149 143<161.5 268 161.5 277>
LayerCount: 2
Fore
SplineSet
495 -60 m 1
 478 -145 l 1
 385 -142 321 -119 261 -65 c 0
 187 3 149 94 149 207 c 0
 149 347 204 488 299 594 c 0
 354 655 426 706 496 736 c 0
 551 760 595 769 661 771 c 1
 644 687 l 1
 546 668 479 629 414 551 c 0
 335 455 292 333 292 203 c 0
 292 120 317 56 368 3 c 0
 404 -33 441 -52 495 -60 c 1
EndSplineSet
EndChar
StartChar: parenright
Encoding: 41 41 246
Width: 600
Flags: MW
VStem: 436 143<358.5 464.5>
LayerCount: 2
Fore
SplineSet
233 687 m 1
 250 771 l 1
 343 769 407 745 467 691 c 0
 541 623 579 532 579 420 c 0
 579 280 524 139 429 33 c 0
 326 -81 204 -141 67 -145 c 1
 84 -60 l 1
 182 -42 250 -2 314 76 c 0
 393 171 436 294 436 423 c 0
 436 506 411 571 360 623 c 0
 324 659 287 678 233 687 c 1
EndSplineSet
EndChar
StartChar: asterisk
Encoding: 42 42 253
Width: 600
Flags: MW
HStem: 703 20<380 510 510 510>
LayerCount: 2
Fore
SplineSet
293 291 m 1
 197 360 l 1
 342 472 l 1
 348 458 360 449 376 445 c 1
 293 291 l 1
176 507 m 1
 237 631 l 1
 363 546 l 1
 348 532 340 516 338 499 c 1
 176 507 l 1
387 562 m 1
 380 723 l 1
 510 723 l 1
 436 561 l 1
 427 565 419 567 412 567 c 0
 406 567 399 566 387 562 c 1
455 544 m 1
 617 632 l 1
 626 507 l 1
 461 501 l 1
 462 506 463 511 463 515 c 0
 463 526 461 535 455 544 c 1
426 289 m 1
 400 445 l 1
 417 448 432 457 446 472 c 1
 548 363 l 1
 426 289 l 1
EndSplineSet
EndChar
StartChar: plus
Encoding: 43 43 259
Width: 600
Flags: MW
HStem: 253 97<118 303 99 322 118 399 418 602>
LayerCount: 2
Fore
SplineSet
262 49 m 1
 303 253 l 1
 99 253 l 1
 118 350 l 1
 322 350 l 1
 363 553 l 1
 459 553 l 1
 418 350 l 1
 622 350 l 1
 602 253 l 1
 399 253 l 1
 358 49 l 1
 262 49 l 1
EndSplineSet
EndChar
StartChar: comma
Encoding: 44 44 226
Width: 600
Flags: MW
HStem: 0 20
LayerCount: 2
Fore
SplineSet
216 0 m 1
 249 168 l 1
 418 168 l 1
 390 30 l 2
 360 -119 311 -169 192 -169 c 2
 182 -169 l 1
 194 -109 l 1
 201 -109 l 2
 248 -109 263 -89 282 0 c 1
 216 0 l 1
EndSplineSet
EndChar
StartChar: hyphen
Encoding: 45 45 241
Width: 600
Flags: MW
HStem: 253 97<123 598 142 578>
LayerCount: 2
Fore
SplineSet
123 253 m 1
 142 350 l 1
 598 350 l 1
 578 253 l 1
 123 253 l 1
EndSplineSet
EndChar
StartChar: period
Encoding: 46 46 222
Width: 600
Flags: MW
HStem: 0 168<216 419 250 384>
LayerCount: 2
Fore
SplineSet
216 0 m 1
 250 168 l 1
 419 168 l 1
 384 0 l 1
 216 0 l 1
EndSplineSet
EndChar
StartChar: slash
Encoding: 47 47 240
Width: 600
Flags: W
LayerCount: 2
Fore
SplineSet
-29 -145 m 1
 647 771 l 1
 754 771 l 1
 78 -145 l 1
 -29 -145 l 1
EndSplineSet
EndChar
StartChar: zero
Encoding: 48 48 212
Width: 600
Flags: MW
HStem: -18 84<295 341.5 295 353> 658 84<404.5 453.5>
VStem: 101 149<144.5 215 144.5 270.5> 497 149<504.5 579.5>
LayerCount: 2
Fore
SplineSet
448 742 m 0
 576 742 646 657 646 502 c 0
 646 403 619 282 577 191 c 0
 515 57 413 -18 293 -18 c 0
 171 -18 101 69 101 220 c 0
 101 321 127 442 169 532 c 0
 231 665 333 742 448 742 c 0
432 658 m 0
 377 658 333 596 297 467 c 0
 271 373 250 247 250 183 c 0
 250 106 273 66 317 66 c 0
 366 66 408 121 442 229 c 0
 472 324 497 468 497 541 c 0
 497 618 475 658 432 658 c 0
EndSplineSet
EndChar
StartChar: one
Encoding: 49 49 203
Width: 600
Flags: MW
HStem: 0 84<72 255 89 255 400 551> 715 20<530 530>
LayerCount: 2
Fore
SplineSet
72 0 m 1
 89 84 l 1
 255 84 l 1
 355 587 l 1
 179 538 l 1
 196 622 l 1
 530 735 l 1
 400 84 l 1
 568 84 l 1
 551 0 l 1
 72 0 l 1
EndSplineSet
EndChar
StartChar: two
Encoding: 50 50 204
Width: 600
Flags: MW
HStem: 0 121<254 507> 657 85<400.5 431>
VStem: 490 132<549 601.5>
LayerCount: 2
Fore
SplineSet
92 0 m 1
 113 103 l 1
 142 145 185 193 237 243 c 2
 366 366 l 2
 448 444 490 514 490 574 c 0
 490 629 460 657 402 657 c 0
 372 657 342 650 308 636 c 1
 278 538 l 1
 202 538 l 1
 236 705 l 1
 310 731 369 742 432 742 c 0
 559 742 622 690 622 587 c 0
 622 511 585 436 521 384 c 2
 458 334 l 1
 393 281 l 2
 327 227 280 173 254 121 c 1
 531 121 l 1
 507 0 l 1
 92 0 l 1
EndSplineSet
EndChar
StartChar: three
Encoding: 51 51 205
Width: 600
Flags: W
HStem: -18 85<269.5 319.5 269.5 347.5> 657 84<400.5 417>
VStem: 419 157<175 258> 469 158<551 605.5>
LayerCount: 2
Fore
SplineSet
86 7 m 1xe0
 116 160 l 1
 207 160 l 1
 203 83 l 1
 235 72 259 67 280 67 c 0
 359 67 419 132 419 218 c 0xe0
 419 298 368 338 267 338 c 2
 218 338 l 1
 235 422 l 1
 283 422 l 2
 395 422 469 484 469 580 c 0
 469 631 443 657 391 657 c 0
 371 657 352 653 321 643 c 1
 294 566 l 1
 204 566 l 1
 232 711 l 1
 310 732 371 741 430 741 c 0
 553 741 627 688 627 599 c 0xd0
 627 503 551 426 419 388 c 1
 517 369 576 308 576 226 c 0
 576 88 437 -18 258 -18 c 0
 211 -18 165 -11 86 7 c 1xe0
EndSplineSet
EndChar
StartChar: four
Encoding: 52 52 206
Width: 600
Flags: MW
HStem: 0 84<227 359 492 547 210 359> 199 103<210 382 535 599> 712 20<489 621 621 621>
LayerCount: 2
Fore
SplineSet
75 199 m 1
 94 293 l 1
 489 732 l 1
 621 732 l 1
 535 302 l 1
 619 302 l 1
 599 199 l 1
 514 199 l 1
 492 84 l 1
 564 84 l 1
 547 0 l 1
 210 0 l 1
 227 84 l 1
 359 84 l 1
 382 199 l 1
 75 199 l 1
403 302 m 1
 458 579 l 1
 210 302 l 1
 403 302 l 1
EndSplineSet
EndChar
StartChar: five
Encoding: 53 53 207
Width: 600
Flags: MW
HStem: -18 85<279 325.5 279 354> 603 120<335 643 335 335>
VStem: 419 161<186.5 276.5>
LayerCount: 2
Fore
SplineSet
116 9 m 1
 146 160 l 1
 236 160 l 1
 233 84 l 1
 253 72 270 67 288 67 c 0
 363 67 419 139 419 234 c 0
 419 319 364 361 254 361 c 0
 241 361 219 360 201 358 c 1
 274 723 l 1
 668 723 l 1
 643 603 l 1
 335 603 l 1
 304 447 l 1
 487 444 580 380 580 257 c 0
 580 106 440 -18 268 -18 c 0
 223 -18 182 -11 116 9 c 1
EndSplineSet
EndChar
StartChar: six
Encoding: 54 54 208
Width: 600
Flags: MW
HStem: -18 84<308 365 308 399> 371 102<356.5 505> 657 84<455.5 501.5>
VStem: 109 153<147 216.5 127 295> 457 158<225 313>
LayerCount: 2
Fore
SplineSet
667 720 m 1
 637 566 l 1
 547 566 l 1
 550 643 l 1
 529 653 511 657 492 657 c 0
 392 657 317 561 285 390 c 1
 341 449 391 473 455 473 c 0
 555 473 615 406 615 296 c 0
 615 124 481 -18 317 -18 c 0
 183 -18 109 68 109 226 c 0
 109 364 154 493 238 599 c 0
 316 695 402 741 509 741 c 0
 554 741 605 734 667 720 c 1
392 371 m 0
 321 371 262 275 262 158 c 0
 262 96 285 66 331 66 c 0
 399 66 457 166 457 284 c 0
 457 342 436 371 392 371 c 0
EndSplineSet
EndChar
StartChar: seven
Encoding: 55 55 209
Width: 600
Flags: MW
HStem: 0 20 603 120<207 525 183 681>
LayerCount: 2
Fore
SplineSet
249 0 m 1
 94 0 l 1
 119 110 176 199 364 417 c 2
 525 603 l 1
 183 603 l 1
 207 723 l 1
 681 723 l 1
 661 627 l 1
 559 515 l 2
 393 334 291 165 249 0 c 1
EndSplineSet
EndChar
StartChar: eight
Encoding: 56 56 210
Width: 600
Flags: W
HStem: -18 84<300 365 300 379.5> 657 84<409 459>
VStem: 82 148<134 188> 198 140<543 577> 458 146<168.5 200> 504 134<571.5 613.5>
LayerCount: 2
Fore
SplineSet
274 390 m 1xe8
 219 435 198 469 198 513 c 0
 198 641 314 741 462 741 c 0
 576 741 638 694 638 607 c 0xd4
 638 536 594 477 488 402 c 1
 571 345 604 298 604 236 c 0
 604 101 461 -18 298 -18 c 0
 166 -18 82 44 82 141 c 0
 82 235 140 311 274 390 c 1xe8
382 478 m 2
 421 441 l 1
 479 498 504 543 504 592 c 0
 504 635 481 657 437 657 c 0
 381 657 338 613 338 555 c 0
 338 531 353 506 382 478 c 2
389 285 m 2xe8
 326 340 l 1
 260 282 230 227 230 164 c 0
 230 104 269 66 331 66 c 0
 399 66 458 122 458 186 c 0
 458 214 438 242 389 285 c 2xe8
EndSplineSet
EndChar
StartChar: nine
Encoding: 57 57 211
Width: 600
Flags: MW
HStem: -18 85<245 291> 250 102<242 390.5> 657 84<382 439>
VStem: 132 158<410 498 410 513.5> 485 153<506 576 428 595.5>
LayerCount: 2
Fore
SplineSet
79 4 m 1
 110 157 l 1
 200 157 l 1
 197 80 l 1
 218 71 235 67 255 67 c 0
 356 67 430 162 461 333 c 1
 406 274 355 250 292 250 c 0
 192 250 132 317 132 427 c 0
 132 600 266 741 430 741 c 0
 565 741 638 655 638 497 c 0
 638 359 593 230 508 124 c 0
 431 28 344 -18 238 -18 c 0
 192 -18 141 -11 79 4 c 1
416 657 m 0
 348 657 290 557 290 439 c 0
 290 381 311 352 355 352 c 0
 426 352 485 448 485 564 c 0
 485 627 462 657 416 657 c 0
EndSplineSet
EndChar
StartChar: colon
Encoding: 58 58 223
Width: 600
Flags: MW
HStem: 0 168<216 419 250 384> 361 169<288 491 322 457>
LayerCount: 2
Fore
SplineSet
216 0 m 1
 250 168 l 1
 419 168 l 1
 384 0 l 1
 216 0 l 1
288 361 m 1
 322 530 l 1
 491 530 l 1
 457 361 l 1
 288 361 l 1
EndSplineSet
EndChar
StartChar: semicolon
Encoding: 59 59 227
Width: 600
Flags: MW
HStem: 0 20 361 169<288 491 322 456>
LayerCount: 2
Fore
SplineSet
288 361 m 1
 322 530 l 1
 491 530 l 1
 456 361 l 1
 288 361 l 1
216 0 m 1
 249 168 l 1
 418 168 l 1
 390 30 l 2
 360 -119 311 -169 192 -169 c 2
 182 -169 l 1
 194 -109 l 1
 201 -109 l 2
 248 -109 263 -89 282 0 c 1
 216 0 l 1
EndSplineSet
EndChar
StartChar: less
Encoding: 60 60 300
Width: 600
Flags: MW
HStem: 0 20
LayerCount: 2
Fore
SplineSet
672 603 m 1
 651 494 l 1
 293 304 l 1
 574 110 l 1
 552 0 l 1
 109 304 l 1
 672 603 l 1
EndSplineSet
EndChar
StartChar: equal
Encoding: 61 61 263
Width: 600
Flags: MW
HStem: 150 97<80 599 99 580> 356 96<121 640 140 621>
LayerCount: 2
Fore
SplineSet
80 150 m 1
 99 247 l 1
 599 247 l 1
 580 150 l 1
 80 150 l 1
121 356 m 1
 140 452 l 1
 640 452 l 1
 621 356 l 1
 121 356 l 1
EndSplineSet
EndChar
StartChar: greater
Encoding: 62 62 301
Width: 600
Flags: MW
HStem: 0 20
LayerCount: 2
Fore
SplineSet
48 0 m 1
 69 108 l 1
 427 298 l 1
 146 492 l 1
 168 603 l 1
 611 298 l 1
 48 0 l 1
EndSplineSet
EndChar
StartChar: question
Encoding: 63 63 234
Width: 600
Flags: MW
HStem: 0 121<183 352 207 327> 657 84<396.5 428>
VStem: 500 160<580.5 607>
LayerCount: 2
Fore
SplineSet
183 0 m 1
 207 121 l 1
 352 121 l 1
 327 0 l 1
 183 0 l 1
224 205 m 1
 228 224 l 2
 247 312 272 348 378 431 c 2
 412 457 l 2
 471 502 500 544 500 583 c 0
 500 631 463 657 393 657 c 0
 358 657 327 651 286 635 c 1
 256 548 l 1
 172 548 l 1
 204 709 l 1
 306 732 366 741 427 741 c 0
 580 741 660 695 660 608 c 0
 660 553 628 503 569 463 c 2
 529 436 l 1
 496 413 l 2
 414 353 393 323 376 244 c 2
 368 205 l 1
 224 205 l 1
EndSplineSet
EndChar
StartChar: at
Encoding: 64 64 256
Width: 600
Flags: MW
HStem: -18 78<297 362> 137 86<369 375> 506 68<460 513.5> 663 79<437 504>
VStem: 84 87<205.5 321.5 205.5 321.5> 248 99<260 342 260 343>
LayerCount: 2
Fore
SplineSet
487 91 m 1
 470 3 l 1
 420 -12 382 -18 342 -18 c 0
 179 -18 84 83 84 257 c 0
 84 386 125 503 204 598 c 0
 285 695 380 742 494 742 c 0
 609 742 669 697 669 612 c 0
 669 586 666 562 658 522 c 2
 600 229 l 1
 642 229 l 1
 625 145 l 1
 498 145 l 1
 528 296 l 1
 522 296 l 1
 510 275 l 2
 448 173 405 137 345 137 c 0
 280 137 248 179 248 262 c 0
 248 424 374 574 511 574 c 0
 528 574 548 571 579 564 c 1
 579 572 l 2
 579 632 541 663 467 663 c 0
 387 663 319 624 260 544 c 0
 201 466 171 372 171 271 c 0
 171 140 240 60 354 60 c 0
 393 60 433 69 487 91 c 1
556 434 m 1
 568 494 l 1
 545 502 523 506 504 506 c 0
 416 506 347 406 347 278 c 0
 347 242 358 223 380 223 c 0
 421 223 472 285 556 434 c 1
EndSplineSet
EndChar
StartChar: B
Encoding: 66 66 134
Width: 600
Flags: W
HStem: 0 20 703 20<163 434 434 515.5>
VStem: 448 158<173 257> 494 160<547.5 596.5>
LayerCount: 2
Fore
SplineSet
18 0 m 1xe0
 35 85 l 1
 83 85 l 1
 194 639 l 1
 145 639 l 1
 163 723 l 1
 434 723 l 2
 597 723 654 690 654 597 c 0xd0
 654 498 594 433 456 379 c 1
 562 351 606 305 606 221 c 0
 606 85 492 0 309 0 c 2
 18 0 l 1xe0
227 85 m 1xe0
 267 85 l 2
 391 85 448 127 448 219 c 0
 448 295 400 332 301 332 c 2
 277 332 l 1
 227 85 l 1xe0
294 416 m 1xd0
 315 416 l 2
 414 416 494 484 494 569 c 0
 494 624 467 639 364 639 c 2
 338 639 l 1
 294 416 l 1xd0
EndSplineSet
EndChar
StartChar: F
Encoding: 70 70 138
Width: 600
Flags: W
HStem: 0 84<18 107 35 107 35 331> 0 90<253 331> 295 84<311 433 294 449> 639 84<163 218 146 711 363 363 363 603>
LayerCount: 2
Fore
SplineSet
18 0 m 1x80
 35 84 l 1
 107 84 l 1x80
 218 639 l 1
 146 639 l 1
 163 723 l 1
 711 723 l 1
 675 542 l 1
 584 542 l 1
 603 639 l 1
 363 639 l 1
 311 379 l 1
 449 379 l 1
 461 440 l 1
 546 440 l 1
 505 235 l 1
 420 235 l 1
 433 295 l 1
 294 295 l 1
 253 90 l 1
 350 90 l 1x70
 331 0 l 1
 18 0 l 1x80
EndSplineSet
EndChar
StartChar: G
Encoding: 71 71 139
Width: 600
Flags: MW
HStem: -18 96<354.5 403> 250 84<407 481 390 642> 657 84<460 521.5>
VStem: 90 157<212.5 328.5>
LayerCount: 2
Fore
SplineSet
642 334 m 1
 580 24 l 1
 507 -5 440 -18 366 -18 c 0
 193 -18 90 87 90 265 c 0
 90 392 133 507 216 600 c 0
 300 694 401 741 519 741 c 0
 578 741 632 731 702 709 c 1
 660 500 l 1
 576 500 l 1
 589 626 l 1
 563 648 538 657 505 657 c 0
 367 657 247 475 247 268 c 0
 247 157 310 78 399 78 c 0
 410 78 430 80 447 83 c 1
 481 250 l 1
 390 250 l 1
 407 334 l 1
 642 334 l 1
EndSplineSet
EndChar
StartChar: H
Encoding: 72 72 140
Width: 600
Flags: MW
HStem: 0 20 326 90<294 454 276 472> 703 20<163 404 404 404 486 726 726 726>
LayerCount: 2
Fore
SplineSet
18 0 m 1
 35 85 l 1
 83 85 l 1
 194 639 l 1
 146 639 l 1
 163 723 l 1
 404 723 l 1
 387 639 l 1
 338 639 l 1
 294 416 l 1
 472 416 l 1
 517 639 l 1
 469 639 l 1
 486 723 l 1
 726 723 l 1
 709 639 l 1
 662 639 l 1
 551 85 l 1
 599 85 l 1
 582 0 l 1
 341 0 l 1
 358 85 l 1
 406 85 l 1
 454 326 l 1
 276 326 l 1
 227 85 l 1
 276 85 l 1
 259 0 l 1
 18 0 l 1
EndSplineSet
EndChar
StartChar: I
Encoding: 73 73 141
Width: 600
Flags: MW
HStem: 0 84<60 245 77 245 389 539> 639 84<205 355 188 684 500 500 500 667>
LayerCount: 2
Fore
SplineSet
60 0 m 1
 77 84 l 1
 245 84 l 1
 355 639 l 1
 188 639 l 1
 205 723 l 1
 684 723 l 1
 667 639 l 1
 500 639 l 1
 389 84 l 1
 557 84 l 1
 539 0 l 1
 60 0 l 1
EndSplineSet
EndChar
StartChar: J
Encoding: 74 74 142
Width: 600
Flags: MW
HStem: -18 85<234 277 234 310.5> 639 84<301 441 284 723 585 585 585 706>
LayerCount: 2
Fore
SplineSet
57 15 m 1
 104 253 l 1
 189 253 l 1
 170 97 l 1
 200 75 221 67 247 67 c 0
 307 67 333 99 352 197 c 2
 441 639 l 1
 284 639 l 1
 301 723 l 1
 723 723 l 1
 706 639 l 1
 585 639 l 1
 495 187 l 2
 468 52 381 -18 240 -18 c 0
 198 -18 151 -11 93 5 c 2
 57 15 l 1
EndSplineSet
EndChar
StartChar: K
Encoding: 75 75 143
Width: 600
Flags: MW
HStem: 0 20 703 20<163 403 403 403 526 743 743 743>
LayerCount: 2
Fore
SplineSet
18 0 m 1
 35 85 l 1
 83 85 l 1
 194 639 l 1
 145 639 l 1
 163 723 l 1
 403 723 l 1
 387 639 l 1
 338 639 l 1
 287 380 l 1
 299 380 l 1
 563 639 l 1
 509 639 l 1
 526 723 l 1
 743 723 l 1
 726 639 l 1
 669 639 l 1
 424 400 l 1
 597 85 l 1
 617 85 l 1
 600 0 l 1
 361 0 l 1
 377 85 l 1
 438 85 l 1
 292 350 l 1
 281 350 l 1
 227 85 l 1
 276 85 l 1
 259 0 l 1
 18 0 l 1
EndSplineSet
EndChar
StartChar: M
Encoding: 77 77 145
Width: 600
Flags: MW
HStem: 0 20 703 20<151 331 331 331 562 738 738 738>
LayerCount: 2
Fore
SplineSet
6 0 m 1
 23 84 l 1
 59 84 l 1
 170 639 l 1
 134 639 l 1
 151 723 l 1
 331 723 l 1
 349 253 l 1
 562 723 l 1
 738 723 l 1
 722 639 l 1
 689 639 l 1
 578 84 l 1
 611 84 l 1
 594 0 l 1
 380 0 l 1
 397 84 l 1
 464 84 l 1
 553 536 l 1
 550 536 l 1
 350 90 l 1
 252 90 l 1
 235 500 l 1
 233 500 l 1
 150 84 l 1
 204 84 l 1
 187 0 l 1
 6 0 l 1
EndSplineSet
EndChar
StartChar: P
Encoding: 80 80 148
Width: 600
Flags: MW
HStem: 0 84<18 131 35 131 276 404> 639 84<163 242 146 472 387 387 387 417>
VStem: 538 157<493 585>
LayerCount: 2
Fore
SplineSet
18 0 m 1
 35 84 l 1
 131 84 l 1
 242 639 l 1
 146 639 l 1
 163 723 l 1
 472 723 l 2
 632 723 695 682 695 577 c 0
 695 404 547 277 344 277 c 2
 314 277 l 1
 276 84 l 1
 420 84 l 1
 404 0 l 1
 18 0 l 1
331 361 m 1
 350 361 l 2
 468 361 538 433 538 553 c 0
 538 617 507 639 417 639 c 2
 387 639 l 1
 331 361 l 1
EndSplineSet
EndChar
StartChar: Q
Encoding: 81 81 149
Width: 600
Flags: MW
HStem: 657 84<394 460>
VStem: 82 144<158.5 227.5 158.5 272.5> 519 145<492 565.5>
LayerCount: 2
Fore
SplineSet
322 -18 m 1
 314 -18 l 2
 159 -18 82 62 82 223 c 0
 82 322 108 439 149 528 c 0
 213 667 318 741 449 741 c 0
 594 741 664 661 664 496 c 0
 664 354 623 216 553 120 c 0
 518 73 479 39 419 5 c 1
 477 -21 535 -36 590 -39 c 1
 557 -91 518 -137 473 -178 c 1
 410 -150 361 -97 322 -18 c 1
431 657 m 0
 357 657 303 587 266 446 c 0
 244 360 226 252 226 203 c 0
 226 114 258 67 319 67 c 0
 383 67 434 128 470 247 c 0
 495 328 519 463 519 521 c 0
 519 610 489 657 431 657 c 0
EndSplineSet
EndChar
StartChar: T
Encoding: 84 84 152
Width: 600
Flags: MW
HStem: 0 84<119 244 136 244 389 481> 510 20<129 219 129 129 593 593 593 683> 639 84<241 355 241 241 500 500 500 615>
LayerCount: 2
Fore
SplineSet
119 0 m 1
 136 84 l 1
 244 84 l 1
 355 639 l 1
 241 639 l 1
 219 530 l 1
 129 530 l 1
 167 723 l 1
 722 723 l 1
 683 530 l 1
 593 530 l 1
 615 639 l 1
 500 639 l 1
 389 84 l 1
 497 84 l 1
 481 0 l 1
 119 0 l 1
EndSplineSet
EndChar
StartChar: U
Encoding: 85 85 153
Width: 600
Flags: MW
HStem: -18 85<316.5 350> 703 20<155 396 396 396 542 735 735 735>
VStem: 95 147<131.5 153>
LayerCount: 2
Fore
SplineSet
138 639 m 1
 155 723 l 1
 396 723 l 1
 379 639 l 1
 331 639 l 1
 259 277 l 2
 248 226 242 181 242 159 c 0
 242 104 285 67 348 67 c 0
 432 67 468 111 495 248 c 2
 574 639 l 1
 525 639 l 1
 542 723 l 1
 735 723 l 1
 718 639 l 1
 670 639 l 1
 595 265 l 2
 574 160 555 111 521 71 c 0
 470 12 396 -18 304 -18 c 0
 175 -18 95 43 95 140 c 0
 95 166 100 204 107 242 c 2
 187 639 l 1
 138 639 l 1
EndSplineSet
EndChar
StartChar: V
Encoding: 86 86 154
Width: 600
Flags: MW
HStem: 0 20 703 20<151 388 388 388 558 739 739 739>
LayerCount: 2
Fore
SplineSet
218 0 m 1
 162 639 l 1
 134 639 l 1
 151 723 l 1
 388 723 l 1
 371 639 l 1
 309 639 l 1
 352 147 l 1
 603 639 l 1
 541 639 l 1
 558 723 l 1
 739 723 l 1
 722 639 l 1
 685 639 l 1
 361 0 l 1
 218 0 l 1
EndSplineSet
EndChar
StartChar: W
Encoding: 87 87 155
Width: 600
Flags: MW
HStem: 0 20 703 20<151 340 340 340 595 739 739 739>
LayerCount: 2
Fore
SplineSet
104 0 m 1
 164 639 l 1
 134 639 l 1
 151 723 l 1
 340 723 l 1
 323 639 l 1
 279 639 l 1
 244 255 l 1
 247 255 l 1
 378 621 l 1
 489 621 l 1
 482 250 l 1
 485 250 l 1
 605 639 l 1
 578 639 l 1
 595 723 l 1
 739 723 l 1
 722 639 l 1
 692 639 l 1
 493 0 l 1
 374 0 l 1
 380 424 l 1
 225 0 l 1
 104 0 l 1
EndSplineSet
EndChar
StartChar: X
Encoding: 88 88 156
Width: 600
Flags: MW
HStem: 0 20 703 20<163 434 434 434 516 720 720 720>
LayerCount: 2
Fore
SplineSet
6 0 m 1
 23 85 l 1
 63 85 l 1
 301 360 l 1
 200 639 l 1
 146 639 l 1
 163 723 l 1
 434 723 l 1
 417 639 l 1
 360 639 l 1
 418 481 l 1
 545 639 l 1
 499 639 l 1
 516 723 l 1
 720 723 l 1
 703 639 l 1
 652 639 l 1
 448 400 l 1
 563 85 l 1
 610 85 l 1
 594 0 l 1
 329 0 l 1
 346 85 l 1
 402 85 l 1
 331 278 l 1
 169 85 l 1
 215 85 l 1
 199 0 l 1
 6 0 l 1
EndSplineSet
EndChar
StartChar: bracketleft
Encoding: 91 91 247
Width: 600
Flags: MW
HStem: -145 84<289 477> 687 84<439 643 439 439>
LayerCount: 2
Fore
SplineSet
140 -145 m 1
 323 771 l 1
 661 771 l 1
 643 687 l 1
 439 687 l 1
 289 -61 l 1
 494 -61 l 1
 477 -145 l 1
 140 -145 l 1
EndSplineSet
EndChar
StartChar: backslash
Encoding: 92 92 280
Width: 600
Flags: W
LayerCount: 2
Fore
SplineSet
571 -145 m 1
 464 -145 l 1
 154 771 l 1
 261 771 l 1
 571 -145 l 1
EndSplineSet
EndChar
StartChar: bracketright
Encoding: 93 93 248
Width: 600
Flags: MW
HStem: -145 84<82 287 82 402 65 287> 687 84<248 436 231 586>
LayerCount: 2
Fore
SplineSet
586 771 m 1
 402 -145 l 1
 65 -145 l 1
 82 -61 l 1
 287 -61 l 1
 436 687 l 1
 231 687 l 1
 248 771 l 1
 586 771 l 1
EndSplineSet
EndChar
StartChar: asciicircum
Encoding: 94 94 303
Width: 600
Flags: MW
HStem: 703 20<444 444>
LayerCount: 2
Fore
SplineSet
124 265 m 1
 444 723 l 1
 582 265 l 1
 475 265 l 1
 403 518 l 1
 231 265 l 1
 124 265 l 1
EndSplineSet
EndChar
StartChar: underscore
Encoding: 95 95 306
Width: 600
Flags: MW
HStem: -96 96<-19 600 0 581>
LayerCount: 2
Fore
SplineSet
-19 -96 m 1
 0 0 l 1
 600 0 l 1
 581 -96 l 1
 -19 -96 l 1
EndSplineSet
EndChar
StartChar: grave
Encoding: 96 96 285
Width: 600
Flags: W
LayerCount: 2
Fore
SplineSet
461 626 m 1
 336 783 l 1
 475 783 l 1
 545 626 l 1
 461 626 l 1
EndSplineSet
EndChar
StartChar: b
Encoding: 98 98 167
Width: 600
Flags: W
HStem: -12 98<305.5 364.5> 0 20 431 111<394 535.5>
VStem: 488 147<320.5 375>
LayerCount: 2
Fore
SplineSet
66 0 m 1x50
 204 686 l 1
 155 686 l 1
 172 771 l 1
 365 771 l 1
 301 451 l 1
 365 515 420 542 486 542 c 0
 585 542 635 481 635 363 c 0
 635 278 610 194 562 122 c 0
 503 32 420 -12 309 -12 c 0xb0
 278 -12 249 -8 211 0 c 1
 66 0 l 1x50
231 99 m 1x70
 244 96 l 2
 267 90 295 86 316 86 c 0x90
 418 86 488 191 488 346 c 0
 488 404 465 431 416 431 c 0
 372 431 332 406 280 347 c 1
 231 99 l 1x70
EndSplineSet
EndChar
StartChar: d
Encoding: 100 100 169
Width: 600
Flags: W
HStem: -12 111<172.5 313.5> 0 20 444 98<343.5 402.5>
VStem: 73 147<155 209.5>
LayerCount: 2
Fore
SplineSet
391 0 m 1x70
 406 78 l 1
 343 15 288 -12 222 -12 c 0x90
 123 -12 73 49 73 167 c 0
 73 252 98 336 146 408 c 0
 205 498 288 542 399 542 c 0
 430 542 459 538 497 530 c 1
 528 686 l 1
 468 686 l 1
 485 771 l 1
 690 771 l 1
 552 84 l 1
 600 84 l 1
 584 0 l 1
 391 0 l 1x70
477 431 m 1xb0
 464 434 l 2
 443 440 413 444 392 444 c 0
 290 444 220 339 220 184 c 0
 220 126 243 99 292 99 c 0
 335 99 376 124 427 183 c 1
 477 431 l 1xb0
EndSplineSet
EndChar
StartChar: f
Encoding: 102 102 171
Width: 600
Flags: MW
HStem: 0 84<59 208 76 208 353 490> 428 90<163 277 144 295 440 623> 699 85<539.5 583>
LayerCount: 2
Fore
SplineSet
59 0 m 1
 76 84 l 1
 208 84 l 1
 277 428 l 1
 144 428 l 1
 163 518 l 1
 295 518 l 1
 304 563 l 2
 334 710 430 784 590 784 c 0
 647 784 691 773 749 746 c 1
 724 621 l 1
 640 621 l 1
 640 680 l 1
 616 693 595 699 571 699 c 0
 508 699 466 655 450 568 c 2
 440 518 l 1
 642 518 l 1
 623 428 l 1
 422 428 l 1
 353 84 l 1
 507 84 l 1
 490 0 l 1
 59 0 l 1
EndSplineSet
EndChar
StartChar: g
Encoding: 103 103 172
Width: 600
Flags: W
HStem: -205 84<242.5 307.5 242.5 324> 0 20 156 84<319 366.5 318.5 394.5> 458 84<353 400>
VStem: 25 157<-90 -85> 141 139<287.5 351.5 287.5 373> 399 145<-63.5 -25.5> 439 135<344.5 393 318 409>
LayerCount: 2
Fore
SplineSet
316 90 m 2
 389 90 l 2
 494 90 544 59 544 -7 c 0
 544 -121 413 -205 235 -205 c 0
 107 -205 25 -168 25 -109 c 0xfa
 25 -61 64 -23 149 12 c 1
 122 34 111 50 111 69 c 0
 111 107 144 144 215 189 c 1
 162 222 141 257 141 309 c 0
 141 437 252 542 388 542 c 0
 413 542 434 539 468 530 c 1
 700 542 l 1
 649 439 l 1
 557 454 l 1
 569 427 574 406 574 380 c 0
 574 256 463 156 326 156 c 0
 312 156 301 157 284 161 c 1
 253 142 239 126 239 111 c 0xf5
 239 97 264 90 316 90 c 2
311 0 m 2
 237 0 l 1
 199 -28 182 -51 182 -75 c 0
 182 -105 213 -121 272 -121 c 0
 343 -121 399 -86 399 -41 c 0
 399 -10 378 0 311 0 c 2
381 458 m 0xf5
 325 458 280 392 280 311 c 0
 280 264 299 240 338 240 c 0
 395 240 439 304 439 385 c 0
 439 433 419 458 381 458 c 0xf5
EndSplineSet
EndChar
StartChar: h
Encoding: 104 104 173
Width: 600
Flags: MW
HStem: 0 20 522 20<462.5 537.5>
LayerCount: 2
Fore
SplineSet
18 0 m 1
 35 84 l 1
 86 84 l 1
 206 686 l 1
 155 686 l 1
 172 771 l 1
 365 771 l 1
 301 451 l 1
 368 515 426 542 499 542 c 0
 576 542 616 508 616 442 c 0
 616 422 613 395 606 364 c 2
 551 84 l 1
 602 84 l 1
 585 0 l 1
 332 0 l 1
 349 84 l 1
 412 84 l 1
 458 315 l 2
 463 342 467 369 467 381 c 0
 467 414 449 431 415 431 c 0
 376 431 336 406 277 347 c 1
 225 84 l 1
 288 84 l 1
 271 0 l 1
 18 0 l 1
EndSplineSet
EndChar
StartChar: i
Encoding: 105 105 174
Width: 600
Flags: MW
HStem: 0 84<68 265 85 265 410 574> 446 84<174 338 157 499> 626 145<374 547 403 519>
LayerCount: 2
Fore
SplineSet
68 0 m 1
 85 84 l 1
 265 84 l 1
 338 446 l 1
 157 446 l 1
 174 530 l 1
 499 530 l 1
 410 84 l 1
 591 84 l 1
 574 0 l 1xe0
 68 0 l 1
374 626 m 1
 403 771 l 1
 547 771 l 1
 519 626 l 1
 374 626 l 1
EndSplineSet
EndChar
StartChar: j
Encoding: 106 106 175
Width: 600
Flags: MW
HStem: -205 83<191.5 242 191.5 265.5> 446 84<217 411 200 572> 626 145<447 621 476 592>
LayerCount: 2
Fore
SplineSet
4 -174 m 1
 44 24 l 1
 128 24 l 1
 117 -89 l 1
 150 -113 176 -122 207 -122 c 0
 277 -122 306 -83 331 43 c 2
 411 446 l 1
 200 446 l 1
 217 530 l 1
 572 530 l 1
 477 51 l 2
 442 -124 349 -205 182 -205 c 0
 131 -205 79 -196 4 -174 c 1
447 626 m 1
 476 771 l 1
 621 771 l 1
 592 626 l 1
 447 626 l 1
EndSplineSet
EndChar
StartChar: k
Encoding: 107 107 176
Width: 600
Flags: MW
HStem: 0 20 446 84<419 462 402 671 582 582 582 654>
LayerCount: 2
Fore
SplineSet
18 0 m 1
 35 85 l 1
 83 85 l 1
 204 686 l 1
 155 686 l 1
 172 771 l 1
 365 771 l 1
 271 301 l 1
 295 301 l 1
 462 446 l 1
 402 446 l 1
 419 530 l 1
 671 530 l 1
 654 446 l 1
 582 446 l 1
 426 311 l 1
 550 85 l 1
 599 85 l 1
 582 0 l 1
 352 0 l 1
 369 85 l 1
 283 241 l 1
 259 241 l 1
 227 85 l 1
 276 85 l 1
 259 0 l 1xc0
 18 0 l 1
EndSplineSet
EndChar
StartChar: l
Encoding: 108 108 177
Width: 600
Flags: MW
HStem: 0 84<68 265 85 265 410 574> 687 84<222 386 205 547>
LayerCount: 2
Fore
SplineSet
68 0 m 1
 85 84 l 1
 265 84 l 1
 386 687 l 1
 205 687 l 1
 222 771 l 1
 547 771 l 1
 410 84 l 1
 591 84 l 1
 574 0 l 1xc0
 68 0 l 1
EndSplineSet
EndChar
StartChar: m
Encoding: 109 109 178
Width: 600
Flags: W
HStem: 0 20 510 20<118 265 265 265> 522 20<366.5 406.5 556.5 598.5>
LayerCount: 2
Fore
SplineSet
12 0 m 1xa0
 29 84 l 1
 68 84 l 1
 140 446 l 1
 101 446 l 1
 118 530 l 1
 265 530 l 1xc0
 247 440 l 1
 304 512 345 542 388 542 c 0
 425 542 444 518 444 472 c 0
 444 467 443 449 442 440 c 1
 494 512 534 542 579 542 c 0
 618 542 639 520 639 478 c 0
 639 460 635 433 627 390 c 2
 566 84 l 1
 608 84 l 1
 591 0 l 1
 440 0 l 1
 502 310 l 1
 513 366 l 2
 516 381 519 407 519 416 c 0
 519 429 514 436 506 436 c 0
 488 436 463 405 420 330 c 1
 354 0 l 1
 246 0 l 1
 308 310 l 1
 318 366 l 2
 323 393 325 406 325 416 c 0
 325 428 320 435 312 435 c 0
 294 435 269 405 226 330 c 1
 159 0 l 1
 12 0 l 1xa0
EndSplineSet
EndChar
StartChar: p
Encoding: 112 112 181
Width: 600
Flags: W
HStem: -12 98<305.5 364.5> 0 20 431 111<394.5 535.5> 510 20<125 317 317 317>
VStem: 488 147<320.5 374.5>
LayerCount: 2
Fore
SplineSet
107 446 m 1x48
 125 530 l 1
 317 530 l 1x18
 302 451 l 1
 366 515 420 542 486 542 c 0
 585 542 635 481 635 363 c 0
 635 278 610 194 562 122 c 0
 503 32 420 -12 309 -12 c 0xa8
 278 -12 249 -9 211 0 c 1
 189 -108 l 1
 250 -108 l 1
 233 -193 l 1
 -20 -193 l 1
 -3 -108 l 1
 45 -108 l 1
 156 446 l 1
 107 446 l 1x48
231 99 m 1xa8
 244 96 l 2
 267 90 295 86 316 86 c 0
 418 86 488 191 488 345 c 0
 488 404 465 431 416 431 c 0
 373 431 332 406 281 347 c 1
 231 99 l 1xa8
EndSplineSet
EndChar
StartChar: q
Encoding: 113 113 182
Width: 600
Flags: W
HStem: -12 111<172.5 313.5> 444 98<343.5 402.5> 510 20<497 641 641 641>
VStem: 73 147<155 209.5>
LayerCount: 2
Fore
SplineSet
641 530 m 1x30
 514 -108 l 1
 574 -108 l 1
 557 -193 l 1
 304 -193 l 1
 321 -108 l 1
 369 -108 l 1
 406 78 l 1
 343 15 288 -12 222 -12 c 0
 123 -12 73 49 73 167 c 0
 73 252 98 336 146 408 c 0
 205 498 288 542 399 542 c 0xd0
 430 542 459 538 497 530 c 1
 641 530 l 1x30
477 431 m 1xb0
 464 434 l 2
 443 440 413 444 392 444 c 0x50
 290 444 220 339 220 184 c 0
 220 126 243 99 292 99 c 0
 335 99 376 124 427 183 c 1
 477 431 l 1xb0
EndSplineSet
EndChar
StartChar: s
Encoding: 115 115 184
Width: 600
Flags: MW
HStem: -12 85<310 359.5 310 385.5> 458 84<364.5 414.5>
VStem: 154 144<377 406> 422 146<130 155.5>
LayerCount: 2
Fore
SplineSet
97 25 m 1
 128 181 l 1
 212 181 l 1
 210 108 l 1
 254 84 290 73 330 73 c 0
 389 73 422 98 422 142 c 0
 422 169 400 188 350 203 c 2
 284 223 l 2
 196 249 154 289 154 348 c 0
 154 464 261 542 423 542 c 0
 489 542 546 533 606 513 c 1
 576 361 l 1
 492 361 l 1
 494 437 l 1
 463 452 433 458 396 458 c 0
 333 458 298 433 298 387 c 0
 298 367 320 350 372 333 c 2
 450 308 l 2
 531 281 568 244 568 189 c 0
 568 71 462 -12 309 -12 c 0xf0
 243 -12 177 0 97 25 c 1
EndSplineSet
EndChar
StartChar: t
Encoding: 116 116 185
Width: 600
Flags: MW
HStem: -12 102<299.5 422.5> 434 84<123 272 140 255 417 611>
LayerCount: 2
Fore
SplineSet
123 434 m 1
 140 518 l 1
 272 518 l 1
 299 650 l 1
 443 650 l 1
 417 518 l 1
 628 518 l 1
 611 434 l 1
 400 434 l 1
 353 202 l 2
 349 182 346 153 346 139 c 0
 346 107 366 90 404 90 c 0
 441 90 488 103 557 132 c 1
 537 33 l 1
 457 2 400 -12 345 -12 c 0
 254 -12 197 33 197 106 c 0
 197 127 202 168 208 198 c 2
 255 434 l 1
 123 434 l 1
EndSplineSet
EndChar
StartChar: v
Encoding: 118 118 187
Width: 600
Flags: MW
HStem: 0 20 446 84<112 144 95 383 297 297 297 366 495 542 632 632 632 683>
LayerCount: 2
Fore
SplineSet
219 0 m 1
 144 446 l 1
 95 446 l 1
 112 530 l 1
 383 530 l 1
 366 446 l 1
 297 446 l 1
 349 127 l 1
 542 446 l 1
 478 446 l 1
 495 530 l 1
 700 530 l 1
 683 446 l 1
 632 446 l 1
 363 0 l 1
 219 0 l 1
EndSplineSet
EndChar
StartChar: w
Encoding: 119 119 188
Width: 600
Flags: MW
HStem: 0 20 510 20<112 304 304 304 539 700 700 700>
LayerCount: 2
Fore
SplineSet
107 0 m 1
 131 446 l 1
 95 446 l 1
 112 530 l 1
 304 530 l 1
 288 446 l 1
 248 446 l 1
 234 197 l 1
 236 197 l 1
 340 428 l 1
 460 428 l 1
 467 182 l 1
 469 182 l 1
 561 446 l 1
 523 446 l 1
 539 530 l 1
 700 530 l 1
 683 446 l 1
 647 446 l 1
 491 0 l 1
 371 0 l 1
 363 294 l 1
 361 294 l 1
 228 0 l 1
 107 0 l 1
EndSplineSet
EndChar
StartChar: x
Encoding: 120 120 189
Width: 600
Flags: MW
HStem: 0 84<12 90 29 90 208 240 318 371 538 588> 510 20<141 392 392 392 477 677 677 677>
LayerCount: 2
Fore
SplineSet
12 0 m 1
 29 84 l 1
 90 84 l 1
 274 260 l 1
 172 445 l 1
 124 445 l 1
 141 530 l 1
 392 530 l 1
 376 445 l 1
 337 445 l 1
 392 346 l 1
 496 445 l 1
 460 445 l 1
 477 530 l 1
 677 530 l 1
 660 445 l 1
 614 445 l 1
 431 275 l 1
 538 84 l 1
 605 84 l 1
 588 0 l 1
 301 0 l 1
 318 84 l 1
 371 84 l 1
 314 187 l 1
 208 84 l 1
 257 84 l 1
 240 0 l 1
 12 0 l 1
EndSplineSet
EndChar
StartChar: y
Encoding: 121 121 190
Width: 600
Flags: MW
HStem: -193 84<30 126 265 346 13 126> 446 84<112 144 96 398 308 308 308 381 112 465 482 537 634 634 634 683>
LayerCount: 2
Fore
SplineSet
249 16 m 1
 144 446 l 1
 96 446 l 1
 112 530 l 1
 398 530 l 1
 381 446 l 1
 308 446 l 1
 370 193 l 1
 537 446 l 1
 465 446 l 1
 482 530 l 1
 701 530 l 1
 683 446 l 1
 634 446 l 1
 265 -109 l 1
 364 -109 l 1
 346 -193 l 1
 13 -193 l 1
 30 -109 l 1
 126 -109 l 1xc0
 249 16 l 1
EndSplineSet
EndChar
StartChar: braceleft
Encoding: 123 123 269
Width: 600
Flags: W
VStem: 193 147<-30 -19.5> 273 133<207.5 228 188 233.5>
LayerCount: 2
Fore
SplineSet
142 355 m 1x40
 183 355 l 2
 284 355 320 386 320 470 c 2
 320 480 l 1
 317 556 l 1
 317 569 l 2
 317 715 397 771 604 771 c 2
 665 771 l 1
 648 687 l 1
 605 687 l 2
 539 687 501 679 486 662 c 0
 478 654 471 638 469 624 c 0
 469 622 469 622 467 602 c 0
 466 594 466 589 466 587 c 2
 466 535 l 2
 463 407 430 359 315 312 c 1
 378 288 406 254 406 202 c 0x40
 406 174 396 134 378 91 c 2
 356 39 l 2
 346 16 340 -5 340 -15 c 0
 340 -45 379 -60 456 -60 c 2
 499 -60 l 1
 482 -145 l 1
 421 -145 l 2
 259 -145 193 -112 193 -33 c 0x80
 193 -6 202 27 220 70 c 2
 253 146 l 2
 267 179 273 200 273 215 c 0
 273 252 237 271 166 271 c 2
 125 271 l 1
 142 355 l 1x40
EndSplineSet
EndChar
StartChar: bar
Encoding: 124 124 304
Width: 600
Flags: W
LayerCount: 2
Fore
SplineSet
223 -145 m 1
 406 771 l 1
 502 771 l 1
 319 -145 l 1
 223 -145 l 1
EndSplineSet
EndChar
StartChar: braceright
Encoding: 125 125 270
Width: 600
Flags: W
VStem: 319 133<398.5 419.5 393 439> 386 146<646 656.5>
LayerCount: 2
Fore
SplineSet
583 271 m 1x80
 542 271 l 2
 442 271 405 241 405 157 c 2
 405 146 l 1
 408 70 l 1
 408 57 l 2
 408 -89 328 -145 121 -145 c 2
 60 -145 l 1
 77 -60 l 1
 120 -60 l 2
 185 -60 224 -52 239 -36 c 0
 247 -27 254 -11 256 3 c 0
 256 4 256 4 258 25 c 0
 259 33 259 38 259 39 c 2
 259 92 l 2
 261 218 295 268 410 314 c 1
 346 339 319 372 319 425 c 0x80
 319 453 329 492 347 535 c 2
 369 587 l 2
 382 617 386 631 386 642 c 0
 386 671 347 687 269 687 c 2
 227 687 l 1
 243 771 l 1
 304 771 l 2
 466 771 532 739 532 660 c 0x40
 532 632 523 600 505 556 c 2
 472 480 l 2
 458 446 452 427 452 412 c 0
 452 374 488 355 560 355 c 2
 600 355 l 1
 583 271 l 1x80
EndSplineSet
EndChar
StartChar: asciitilde
Encoding: 126 126 307
Width: 600
Flags: MW
HStem: 203 95<461.5 480.5> 310 95<240.5 259>
LayerCount: 2
Fore
SplineSet
177 211 m 1
 93 211 l 1
 105 270 116 299 136 330 c 0
 167 379 213 405 268 405 c 0
 306 405 339 391 377 358 c 2
 406 332 l 2
 434 309 453 298 470 298 c 0
 504 298 527 329 544 397 c 1
 628 397 l 1
 615 338 605 309 585 278 c 0
 553 229 508 203 453 203 c 0
 415 203 381 217 344 250 c 2
 314 276 l 2
 287 299 267 310 251 310 c 0
 217 310 194 279 177 211 c 1
EndSplineSet
EndChar
StartChar: exclamdown
Encoding: 161 161 233
Width: 600
Flags: MW
HStem: 409 121<334 454 310 478>
LayerCount: 2
Fore
SplineSet
478 530 m 1
 454 409 l 1
 310 409 l 1
 334 530 l 1
 478 530 l 1
407 325 m 1
 362 -48 l 1
 334 -193 l 1
 189 -193 l 1
 218 -48 l 1
 324 325 l 1
 407 325 l 1
EndSplineSet
EndChar
StartChar: cent
Encoding: 162 162 215
Width: 600
Flags: MW
HStem: -18 20 721 20<461 545 545 545>
LayerCount: 2
Fore
SplineSet
351 192 m 1
 423 556 l 1
 344 530 289 433 289 318 c 0
 289 252 307 215 351 192 c 1
309 -18 m 1
 329 85 l 1
 246 96 205 115 170 156 c 0
 142 191 129 234 129 294 c 0
 129 403 168 496 239 560 c 0
 293 609 352 633 441 645 c 1
 461 741 l 1
 545 741 l 1
 526 648 l 1
 570 645 617 638 667 629 c 1
 634 464 l 1
 549 464 l 1
 552 537 l 1
 537 546 523 551 507 554 c 1
 432 179 l 1
 487 182 535 191 583 207 c 1
 562 102 l 1
 519 93 470 87 413 84 c 1
 393 -18 l 1
 309 -18 l 1
EndSplineSet
EndChar
StartChar: sterling
Encoding: 163 163 213
Width: 600
Flags: MW
HStem: 0 121<58 118 82 118 213 540> 344 84<162 229 145 246 391 494> 657 84<488.5 522>
LayerCount: 2
Fore
SplineSet
58 0 m 1
 82 121 l 1
 154 121 195 176 221 304 c 2
 229 344 l 1
 145 344 l 1
 162 428 l 1
 246 428 l 1
 258 485 l 2
 293 657 380 741 522 741 c 0
 571 741 619 732 676 713 c 1
 647 566 l 1
 563 566 l 1
 567 646 l 1
 544 654 530 657 514 657 c 0
 463 657 431 626 418 563 c 2
 391 428 l 1
 511 428 l 1
 494 344 l 1
 373 344 l 1
 370 325 l 2
 352 232 298 162 213 121 c 1
 564 121 l 1
 540 0 l 1
 58 0 l 1
EndSplineSet
EndChar
StartChar: currency
Encoding: 164 164 266
Width: 600
Flags: MW
HStem: 132 97<314 348> 495 96<394 430.5>
VStem: 138 99<304.5 348.5> 507 99<374 418.5>
LayerCount: 2
Fore
SplineSet
208 491 m 1
 132 587 l 1
 203 647 l 1
 280 551 l 1
 329 579 370 591 418 591 c 0
 466 591 502 579 540 551 c 1
 655 647 l 1
 702 587 l 1
 587 491 l 1
 600 459 606 433 606 405 c 0
 606 343 584 290 535 232 c 1
 612 136 l 1
 541 76 l 1
 463 172 l 1
 414 144 371 132 325 132 c 0
 282 132 246 144 204 172 c 1
 89 76 l 1
 41 136 l 1
 157 232 l 1
 144 265 138 291 138 318 c 0
 138 379 160 433 208 491 c 1
399 495 m 0
 314 495 237 420 237 336 c 0
 237 273 282 229 346 229 c 0
 430 229 507 305 507 387 c 0
 507 450 462 495 399 495 c 0
EndSplineSet
EndChar
StartChar: yen
Encoding: 165 165 218
Width: 600
Flags: MW
HStem: 0 84<127 252 144 252 397 489> 166 66<137 269 124 282 427 558> 331 66<170 269 170 302 157 269 502 591> 703 20<154 400 400 400 563 736 736 736>
LayerCount: 2
Fore
SplineSet
127 0 m 1
 144 84 l 1
 252 84 l 1
 269 166 l 1
 124 166 l 1
 137 232 l 1
 282 232 l 1
 302 331 l 1
 157 331 l 1
 170 397 l 1
 269 397 l 1
 149 639 l 1
 138 639 l 1
 154 723 l 1
 400 723 l 1
 383 639 l 1
 323 639 l 1
 427 417 l 1
 606 639 l 1
 546 639 l 1
 563 723 l 1
 736 723 l 1
 719 639 l 1
 707 639 l 1
 502 397 l 1
 604 397 l 1
 591 331 l 1
 446 331 l 1
 427 232 l 1
 571 232 l 1
 558 166 l 1
 413 166 l 1
 397 84 l 1
 505 84 l 1
 489 0 l 1
 127 0 l 1
EndSplineSet
EndChar
StartChar: brokenbar
Encoding: 166 166 305
Width: 600
Flags: W
LayerCount: 2
Fore
SplineSet
223 -145 m 1
 295 217 l 1
 391 217 l 1
 319 -145 l 1
 223 -145 l 1
334 410 m 1
 406 771 l 1
 502 771 l 1
 430 410 l 1
 334 410 l 1
EndSplineSet
EndChar
StartChar: section
Encoding: 167 167 250
Width: 600
Flags: W
HStem: -157 84<260 310.5 260 339> 657 84<403 450.5>
VStem: 175 147<573.5 598> 394 148<-15.5 13.5> 469 114<266.5 368>
LayerCount: 2
Fore
SplineSet
50 -125 m 1xd0
 81 30 l 1
 165 30 l 1
 163 -45 l 1
 209 -65 242 -73 278 -73 c 0
 343 -73 394 -41 394 1 c 0xd0
 394 26 367 51 311 79 c 2
 240 115 l 2
 163 153 125 201 125 257 c 0
 125 314 159 368 238 439 c 1
 193 467 175 496 175 540 c 0
 175 656 295 741 458 741 c 0
 511 741 567 734 640 719 c 1
 611 572 l 1
 527 572 l 1
 529 642 l 1
 495 652 465 657 436 657 c 0
 370 657 322 626 322 584 c 0
 322 563 346 541 400 515 c 2
 460 486 l 2
 551 441 583 401 583 335 c 0xe8
 583 273 553 219 484 152 c 1
 525 118 542 86 542 42 c 0
 542 -73 422 -157 256 -157 c 0
 199 -157 137 -147 50 -125 c 1xd0
409 192 m 1xc8
 420 187 l 1
 454 227 469 255 469 278 c 0
 469 306 443 334 392 360 c 2
 310 401 l 1
 300 406 l 1
 263 366 247 338 247 313 c 0
 247 282 266 262 324 234 c 2
 409 192 l 1xc8
EndSplineSet
EndChar
StartChar: dieresis
Encoding: 168 168 281
Width: 600
Flags: MW
HStem: 627 108<263 393 284 371 501 588 284 480>
LayerCount: 2
Fore
SplineSet
263 627 m 1
 284 735 l 1
 393 735 l 1
 371 627 l 1x80
 263 627 l 1
480 627 m 1
 501 735 l 1
 610 735 l 1
 588 627 l 1
 480 627 l 1
EndSplineSet
EndChar
StartChar: copyright
Encoding: 169 169 295
Width: 600
Flags: MW
HStem: -18 60<257 340 257 342.5> 141 60<344 359> 521 54<388.5 435.5> 681 61<399.5 486.5>
VStem: 90 68<184 307> 205 84<266.5 360.5 266.5 376> 587 68<415 539>
LayerCount: 2
Fore
SplineSet
446 742 m 0
 579 742 655 647 655 481 c 0
 655 349 618 228 548 131 c 0
 477 32 392 -18 293 -18 c 0
 166 -18 90 80 90 242 c 0
 90 372 127 493 196 591 c 0
 267 692 350 742 446 742 c 0
436 681 m 0
 363 681 297 638 242 553 c 0
 187 467 158 366 158 255 c 0
 158 113 207 42 307 42 c 0
 373 42 433 77 485 144 c 0
 552 232 587 344 587 468 c 0
 587 610 537 681 436 681 c 0
460 168 m 1
 449 164 l 2
 408 149 373 141 345 141 c 0
 258 141 205 202 205 301 c 0
 205 451 308 575 432 575 c 0
 457 575 502 569 528 562 c 2
 536 560 l 1
 517 464 l 1
 475 464 l 1
 485 509 l 1
 464 517 445 521 426 521 c 0
 351 521 289 421 289 300 c 0
 289 233 316 201 372 201 c 0
 405 201 434 208 471 226 c 1
 460 168 l 1
EndSplineSet
EndChar
StartChar: ordfeminine
Encoding: 170 170 271
Width: 600
Flags: MW
HStem: 350 85<245 352> 669 73<395.5 428>
VStem: 167 123<455 483 455 490>
LayerCount: 2
Fore
SplineSet
453 350 m 1
 447 402 l 1
 376 364 331 350 284 350 c 0
 206 350 167 380 167 440 c 0
 167 540 255 592 422 592 c 2
 484 592 l 1
 488 607 l 1
 489 624 l 2
 489 653 457 669 399 669 c 0
 375 669 354 666 314 658 c 1
 306 619 l 1
 222 619 l 1
 240 711 l 1
 308 733 363 742 428 742 c 0
 547 742 608 713 608 657 c 0
 608 645 605 622 602 604 c 2
 565 422 l 1
 631 422 l 1
 617 350 l 1
 453 350 l 1
461 475 m 1
 470 520 l 1
 413 520 l 2
 332 520 290 501 290 465 c 0
 290 445 304 435 334 435 c 0
 370 435 407 447 461 475 c 1
EndSplineSet
EndChar
StartChar: guillemotleft
Encoding: 171 171 237
Width: 600
Flags: W
LayerCount: 2
Fore
SplineSet
587 118 m 1
 503 48 l 1
 330 265 l 1
 590 482 l 1
 646 412 l 1
 500 265 l 1
 587 118 l 1
346 118 m 1
 262 48 l 1
 89 265 l 1
 349 482 l 1
 405 412 l 1
 259 265 l 1
 346 118 l 1
EndSplineSet
EndChar
StartChar: logicalnot
Encoding: 172 172 302
Width: 600
Flags: MW
HStem: 253 97<93 616 112 500>
LayerCount: 2
Fore
SplineSet
93 253 m 1
 112 350 l 1
 616 350 l 1
 565 96 l 1
 468 96 l 1
 500 253 l 1
 93 253 l 1
EndSplineSet
EndChar
StartChar: registered
Encoding: 174 174 296
Width: 600
Flags: MW
HStem: -18 60<257 340 257 342.5> 681 61<399.5 486.5>
VStem: 90 68<184 307> 435 77<460.5 491> 587 68<415 539>
LayerCount: 2
Fore
SplineSet
446 742 m 0
 579 742 655 647 655 481 c 0
 655 349 618 228 548 131 c 0
 477 32 392 -18 293 -18 c 0
 166 -18 90 80 90 242 c 0
 90 372 127 493 196 591 c 0
 267 692 350 742 446 742 c 0
436 681 m 0
 363 681 297 638 242 553 c 0
 187 467 158 366 158 255 c 0
 158 113 207 42 307 42 c 0
 373 42 433 77 485 144 c 0
 552 232 587 344 587 468 c 0
 587 610 537 681 436 681 c 0
209 155 m 1
 218 203 l 1
 231 203 l 1
 294 520 l 1
 282 520 l 1
 292 568 l 1
 424 568 l 2
 483 568 512 542 512 488 c 0
 512 433 486 394 427 360 c 1
 474 203 l 1
 487 203 l 1
 478 155 l 1
 408 155 l 1
 354 334 l 1
 329 334 l 1
 303 203 l 1
 321 203 l 1
 311 155 l 1
 209 155 l 1
337 370 m 1
 340 370 l 2
 394 370 435 416 435 476 c 0
 435 506 419 520 384 520 c 2
 366 520 l 1
 337 370 l 1
EndSplineSet
EndChar
StartChar: macron
Encoding: 349 175 293
Width: 600
Flags: MW
HStem: 627 84<245 623 262 606>
LayerCount: 2
Fore
SplineSet
245 627 m 1
 262 711 l 1
 623 711 l 1
 606 627 l 1x80
 245 627 l 1
EndSplineSet
EndChar
StartChar: degree
Encoding: 176 176 258
Width: 600
Flags: MW
HStem: 494 72<396 438.5 396 447> 712 72<422.5 465>
VStem: 283 74<605 647.5 605 656> 504 74<630.5 673>
LayerCount: 2
Fore
SplineSet
460 784 m 0
 529 784 578 735 578 667 c 0
 578 577 493 494 401 494 c 0
 332 494 283 543 283 611 c 0
 283 701 367 784 460 784 c 0
446 712 m 0
 399 712 357 671 357 624 c 0
 357 586 377 566 415 566 c 0
 462 566 504 607 504 654 c 0
 504 692 484 712 446 712 c 0
EndSplineSet
EndChar
StartChar: plusminus
Encoding: 177 177 273
Width: 600
Flags: MW
HStem: 0 96<59 560 78 541> 320 96<142 316 123 335 142 412 431 605>
LayerCount: 2
Fore
SplineSet
59 0 m 1
 78 96 l 1
 560 96 l 1
 541 0 l 1
 59 0 l 1
281 145 m 1
 316 320 l 1
 123 320 l 1
 142 416 l 1
 335 416 l 1
 370 590 l 1
 466 590 l 1
 431 416 l 1
 624 416 l 1
 605 320 l 1
 412 320 l 1
 377 145 l 1
 281 145 l 1
EndSplineSet
EndChar
StartChar: twosuperior
Encoding: 178 178 220
Width: 600
Flags: MW
HStem: 356 84<186 203 203 203 332 556> 669 73<399.5 433>
VStem: 487 116<614.5 641>
LayerCount: 2
Fore
SplineSet
186 356 m 1
 203 440 l 1
 237 481 296 517 385 552 c 2
 401 558 l 2
 475 588 487 597 487 627 c 0
 487 655 460 669 406 669 c 0
 377 669 352 665 326 656 c 1
 311 614 l 1
 239 614 l 1
 259 713 l 1
 318 733 370 742 429 742 c 0
 545 742 603 708 603 639 c 0
 603 590 569 550 506 526 c 2
 454 506 l 1
 436 500 l 2
 390 483 353 462 332 440 c 1
 573 440 l 1
 556 356 l 1
 186 356 l 1
EndSplineSet
EndChar
StartChar: threesuperior
Encoding: 179 179 221
Width: 600
Flags: W
HStem: 350 72<347 393.5 347 424> 670 72<417.5 444>
VStem: 460 114<453.5 486.5> 494 117<630 647.5>
LayerCount: 2
Fore
SplineSet
193 367 m 1xe0
 210 452 l 1
 282 452 l 1
 284 429 l 1
 311 424 334 422 360 422 c 0
 427 422 460 438 460 469 c 0xe0
 460 504 427 514 319 514 c 2
 272 514 l 1
 287 586 l 1
 335 586 l 2
 440 586 494 603 494 637 c 0
 494 658 468 670 420 670 c 0
 394 670 368 666 328 656 c 1
 316 625 l 1
 243 625 l 1
 261 713 l 1
 325 733 383 742 452 742 c 0
 558 742 611 713 611 655 c 0xd0
 611 605 575 573 491 549 c 1
 550 532 574 508 574 469 c 0
 574 396 490 350 358 350 c 0
 302 350 248 356 193 367 c 1xe0
EndSplineSet
EndChar
StartChar: acute
Encoding: 180 180 284
Width: 600
Flags: W
LayerCount: 2
Fore
SplineSet
305 626 m 1
 438 783 l 1
 577 783 l 1
 389 626 l 1
 305 626 l 1
EndSplineSet
EndChar
StartChar: mu
Encoding: 181 181 308
Width: 600
Flags: W
HStem: -6 104<277 286> 0 20 510 20<124 314 314 314 450 640 640 640>
LayerCount: 2
Fore
SplineSet
108 446 m 1x80
 124 530 l 1
 314 530 l 1
 251 215 l 2
 245 185 242 161 242 148 c 0
 242 116 260 98 294 98 c 0xa0
 333 98 374 123 432 183 c 1
 485 446 l 1
 433 446 l 1
 450 530 l 1
 640 530 l 1
 551 84 l 1
 602 84 l 1
 585 0 l 1
 395 0 l 1x60
 411 78 l 1
 349 18 307 -6 265 -6 c 0
 245 -6 227 0 210 12 c 1
 170 -193 l 1
 31 -193 l 1
 158 446 l 1
 108 446 l 1x80
EndSplineSet
EndChar
StartChar: paragraph
Encoding: 182 182 265
Width: 600
Flags: W
HStem: 651 72<473 540 456 639> 709 20<301.5 372>
LayerCount: 2
Fore
SplineSet
213 -145 m 1x80
 314 361 l 1
 201 388 154 436 154 524 c 0
 154 648 237 729 366 729 c 0x40
 378 729 399 728 412 727 c 2
 446 724 l 2
 453 723 462 723 473 723 c 2
 639 723 l 1
 466 -145 l 1
 381 -145 l 1
 540 651 l 1
 456 651 l 1
 297 -145 l 1
 213 -145 l 1x80
EndSplineSet
EndChar
StartChar: periodcentered
Encoding: 340 183 224
Width: 600
Flags: MW
HStem: 229 156<268 456 299 425>
LayerCount: 2
Fore
SplineSet
268 229 m 1
 299 385 l 1
 456 385 l 1
 425 229 l 1
 268 229 l 1
EndSplineSet
EndChar
StartChar: cedilla
Encoding: 184 184 291
Width: 600
Flags: MW
HStem: -211 52<229.5 240 211.5 280> 0 20
VStem: 284 97<-136 -113>
LayerCount: 2
Fore
SplineSet
264 0 m 1
 330 0 l 1
 282 -55 l 1
 351 -64 381 -84 381 -121 c 0
 381 -170 317 -211 243 -211 c 0
 216 -211 188 -206 154 -196 c 1
 163 -152 l 1
 186 -157 204 -159 219 -159 c 0
 261 -159 284 -147 284 -125 c 0
 284 -101 255 -89 197 -89 c 2
 187 -89 l 1xe0
 264 0 l 1
EndSplineSet
EndChar
StartChar: onesuperior
Encoding: 185 185 219
Width: 600
Flags: MW
HStem: 356 72<228 355 243 355 470 568> 721 20<533 533>
LayerCount: 2
Fore
SplineSet
228 356 m 1
 243 428 l 1
 355 428 l 1
 399 644 l 1
 281 621 l 1
 295 693 l 1
 533 741 l 1
 470 428 l 1
 583 428 l 1
 568 356 l 1
 228 356 l 1
EndSplineSet
EndChar
StartChar: ordmasculine
Encoding: 186 186 272
Width: 600
Flags: MW
HStem: 350 72<364.5 424.5 364.5 448> 669 72<402 462.5>
VStem: 186 121<484 553.5 484 573> 520 120<538 607>
LayerCount: 2
Fore
SplineSet
455 741 m 0
 577 741 640 688 640 583 c 0
 640 447 527 350 369 350 c 0
 248 350 186 403 186 505 c 0
 186 641 300 741 455 741 c 0
438 669 m 0
 366 669 307 597 307 510 c 0
 307 458 340 422 389 422 c 0
 460 422 520 495 520 581 c 0
 520 633 487 669 438 669 c 0
EndSplineSet
EndChar
StartChar: guillemotright
Encoding: 187 187 236
Width: 600
Flags: W
LayerCount: 2
Fore
SplineSet
60 118 m 1
 206 265 l 1
 119 412 l 1
 203 482 l 1
 376 265 l 1
 116 48 l 1
 60 118 l 1
301 118 m 1
 447 265 l 1
 360 412 l 1
 444 482 l 1
 618 265 l 1
 357 48 l 1
 301 118 l 1
EndSplineSet
EndChar
StartChar: onequarter
Encoding: 188 188 275
Width: 600
Flags: W
HStem: -18 20 0 20 87 66<306 306 374 459 293 306 562 597> 721 20<330 330 624 694 694 694>
LayerCount: 2
Fore
SplineSet
34 -18 m 1x90
 624 741 l 1
 694 741 l 1
 103 -18 l 1
 34 -18 l 1x90
441 0 m 1x70
 459 87 l 1
 293 87 l 1
 306 153 l 1
 518 386 l 1
 609 386 l 1
 562 153 l 1
 611 153 l 1
 597 87 l 1
 549 87 l 1
 532 0 l 1
 441 0 l 1x70
374 153 m 1
 472 153 l 1
 499 291 l 1
 374 153 l 1
157 355 m 1
 215 645 l 1
 139 627 l 1
 153 699 l 1
 330 741 l 1
 253 355 l 1
 157 355 l 1
EndSplineSet
EndChar
StartChar: onehalf
Encoding: 189 189 274
Width: 600
Flags: W
HStem: -18 20 0 78<444 585> 320 66<517 518> 721 20<327 327 605 675 675 675>
VStem: 543 98<270 295>
LayerCount: 2
Fore
SplineSet
344 0 m 1x78
 361 84 l 1
 387 124 421 158 466 187 c 2
 480 197 l 2
 522 224 543 253 543 283 c 0
 543 307 530 320 506 320 c 0
 495 320 485 317 469 307 c 1
 456 265 l 1
 398 265 l 1
 417 357 l 1
 470 378 501 386 533 386 c 0
 603 386 641 354 641 294 c 0
 641 246 618 206 572 176 c 0
 566 172 553 165 533 154 c 0
 529 152 524 150 522 148 c 2
 507 139 l 2
 478 121 457 100 444 78 c 1
 600 78 l 1
 585 0 l 1
 344 0 l 1x78
153 355 m 1
 211 645 l 1
 135 627 l 1
 149 699 l 1
 327 741 l 1
 249 355 l 1
 153 355 l 1
15 -18 m 1x98
 605 741 l 1
 675 741 l 1
 84 -18 l 1
 15 -18 l 1x98
EndSplineSet
EndChar
StartChar: threequarters
Encoding: 190 190 276
Width: 600
Flags: W
HStem: -18 20 0 20 87 66<308 308 375 460 294 308 563 598> 350 66<193.5 219.5 193.5 240.5> 676 66<263 270.5>
VStem: 261 89<457 490> 295 93<636 655.5>
LayerCount: 2
Fore
SplineSet
89 367 m 1x9c
 105 446 l 1
 161 446 l 1
 157 425 l 1
 175 419 187 416 200 416 c 0
 239 416 261 438 261 476 c 0x9c
 261 504 238 517 187 517 c 2
 166 517 l 1
 179 583 l 1
 202 583 l 2
 262 583 295 605 295 645 c 0
 295 666 283 676 258 676 c 0
 243 676 227 672 204 662 c 1
 200 640 l 1
 143 640 l 1
 158 715 l 1
 208 734 245 742 281 742 c 0
 352 742 388 715 388 662 c 0x9a
 388 610 357 575 287 550 c 1
 331 533 350 511 350 473 c 0
 350 403 284 350 197 350 c 0
 168 350 133 356 89 367 c 1x9c
41 -18 m 1
 631 741 l 1
 701 741 l 1
 110 -18 l 1
 41 -18 l 1
442 0 m 1x64
 460 87 l 1
 294 87 l 1
 308 153 l 1
 520 386 l 1
 610 386 l 1
 563 153 l 1
 612 153 l 1
 598 87 l 1
 550 87 l 1
 533 0 l 1
 442 0 l 1x64
375 153 m 1
 473 153 l 1
 500 291 l 1
 375 153 l 1
EndSplineSet
EndChar
StartChar: questiondown
Encoding: 191 191 235
Width: 600
Flags: MW
HStem: -211 84<277 308> 409 121<377 498 353 522>
VStem: 44 160<-77 -50.5>
LayerCount: 2
Fore
SplineSet
522 530 m 1
 498 409 l 1
 353 409 l 1
 377 530 l 1
 522 530 l 1
481 325 m 1
 477 306 l 2
 458 218 432 182 327 100 c 2
 293 73 l 2
 233 27 204 -14 204 -53 c 0
 204 -101 242 -127 312 -127 c 0
 346 -127 377 -121 419 -104 c 1
 448 -18 l 1
 533 -18 l 1
 501 -179 l 1
 398 -202 339 -211 277 -211 c 0
 124 -211 44 -165 44 -78 c 0
 44 -23 75 27 135 66 c 2
 175 93 l 1
 209 118 l 2
 290 176 311 206 328 286 c 2
 336 325 l 1
 481 325 l 1
EndSplineSet
EndChar
StartChar: Acircumflex
Encoding: 194 194 3
Width: 600
Flags: MW
HStem: 0 20 199 84<243 414 243 421 202 414> 703 20<370 519 519 519>
LayerCount: 2
Fore
SplineSet
12 0 m 1
 29 85 l 1
 59 85 l 1
 370 723 l 1
 519 723 l 1
 575 85 l 1
 605 85 l 1
 588 0 l 1
 348 0 l 1
 365 85 l 1
 431 85 l 1
 421 199 l 1
 202 199 l 1
 146 85 l 1
 213 85 l 1
 196 0 l 1
 12 0 l 1
243 283 m 1
 414 283 l 1
 388 581 l 1
 387 581 l 1
 243 283 l 1
285 783 m 1
 418 940 l 1
 557 940 l 1
 628 783 l 1
 550 783 l 1
 475 875 l 1
 474 875 l 1
 364 783 l 1
 285 783 l 1
EndSplineSet
EndChar
StartChar: Atilde
Encoding: 195 195 5
Width: 600
Flags: W
HStem: 0 20 199 84<243 414 243 421 202 414> 703 20<370 519 519 519> 783 90<537 553 537 562.5> 850 90<391.5 407>
LayerCount: 2
Fore
SplineSet
12 0 m 1xe8
 29 85 l 1
 59 85 l 1
 370 723 l 1
 519 723 l 1
 575 85 l 1
 605 85 l 1
 588 0 l 1
 348 0 l 1
 365 85 l 1
 431 85 l 1
 421 199 l 1
 202 199 l 1
 146 85 l 1
 213 85 l 1
 196 0 l 1
 12 0 l 1xe8
243 283 m 1
 414 283 l 1
 388 581 l 1
 387 581 l 1
 243 283 l 1
357 783 m 1
 285 783 l 1
 310 892 350 940 414 940 c 0x08
 435 940 454 933 472 919 c 2
 488 906 l 2
 491 904 494 902 495 901 c 2
 498 899 l 2
 499 898 499 897 501 896 c 0
 517 882 532 873 542 873 c 0
 564 873 578 894 587 940 c 1
 659 940 l 1
 634 830 595 783 530 783 c 0x10
 509 783 489 790 472 804 c 2
 456 817 l 2
 450 822 450 822 448 824 c 0
 446 825 443 828 437 833 c 0
 424 844 412 850 402 850 c 0
 381 850 367 829 357 783 c 1
EndSplineSet
EndChar
StartChar: Adieresis
Encoding: 196 196 0
Width: 600
Flags: MW
HStem: 0 20 199 84<243 414 243 421 202 414> 703 20<370 519 519 519> 784 108<294 424 316 403 533 619 316 511>
LayerCount: 2
Fore
SplineSet
12 0 m 1
 29 85 l 1
 59 85 l 1
 370 723 l 1
 519 723 l 1
 575 85 l 1
 605 85 l 1
 588 0 l 1
 348 0 l 1
 365 85 l 1
 431 85 l 1
 421 199 l 1
 202 199 l 1
 146 85 l 1
 213 85 l 1
 196 0 l 1
 12 0 l 1
243 283 m 1
 414 283 l 1
 388 581 l 1
 387 581 l 1
 243 283 l 1
294 784 m 1
 316 892 l 1
 424 892 l 1
 403 784 l 1
 294 784 l 1
511 784 m 1
 533 892 l 1
 641 892 l 1
 619 784 l 1
 511 784 l 1
EndSplineSet
EndChar
StartChar: Aring
Encoding: 197 197 6
Width: 600
Flags: MW
HStem: 0 20 199 84<243 414 243 421 202 414> 703 20<370 519 416.5 481 519 519> 723 55<438.5 474 438.5 519 438.5 474 438.5 481 438.5 519> 899 54<460.5 496>
VStem: 351 55<810.5 845.5 810.5 852> 529 55<831.5 866.5>
LayerCount: 2
Fore
SplineSet
12 0 m 1xfe
 29 85 l 1
 59 85 l 1
 370 723 l 1
 519 723 l 1
 575 85 l 1
 605 85 l 1
 588 0 l 1
 348 0 l 1
 365 85 l 1
 431 85 l 1
 421 199 l 1
 202 199 l 1
 146 85 l 1
 213 85 l 1
 196 0 l 1
 12 0 l 1xfe
243 283 m 1
 414 283 l 1
 388 581 l 1
 387 581 l 1
 243 283 l 1
491 953 m 0
 545 953 584 915 584 861 c 0
 584 788 518 723 444 723 c 0
 389 723 351 761 351 816 c 0
 351 888 417 953 491 953 c 0
480 899 m 0
 441 899 406 865 406 826 c 0
 406 795 423 778 454 778 c 0
 494 778 529 812 529 851 c 0
 529 882 512 899 480 899 c 0
EndSplineSet
EndChar
StartChar: AE
Encoding: 198 198 159
Width: 600
Flags: W
HStem: 0 90<425 509 425 582> 0 168<525 582> 199 84<245 314 205 331> 320 84<487 579 471 596> 639 84<535 607 535 535>
LayerCount: 2
Fore
SplineSet
6 0 m 1xa0
 23 84 l 1
 53 84 l 1
 372 723 l 1
 714 723 l 1
 683 566 l 1
 592 566 l 1
 607 639 l 1
 535 639 l 1
 487 404 l 1
 596 404 l 1
 579 320 l 1
 471 320 l 1
 425 90 l 1
 509 90 l 1xb8
 525 168 l 1
 615 168 l 1x40
 582 0 l 1
 275 0 l 1
 314 199 l 1
 205 199 l 1
 149 84 l 1
 192 84 l 1
 174 0 l 1
 6 0 l 1xa0
331 283 m 1
 390 580 l 1
 389 580 l 1
 245 283 l 1
 331 283 l 1
EndSplineSet
EndChar
StartChar: Ccedilla
Encoding: 199 199 8
Width: 600
Flags: W
HStem: -211 52<291.5 302 273.5 342> -18 95<368.5 412> 0 20 657 84<460 525.5>
VStem: 90 158<207 326.5> 346 97<-136 -113>
LayerCount: 2
Fore
SplineSet
607 127 m 1x5c
 586 22 l 1
 512 -6 447 -18 377 -18 c 0
 194 -18 90 84 90 264 c 0
 90 389 134 506 217 602 c 0
 298 696 398 741 522 741 c 0
 583 741 638 731 708 709 c 1
 667 500 l 1
 582 500 l 1
 595 626 l 1
 569 648 543 657 508 657 c 0
 367 657 248 478 248 265 c 0
 248 149 315 77 422 77 c 0
 474 77 528 92 607 127 c 1x5c
326 0 m 1xac
 392 0 l 1
 344 -55 l 1
 413 -64 443 -84 443 -121 c 0
 443 -170 379 -211 305 -211 c 0
 278 -211 250 -206 216 -196 c 1
 225 -152 l 1
 248 -157 266 -159 281 -159 c 0
 323 -159 346 -147 346 -125 c 0
 346 -101 317 -89 259 -89 c 2
 249 -89 l 1
 326 0 l 1xac
EndSplineSet
EndChar
StartChar: Eacute
Encoding: 201 201 13
Width: 600
Flags: W
HStem: 0 84<18 107 35 107 35 572> 0 90<253 500 253 572> 320 84<316 413 299 430> 639 84<163 218 146 686 363 363 363 580>
LayerCount: 2
Fore
SplineSet
18 0 m 1x80
 35 84 l 1
 107 84 l 1x80
 218 639 l 1
 146 639 l 1
 163 723 l 1
 686 723 l 1
 650 542 l 1
 560 542 l 1
 580 639 l 1
 363 639 l 1
 316 404 l 1
 430 404 l 1
 442 464 l 1
 526 464 l 1
 485 259 l 1
 401 259 l 1
 413 320 l 1
 299 320 l 1
 253 90 l 1
 500 90 l 1x70
 522 199 l 1
 612 199 l 1
 572 0 l 1
 18 0 l 1x80
404 783 m 1
 537 940 l 1
 676 940 l 1
 488 783 l 1
 404 783 l 1
EndSplineSet
EndChar
StartChar: Edieresis
Encoding: 203 203 12
Width: 600
Flags: W
HStem: 0 84<18 107 35 107 35 572> 0 90<253 500 253 572> 320 84<316 413 299 430> 639 84<163 218 146 686 363 363 363 580> 784 108<283 413 305 392 521 608 305 500>
LayerCount: 2
Fore
SplineSet
18 0 m 1x80
 35 84 l 1
 107 84 l 1x88
 218 639 l 1
 146 639 l 1
 163 723 l 1
 686 723 l 1
 650 542 l 1
 560 542 l 1
 580 639 l 1
 363 639 l 1
 316 404 l 1
 430 404 l 1
 442 464 l 1
 526 464 l 1
 485 259 l 1
 401 259 l 1
 413 320 l 1
 299 320 l 1
 253 90 l 1
 500 90 l 1x70
 522 199 l 1
 612 199 l 1
 572 0 l 1
 18 0 l 1x80
283 784 m 1
 305 892 l 1
 413 892 l 1
 392 784 l 1
 283 784 l 1
500 784 m 1
 521 892 l 1
 630 892 l 1
 608 784 l 1
 500 784 l 1
EndSplineSet
EndChar
StartChar: Iacute
Encoding: 205 205 21
Width: 600
Flags: MW
HStem: 0 84<60 245 77 245 389 539> 639 84<205 355 188 684 500 500 500 667>
LayerCount: 2
Fore
SplineSet
60 0 m 1
 77 84 l 1
 245 84 l 1
 355 639 l 1
 188 639 l 1
 205 723 l 1
 684 723 l 1
 667 639 l 1
 500 639 l 1
 389 84 l 1
 557 84 l 1
 539 0 l 1
 60 0 l 1
372 783 m 1
 505 940 l 1
 644 940 l 1
 456 783 l 1
 372 783 l 1
EndSplineSet
EndChar
StartChar: Idieresis
Encoding: 207 207 20
Width: 600
Flags: MW
HStem: 0 84<60 245 77 245 389 539> 639 84<205 355 188 684 500 500 500 667> 784 108<294 424 315 402 532 619 315 511>
LayerCount: 2
Fore
SplineSet
60 0 m 1
 77 84 l 1
 245 84 l 1
 355 639 l 1
 188 639 l 1
 205 723 l 1
 684 723 l 1
 667 639 l 1
 500 639 l 1
 389 84 l 1
 557 84 l 1
 539 0 l 1
 60 0 l 1
294 784 m 1
 315 892 l 1
 424 892 l 1
 402 784 l 1
 294 784 l 1
511 784 m 1
 532 892 l 1
 641 892 l 1
 619 784 l 1
 511 784 l 1
EndSplineSet
EndChar
StartChar: Eth
Encoding: 208 208 162
Width: 600
Flags: MW
HStem: 0 20 327 84<82 132 65 148 293 372> 703 20<163 377 377 472.5>
VStem: 506 155<449.5 538>
LayerCount: 2
Fore
SplineSet
18 0 m 1
 35 85 l 1
 83 85 l 1
 132 327 l 1
 65 327 l 1
 82 411 l 1
 148 411 l 1
 194 639 l 1
 146 639 l 1
 163 723 l 1
 377 723 l 2
 568 723 661 639 661 469 c 0
 661 360 626 254 560 166 c 0
 478 54 365 0 216 0 c 2
 18 0 l 1
228 85 m 1
 250 85 l 2
 339 85 411 141 455 244 c 0
 486 315 506 412 506 487 c 0
 506 589 461 636 360 638 c 2
 339 639 l 1
 293 411 l 1
 390 411 l 1
 372 327 l 1
 276 327 l 1
 228 85 l 1
EndSplineSet
EndChar
StartChar: Ntilde
Encoding: 209 209 29
Width: 600
Flags: W
HStem: 0 84<18 83 35 83 180 235> 639 84<163 194 146 308 522 577 674 674 674 722> 783 90<535 551 535 561.5> 850 90<390 406.5>
LayerCount: 2
Fore
SplineSet
18 0 m 1xd0
 35 84 l 1
 83 84 l 1
 194 639 l 1
 146 639 l 1
 163 723 l 1
 308 723 l 1
 497 235 l 1
 577 639 l 1
 505 639 l 1
 522 723 l 1
 739 723 l 1
 722 639 l 1
 674 639 l 1
 546 0 l 1
 450 0 l 1
 260 485 l 1
 180 84 l 1
 252 84 l 1
 235 0 l 1
 18 0 l 1xd0
355 783 m 1
 283 783 l 1
 308 892 348 940 412 940 c 0x10
 434 940 451 934 470 919 c 2
 487 906 l 2
 493 901 496 898 497 897 c 0
 514 882 530 873 540 873 c 0
 562 873 576 894 585 940 c 1
 658 940 l 1
 633 831 594 783 529 783 c 0x20
 508 783 487 790 471 804 c 2
 455 817 l 2
 448 822 445 825 444 826 c 0
 422 844 412 850 401 850 c 0
 379 850 365 829 355 783 c 1
EndSplineSet
EndChar
StartChar: Ograve
Encoding: 210 210 32
Width: 600
Flags: MW
HStem: -18 84<288.5 351 288.5 359> 657 84<393.5 460>
VStem: 82 144<157.5 226 157.5 271.5> 519 145<492 565.5>
LayerCount: 2
Fore
SplineSet
449 741 m 0
 592 741 664 661 664 501 c 0
 664 402 638 285 596 194 c 0
 532 55 427 -18 291 -18 c 0
 152 -18 82 62 82 222 c 0
 82 321 108 438 149 528 c 0
 213 667 318 741 449 741 c 0
431 657 m 0
 356 657 300 583 264 437 c 0
 242 348 226 250 226 202 c 0
 226 113 258 66 319 66 c 0
 383 66 434 127 470 247 c 0
 495 328 519 463 519 521 c 0
 519 610 489 657 431 657 c 0
457 783 m 1
 332 940 l 1
 471 940 l 1
 541 783 l 1
 457 783 l 1
EndSplineSet
EndChar
StartChar: Otilde
Encoding: 213 213 34
Width: 600
Flags: W
HStem: -18 84<288.5 351 288.5 359> 657 84<393.5 460> 783 90<537 553 537 563.5> 850 90<392.5 408>
VStem: 82 144<157.5 226 157.5 271.5> 519 145<492 565.5>
LayerCount: 2
Fore
SplineSet
449 741 m 0xdc
 592 741 664 661 664 501 c 0
 664 402 638 285 596 194 c 0
 532 55 427 -18 291 -18 c 0
 152 -18 82 62 82 222 c 0
 82 321 108 438 149 528 c 0
 213 667 318 741 449 741 c 0xdc
431 657 m 0
 356 657 300 583 264 437 c 0
 242 348 226 250 226 202 c 0
 226 113 258 66 319 66 c 0
 383 66 434 127 470 247 c 0
 495 328 519 463 519 521 c 0
 519 610 489 657 431 657 c 0
358 783 m 1
 285 783 l 1
 311 892 350 940 414 940 c 0x1c
 436 940 454 933 473 919 c 2
 489 906 l 2
 492 904 494 902 495 901 c 2
 498 899 l 1
 501 896 l 2
 518 881 532 873 542 873 c 0
 564 873 578 894 588 940 c 1
 660 940 l 1
 635 831 596 783 531 783 c 0x2c
 510 783 490 790 473 804 c 2
 457 817 l 2
 448 824 447 824 445 827 c 0
 430 840 413 850 403 850 c 0
 382 850 368 829 358 783 c 1
EndSplineSet
EndChar
StartChar: multiply
Encoding: 215 215 261
Width: 600
Flags: MW
HStem: 516 20<237 237 578 578>
LayerCount: 2
Fore
SplineSet
237 536 m 1
 373 365 l 1
 578 536 l 1
 632 467 l 1
 428 297 l 1
 564 127 l 1
 482 59 l 1
 346 229 l 1
 141 59 l 1
 87 127 l 1
 291 297 l 1
 155 467 l 1
 237 536 l 1
EndSplineSet
EndChar
StartChar: Oslash
Encoding: 216 216 161
Width: 600
Flags: MW
HStem: -18 20 721 20<382.5 479.5 639 724 724 724>
LayerCount: 2
Fore
SplineSet
227 235 m 1
 511 584 l 1
 496 635 471 657 430 657 c 0
 381 657 337 618 300 541 c 0
 280 501 264 455 253 407 c 0
 240 350 227 268 227 239 c 2
 227 235 l 1
517 487 m 1
 232 139 l 1
 247 88 272 66 313 66 c 0
 362 66 406 104 443 181 c 0
 462 219 477 262 489 314 c 0
 500 358 500 358 516 484 c 1
 517 487 l 1
20 -18 m 1
 107 89 l 1
 89 130 81 170 81 223 c 0
 81 322 107 438 148 528 c 0
 212 666 317 741 448 741 c 0
 511 741 556 726 598 690 c 1
 639 741 l 1
 724 741 l 1
 636 635 l 1
 655 591 663 554 663 500 c 0
 663 402 637 285 595 195 c 0
 532 57 427 -18 297 -18 c 0
 234 -18 188 -2 146 33 c 1
 104 -18 l 1
 20 -18 l 1
EndSplineSet
EndChar
StartChar: Udieresis
Encoding: 220 220 42
Width: 600
Flags: MW
HStem: -18 85<316.5 350> 703 20<155 396 396 396 542 735 735 735> 784 108<319 449 340 427 557 644 340 535>
VStem: 95 147<131.5 153>
LayerCount: 2
Fore
SplineSet
138 639 m 1
 155 723 l 1
 396 723 l 1
 379 639 l 1
 331 639 l 1
 259 277 l 2
 248 226 242 181 242 159 c 0
 242 104 285 67 348 67 c 0
 432 67 468 111 495 248 c 2
 574 639 l 1
 525 639 l 1
 542 723 l 1
 735 723 l 1
 718 639 l 1
 670 639 l 1
 595 265 l 2
 574 160 555 111 521 71 c 0
 470 12 396 -18 304 -18 c 0
 175 -18 95 43 95 140 c 0
 95 166 100 204 107 242 c 2
 187 639 l 1
 138 639 l 1
319 784 m 1
 340 892 l 1
 449 892 l 1
 427 784 l 1
 319 784 l 1
535 784 m 1
 557 892 l 1
 666 892 l 1
 644 784 l 1
 535 784 l 1
EndSplineSet
EndChar
StartChar: Yacute
Encoding: 221 221 48
Width: 600
Flags: MW
HStem: 0 84<116 253 133 253 398 501> 703 20<151 416 416 416 545 738 738 738>
LayerCount: 2
Fore
SplineSet
116 0 m 1
 133 84 l 1
 253 84 l 1
 300 317 l 1
 179 639 l 1
 134 639 l 1
 151 723 l 1
 416 723 l 1
 399 639 l 1
 352 639 l 1
 429 432 l 1
 578 639 l 1
 528 639 l 1
 545 723 l 1
 738 723 l 1
 720 639 l 1
 679 639 l 1
 445 317 l 1
 398 84 l 1
 518 84 l 1
 501 0 l 1
 116 0 l 1
404 783 m 1
 536 940 l 1
 676 940 l 1
 488 783 l 1
 404 783 l 1
EndSplineSet
EndChar
StartChar: Thorn
Encoding: 222 222 165
Width: 600
Flags: MW
HStem: 0 84<18 131 35 131 276 355> 639 84<163 242 146 500 387 387 387 483>
VStem: 511 158<359 451.5>
LayerCount: 2
Fore
SplineSet
18 0 m 1
 35 84 l 1
 131 84 l 1
 242 639 l 1
 146 639 l 1
 163 723 l 1
 500 723 l 1
 483 639 l 1
 387 639 l 1
 377 590 l 1
 446 590 l 2
 605 590 669 548 669 445 c 0
 669 271 521 144 318 144 c 2
 288 144 l 1
 276 84 l 1
 372 84 l 1
 355 0 l 1
 18 0 l 1
305 229 m 1
 323 229 l 2
 441 229 511 299 511 419 c 0
 511 484 481 506 391 506 c 2
 360 506 l 1
 305 229 l 1
EndSplineSet
EndChar
StartChar: germandbls
Encoding: 223 223 195
Width: 600
Flags: W
HStem: -12 84<428.5 446 428.5 464.5> 0 20 699 85<394 441>
VStem: 476 131<651.5 665> 492 134<132 158>
LayerCount: 2
Fore
SplineSet
21 0 m 1x70
 38 85 l 1
 80 85 l 1
 167 521 l 2
 204 702 294 784 456 784 c 0
 557 784 607 748 607 676 c 0xb0
 607 627 583 577 538 533 c 2
 514 509 l 2
 487 483 471 458 471 443 c 0
 471 437 477 424 487 413 c 2
 504 392 l 1
 552 340 l 2
 603 285 626 238 626 189 c 0
 626 75 528 -12 401 -12 c 0xa8
 370 -12 342 -8 310 0 c 1x48
 337 139 l 1
 415 139 l 1
 413 75 l 1
 420 73 426 72 431 72 c 0
 461 72 492 110 492 149 c 0x88
 492 167 484 186 469 202 c 2
 454 219 l 1
 395 285 l 2
 359 326 342 359 342 387 c 0
 342 416 361 455 400 506 c 2
 426 540 l 2
 459 582 476 620 476 648 c 0
 476 682 458 699 424 699 c 0
 364 699 333 656 311 543 c 2
 219 85 l 1
 273 85 l 1
 256 0 l 1
 21 0 l 1x70
EndSplineSet
EndChar
StartChar: acircumflex
Encoding: 226 226 69
Width: 600
Flags: W
HStem: -12 95<162.5 299> 0 20 459 83<381 405.5>
VStem: 69 151<116.5 135> 460 147<409.5 472.5>
LayerCount: 2
Fore
SplineSet
156 377 m 1
 181 501 l 1
 275 530 344 542 418 542 c 0
 555 542 607 512 607 433 c 0
 607 423 605 405 604 397 c 2
 541 84 l 1
 595 84 l 1
 578 0 l 1
 399 0 l 1x78
 390 51 l 1
 328 7 274 -12 208 -12 c 0
 117 -12 69 29 69 108 c 0
 69 162 94 212 140 252 c 0
 197 301 281 325 401 325 c 2
 444 325 l 1
 456 380 l 2
 458 392 460 406 460 413 c 0
 460 443 432 459 379 459 c 0
 336 459 300 451 262 433 c 1
 240 377 l 1xb8
 156 377 l 1
408 142 m 1x98
 430 253 l 1
 408 253 l 2
 299 253 220 202 220 133 c 0
 220 100 239 83 277 83 c 0
 321 83 361 101 408 142 c 1x98
265 626 m 1
 398 783 l 1
 537 783 l 1
 608 626 l 1
 529 626 l 1
 455 719 l 1
 454 719 l 1
 343 626 l 1
 265 626 l 1
EndSplineSet
EndChar
StartChar: atilde
Encoding: 227 227 71
Width: 600
Flags: W
HStem: -12 95<162.5 299> 0 20 459 83<381 405.5> 626 91<504 519.5 504 530> 693 90<358.5 373.5>
VStem: 69 151<116.5 135> 460 147<409.5 472.5>
LayerCount: 2
Fore
SplineSet
156 377 m 1
 181 501 l 1
 275 530 344 542 418 542 c 0
 555 542 607 512 607 433 c 0
 607 423 605 405 604 397 c 2
 541 84 l 1
 595 84 l 1
 578 0 l 1
 399 0 l 1x66
 390 51 l 1
 328 7 274 -12 208 -12 c 0
 117 -12 69 29 69 108 c 0
 69 162 94 212 140 252 c 0
 197 301 281 325 401 325 c 2
 444 325 l 1
 456 380 l 2
 458 392 460 406 460 413 c 0
 460 443 432 459 379 459 c 0
 336 459 300 451 262 433 c 1
 240 377 l 1xa6
 156 377 l 1
408 142 m 1x86
 430 253 l 1
 408 253 l 2
 299 253 220 202 220 133 c 0
 220 100 239 83 277 83 c 0
 321 83 361 101 408 142 c 1x86
324 626 m 1
 252 626 l 1
 277 736 316 783 381 783 c 0x08
 402 783 421 776 439 762 c 2
 455 750 l 2
 462 744 467 741 468 740 c 0
 483 726 499 717 509 717 c 0
 530 717 544 738 554 783 c 1
 627 783 l 1
 601 673 562 626 498 626 c 0x10
 476 626 458 633 440 647 c 2
 423 660 l 1
 415 667 l 2
 413 668 413 668 412 669 c 2
 404 676 l 2
 391 687 378 693 369 693 c 0x08
 348 693 334 672 324 626 c 1
EndSplineSet
EndChar
StartChar: aring
Encoding: 229 229 72
Width: 600
Flags: W
HStem: -12 95<162.5 299> 0 20 459 83<381 405.5> 626 54<430.5 466 430.5 473> 802 54<452 488>
VStem: 69 55 69 151<116.5 135> 247 55 460 147<409.5 472.5>
LayerCount: 2
Fore
SplineSet
156 377 m 1
 181 501 l 1
 275 530 344 542 418 542 c 0
 555 542 607 512 607 433 c 0
 607 423 605 405 604 397 c 2
 541 84 l 1
 595 84 l 1
 578 0 l 1
 399 0 l 1x6280
 390 51 l 1
 328 7 274 -12 208 -12 c 0
 117 -12 69 29 69 108 c 0
 69 162 94 212 140 252 c 0
 197 301 281 325 401 325 c 2
 444 325 l 1
 456 380 l 2
 458 392 460 406 460 413 c 0
 460 443 432 459 379 459 c 0
 336 459 300 451 262 433 c 1
 240 377 l 1xa280
 156 377 l 1
408 142 m 1x8280
 430 253 l 1
 408 253 l 2
 299 253 220 202 220 133 c 0
 220 100 239 83 277 83 c 0
 321 83 361 101 408 142 c 1x8280
483 856 m 0
 537 856 576 818 576 764 c 0
 576 691 510 626 436 626 c 0
 381 626 343 664 343 718 c 0x1d
 343 791 409 856 483 856 c 0
472 802 m 0
 432 802 398 768 398 728 c 0
 398 697 415 680 446 680 c 0
 486 680 521 715 521 754 c 0
 521 785 504 802 472 802 c 0
EndSplineSet
EndChar
StartChar: ae
Encoding: 230 230 192
Width: 600
Flags: W
HStem: -12 102<391.5 495.5> 229 84<255 266 266 280 418 519> 456 86<275 341.5> 459 83<510 515>
VStem: 51 124<130.5 168.5 130.5 170.5> 534 113<407 431>
LayerCount: 2
Fore
SplineSet
600 116 m 1xdc
 580 18 l 1
 516 -2 466 -12 424 -12 c 0
 359 -12 318 14 288 74 c 1
 247 14 208 -12 159 -12 c 0
 95 -12 51 38 51 111 c 0
 51 230 135 313 255 313 c 2
 297 313 l 1
 310 378 l 2
 316 405 317 412 317 421 c 0
 317 443 305 456 282 456 c 0
 268 456 252 451 231 439 c 1
 212 392 l 1
 141 392 l 1
 164 506 l 1
 226 530 275 542 319 542 c 0xec
 364 542 392 526 415 486 c 1
 455 526 489 542 531 542 c 0
 607 542 647 493 647 401 c 0
 647 365 643 332 631 271 c 2
 623 229 l 1
 400 229 l 1
 396 208 394 191 394 177 c 0
 394 119 421 90 477 90 c 0
 514 90 553 98 600 116 c 1xdc
263 142 m 1
 280 229 l 1
 266 229 l 2
 213 229 175 194 175 143 c 0
 175 118 186 105 206 105 c 0
 224 105 242 117 263 142 c 1
418 313 m 1
 519 313 l 1
 522 325 l 2
 530 364 534 397 534 417 c 0
 534 445 524 459 506 459 c 0x5c
 473 459 445 416 423 332 c 2
 418 313 l 1
EndSplineSet
EndChar
StartChar: ccedilla
Encoding: 231 231 76
Width: 600
Flags: MW
HStem: -211 52<269.5 280 251.5 320> -12 96<349.5 396> 0 20 459 83<391.5 477.5>
VStem: 82 156<176 293 176 304.5> 212 97
LayerCount: 2
Fore
SplineSet
607 130 m 1
 586 25 l 1
 499 -1 433 -12 359 -12 c 0
 175 -12 82 61 82 206 c 0
 82 403 247 542 481 542 c 0
 549 542 611 534 678 515 c 1
 642 337 l 1
 558 337 l 1
 566 436 l 1
 531 452 498 459 457 459 c 0
 326 459 238 364 238 222 c 0
 238 130 294 84 405 84 c 0x58
 457 84 514 97 607 130 c 1
304 0 m 1
 370 0 l 1
 322 -55 l 1
 391 -64 421 -84 421 -121 c 0
 421 -170 357 -211 283 -211 c 0
 256 -211 228 -206 194 -196 c 1
 203 -152 l 1
 226 -157 244 -159 259 -159 c 0
 301 -159 324 -147 324 -125 c 0
 324 -101 295 -89 237 -89 c 2
 227 -89 l 1xa4
 304 0 l 1
EndSplineSet
EndChar
StartChar: igrave
Encoding: 236 236 88
Width: 600
Flags: MW
HStem: 0 84<68 265 85 265 410 574> 446 84<174 338 157 499>
LayerCount: 2
Fore
SplineSet
68 0 m 1
 85 84 l 1
 265 84 l 1
 338 446 l 1
 157 446 l 1
 174 530 l 1
 499 530 l 1
 410 84 l 1
 591 84 l 1
 574 0 l 1xc0
 68 0 l 1
434 626 m 1
 309 783 l 1
 448 783 l 1
 518 626 l 1
 434 626 l 1
EndSplineSet
EndChar
StartChar: icircumflex
Encoding: 238 238 89
Width: 600
Flags: MW
HStem: 0 84<68 265 85 265 410 574> 446 84<174 338 157 499>
LayerCount: 2
Fore
SplineSet
68 0 m 1
 85 84 l 1
 265 84 l 1
 338 446 l 1
 157 446 l 1
 174 530 l 1
 499 530 l 1
 410 84 l 1
 591 84 l 1
 574 0 l 1xc0
 68 0 l 1
275 626 m 1
 408 783 l 1
 547 783 l 1
 618 626 l 1
 539 626 l 1
 465 719 l 1
 464 719 l 1
 353 626 l 1
 275 626 l 1
EndSplineSet
EndChar
StartChar: idieresis
Encoding: 239 239 86
Width: 600
Flags: MW
HStem: 0 84<68 265 85 265 410 574> 446 84<174 338 157 499> 627 108<283 414 305 392 522 609 305 501>
LayerCount: 2
Fore
SplineSet
68 0 m 1
 85 84 l 1
 265 84 l 1
 338 446 l 1
 157 446 l 1
 174 530 l 1
 499 530 l 1
 410 84 l 1
 591 84 l 1
 574 0 l 1
 68 0 l 1
283 627 m 1
 305 735 l 1
 414 735 l 1
 392 627 l 1
 283 627 l 1
501 627 m 1
 522 735 l 1
 631 735 l 1
 609 627 l 1
 501 627 l 1
EndSplineSet
EndChar
StartChar: eth
Encoding: 240 240 201
Width: 600
Flags: MW
HStem: -12 90<291 347.5> 434 90<350 400.5 307 426>
VStem: 82 147<157.5 262 157.5 286> 485 154<324 364>
LayerCount: 2
Fore
SplineSet
238 520 m 1
 199 584 l 1
 305 661 l 1
 263 674 230 679 188 680 c 2
 173 680 l 1
 191 771 l 1
 271 771 341 759 406 734 c 1
 529 826 l 1
 569 761 l 1
 478 694 l 1
 532 657 559 631 586 587 c 0
 621 531 639 460 639 379 c 0
 639 269 606 177 541 101 c 0
 476 26 395 -12 300 -12 c 0
 162 -12 82 66 82 198 c 0
 82 374 224 524 390 524 c 0
 411 524 432 521 457 515 c 1
 444 557 418 592 377 619 c 1
 238 520 l 1
396 434 m 0
 304 434 229 327 229 197 c 0
 229 118 260 78 322 78 c 0
 410 78 485 194 485 329 c 0
 485 399 456 434 396 434 c 0
EndSplineSet
EndChar
StartChar: ntilde
Encoding: 241 241 94
Width: 600
Flags: W
HStem: 0 20 510 20<124 314 314 314> 522 20<459 538.5> 626 91<489 504.5 489 515> 693 90<343.5 358.5>
LayerCount: 2
Fore
SplineSet
18 0 m 1
 35 84 l 1
 86 84 l 1
 158 446 l 1
 107 446 l 1
 124 530 l 1
 314 530 l 1xc0
 298 451 l 1
 377 523 419 542 499 542 c 0
 578 542 616 509 616 442 c 0
 616 422 613 395 606 364 c 2
 551 84 l 1
 602 84 l 1
 585 0 l 1
 332 0 l 1
 349 84 l 1
 412 84 l 1
 458 315 l 2
 463 342 467 369 467 381 c 0
 467 414 449 431 415 431 c 0
 376 431 336 406 277 347 c 1
 225 84 l 1
 288 84 l 1
 271 0 l 1xa0
 18 0 l 1
309 626 m 1
 237 626 l 1
 262 736 301 783 366 783 c 0x08
 387 783 406 776 424 762 c 2
 440 750 l 2
 447 744 452 741 453 740 c 0
 468 726 484 717 494 717 c 0
 515 717 529 738 539 783 c 1
 612 783 l 1
 586 673 547 626 483 626 c 0x10
 461 626 443 633 425 647 c 2
 408 660 l 1
 400 667 l 2
 398 668 398 668 397 669 c 2
 389 676 l 2
 376 687 363 693 354 693 c 0x08
 333 693 319 672 309 626 c 1
EndSplineSet
EndChar
StartChar: otilde
Encoding: 245 245 99
Width: 600
Flags: W
HStem: -12 84<288 362 288 391> 458 84<351 425> 626 91<509 524.5 509 535> 693 90<363.5 378.5>
VStem: 80 150<154.5 267 154.5 296.5> 483 150<263 375.5>
LayerCount: 2
Fore
SplineSet
412 542 m 0
 550 542 633 461 633 328 c 0
 633 139 484 -12 298 -12 c 0
 164 -12 80 71 80 203 c 0xcc
 80 390 228 542 412 542 c 0
396 458 m 0
 306 458 230 338 230 196 c 0
 230 113 259 72 317 72 c 0
 407 72 483 192 483 334 c 0
 483 417 454 458 396 458 c 0
329 626 m 1
 257 626 l 1
 282 736 321 783 386 783 c 0x10
 407 783 426 776 444 762 c 2
 460 750 l 2
 467 744 472 741 473 740 c 0
 488 726 504 717 514 717 c 0
 535 717 549 738 559 783 c 1
 632 783 l 1
 606 673 567 626 503 626 c 0x20
 481 626 463 633 445 647 c 2
 428 660 l 1
 420 667 l 2
 418 668 418 668 417 669 c 2
 409 676 l 2
 396 687 383 693 374 693 c 0x10
 353 693 339 672 329 626 c 1
EndSplineSet
EndChar
StartChar: odieresis
Encoding: 246 246 95
Width: 600
Flags: MW
HStem: -12 84<288 362 288 391> 458 84<351 425> 627 108<266 396 287 374 504 591 287 483>
VStem: 80 150<154.5 267 154.5 296.5> 483 150<263 375.5>
LayerCount: 2
Fore
SplineSet
412 542 m 0
 550 542 633 461 633 328 c 0
 633 139 484 -12 298 -12 c 0
 164 -12 80 71 80 203 c 0xd8
 80 390 228 542 412 542 c 0
396 458 m 0
 306 458 230 338 230 196 c 0
 230 113 259 72 317 72 c 0
 407 72 483 192 483 334 c 0
 483 417 454 458 396 458 c 0
266 627 m 1
 287 735 l 1
 396 735 l 1
 374 627 l 1x20
 266 627 l 1
483 627 m 1
 504 735 l 1
 613 735 l 1
 591 627 l 1
 483 627 l 1
EndSplineSet
EndChar
StartChar: divide
Encoding: 247 247 262
Width: 600
Flags: MW
HStem: 0 145<228 401 257 372> 253 97<101 620 120 601> 458 145<320 493 349 464>
LayerCount: 2
Fore
SplineSet
228 0 m 1
 257 145 l 1
 401 145 l 1
 372 0 l 1
 228 0 l 1
101 253 m 1
 120 350 l 1
 620 350 l 1
 601 253 l 1
 101 253 l 1
320 458 m 1
 349 603 l 1
 493 603 l 1
 464 458 l 1
 320 458 l 1
EndSplineSet
EndChar
StartChar: oslash
Encoding: 248 248 194
Width: 600
Flags: W
HStem: -12 84<28 113 298 358> 458 84<347.5 406.5> 528 20<595 680 680 680>
LayerCount: 2
Fore
SplineSet
28 -12 m 1xa0
 113 72 l 1
 87 113 77 151 77 203 c 0
 77 389 226 542 408 542 c 0xc0
 463 542 505 530 549 502 c 1
 595 548 l 1
 680 548 l 1
 591 461 l 1
 619 420 630 381 630 327 c 0
 630 140 482 -12 298 -12 c 0
 243 -12 201 0 155 30 c 1
 113 -12 l 1
 28 -12 l 1xa0
479 350 m 1
 242 115 l 1
 260 85 282 72 314 72 c 0
 402 72 480 192 480 326 c 2
 480 334 l 1
 479 350 l 1
227 185 m 1
 462 417 l 1
 441 446 421 458 392 458 c 0
 303 458 227 338 227 197 c 2
 227 185 l 1
EndSplineSet
EndChar
StartChar: ucircumflex
Encoding: 251 251 109
Width: 600
Flags: W
HStem: -12 20 0 20 510 20<121 311 311 311 435 636 636 636>
LayerCount: 2
Fore
SplineSet
104 446 m 1
 121 530 l 1
 311 530 l 1
 248 215 l 2
 240 177 238 162 238 148 c 0
 238 116 256 98 290 98 c 0
 329 98 370 123 428 183 c 1
 481 446 l 1
 418 446 l 1
 435 530 l 1
 636 530 l 1
 548 84 l 1
 599 84 l 1
 582 0 l 1
 392 0 l 1x60
 408 78 l 1
 328 7 286 -12 206 -12 c 0
 128 -12 90 21 90 88 c 0
 90 108 93 138 99 166 c 2
 155 446 l 1x80
 104 446 l 1
252 626 m 1
 385 783 l 1
 524 783 l 1
 595 626 l 1
 516 626 l 1
 442 719 l 1
 441 719 l 1
 330 626 l 1
 252 626 l 1
EndSplineSet
EndChar
StartChar: thorn
Encoding: 254 254 202
Width: 600
Flags: W
HStem: -12 98<305.5 364.5> 0 20 431 111<394.5 535.5>
VStem: 488 147<320.5 374.5>
LayerCount: 2
Fore
SplineSet
156 686 m 1x50
 173 771 l 1
 365 771 l 1
 302 451 l 1
 366 515 420 542 486 542 c 0
 585 542 635 481 635 363 c 0
 635 278 610 194 562 122 c 0
 503 32 420 -12 309 -12 c 0xb0
 278 -12 249 -9 211 0 c 1
 189 -108 l 1
 250 -108 l 1
 233 -193 l 1
 -20 -193 l 1
 -3 -108 l 1
 45 -108 l 1
 204 686 l 1
 156 686 l 1x50
231 99 m 1
 244 96 l 2
 267 90 295 86 316 86 c 0
 418 86 488 191 488 345 c 0
 488 404 465 431 416 431 c 0
 373 431 332 406 281 347 c 1
 231 99 l 1
EndSplineSet
EndChar
StartChar: Amacron
Encoding: 281 256 52
Width: 600
Flags: MW
HStem: 0 20 199 84<243 414 243 421 202 414> 703 20<370 519 519 519> 784 84<276 654 293 637>
LayerCount: 2
Fore
SplineSet
12 0 m 1
 29 85 l 1
 59 85 l 1
 370 723 l 1
 519 723 l 1
 575 85 l 1
 605 85 l 1
 588 0 l 1
 348 0 l 1
 365 85 l 1
 431 85 l 1
 421 199 l 1
 202 199 l 1
 146 85 l 1
 213 85 l 1
 196 0 l 1
 12 0 l 1
243 283 m 1
 414 283 l 1
 388 581 l 1
 387 581 l 1
 243 283 l 1
276 784 m 1
 293 868 l 1
 654 868 l 1
 637 784 l 1
 276 784 l 1
EndSplineSet
EndChar
StartChar: amacron
Encoding: 318 257 118
Width: 600
Flags: W
HStem: -12 95<162.5 299> 0 20 459 83<381 405.5> 627 84<246 624 263 607>
VStem: 69 151<116.5 135> 460 147<409.5 472.5>
LayerCount: 2
Fore
SplineSet
156 377 m 1
 181 501 l 1
 275 530 344 542 418 542 c 0
 555 542 607 512 607 433 c 0
 607 423 605 405 604 397 c 2
 541 84 l 1
 595 84 l 1
 578 0 l 1
 399 0 l 1x6c
 390 51 l 1
 328 7 274 -12 208 -12 c 0
 117 -12 69 29 69 108 c 0
 69 162 94 212 140 252 c 0
 197 301 281 325 401 325 c 2
 444 325 l 1
 456 380 l 2
 458 392 460 406 460 413 c 0
 460 443 432 459 379 459 c 0
 336 459 300 451 262 433 c 1
 240 377 l 1xac
 156 377 l 1
408 142 m 1x8c
 430 253 l 1
 408 253 l 2
 299 253 220 202 220 133 c 0
 220 100 239 83 277 83 c 0
 321 83 361 101 408 142 c 1x8c
246 627 m 1
 263 711 l 1
 624 711 l 1
 607 627 l 1x10
 246 627 l 1
EndSplineSet
EndChar
StartChar: Abreve
Encoding: 256 258 4
Width: 600
Flags: MW
HStem: 0 20 199 84<243 414 243 421 202 414> 703 20<370 519 519 519> 783 84<443.5 503 443.5 504.5>
LayerCount: 2
Fore
SplineSet
12 0 m 1
 29 85 l 1
 59 85 l 1
 370 723 l 1
 519 723 l 1
 575 85 l 1
 605 85 l 1
 588 0 l 1
 348 0 l 1
 365 85 l 1
 431 85 l 1
 421 199 l 1
 202 199 l 1
 146 85 l 1
 213 85 l 1
 196 0 l 1
 12 0 l 1
243 283 m 1
 414 283 l 1
 388 581 l 1
 387 581 l 1
 243 283 l 1
315 940 m 1
 382 940 l 1
 386 889 414 867 473 867 c 0
 533 867 570 889 595 940 c 1
 660 940 l 1
 627 841 552 783 457 783 c 0
 375 783 314 838 314 913 c 2
 315 940 l 1
EndSplineSet
EndChar
StartChar: Aogonek
Encoding: 257 260 7
Width: 600
Flags: MW
HStem: -181 46<447.5 448> 0 20 199 84<243 414 243 421 202 414> 703 20<370 519 519 519>
VStem: 307 94<-109 -93.5>
LayerCount: 2
Fore
SplineSet
12 0 m 1
 29 85 l 1
 59 85 l 1
 370 723 l 1
 519 723 l 1
 575 85 l 1
 605 85 l 1
 588 0 l 1
 348 0 l 1
 365 85 l 1
 431 85 l 1
 421 199 l 1
 202 199 l 1
 146 85 l 1
 213 85 l 1
 196 0 l 1
 12 0 l 1
243 283 m 1
 414 283 l 1
 388 581 l 1
 387 581 l 1
 243 283 l 1
437 0 m 1
 514 0 l 1
 435 -32 401 -61 401 -96 c 0
 401 -122 425 -135 470 -135 c 0
 485 -135 502 -133 526 -127 c 1
 518 -167 l 1
 488 -177 463 -181 433 -181 c 0
 350 -181 307 -158 307 -116 c 0
 307 -71 347 -35 437 0 c 1
EndSplineSet
EndChar
StartChar: aogonek
Encoding: 295 261 73
Width: 600
Flags: W
HStem: -181 46<437.5 438> -12 95<162.5 299> 0 20 459 83<381 405.5>
VStem: 69 94 69 151<116.5 135> 460 147<409.5 472.5>
LayerCount: 2
Fore
SplineSet
156 377 m 1
 181 501 l 1
 275 530 344 542 418 542 c 0
 555 542 607 512 607 433 c 0
 607 423 605 405 604 397 c 2
 541 84 l 1
 595 84 l 1
 578 0 l 1
 399 0 l 1x36
 390 51 l 1
 328 7 274 -12 208 -12 c 0
 117 -12 69 29 69 108 c 0
 69 162 94 212 140 252 c 0
 197 301 281 325 401 325 c 2
 444 325 l 1
 456 380 l 2
 458 392 460 406 460 413 c 0
 460 443 432 459 379 459 c 0
 336 459 300 451 262 433 c 1
 240 377 l 1x56
 156 377 l 1
408 142 m 1x46
 430 253 l 1
 408 253 l 2
 299 253 220 202 220 133 c 0
 220 100 239 83 277 83 c 0
 321 83 361 101 408 142 c 1x46
427 0 m 1
 505 0 l 1
 425 -32 391 -61 391 -96 c 0
 391 -122 415 -135 460 -135 c 0
 476 -135 491 -133 517 -127 c 1
 508 -167 l 1
 478 -177 453 -181 423 -181 c 0
 340 -181 297 -158 297 -116 c 0xa8
 297 -71 337 -35 427 0 c 1
EndSplineSet
EndChar
StartChar: Cacute
Encoding: 258 262 9
Width: 600
Flags: MW
HStem: -18 95<368.5 412> 657 84<460 525.5>
VStem: 90 158<207 326.5>
LayerCount: 2
Fore
SplineSet
607 127 m 1
 586 22 l 1
 512 -6 447 -18 377 -18 c 0
 194 -18 90 84 90 264 c 0
 90 389 134 506 217 602 c 0
 298 696 398 741 522 741 c 0
 583 741 638 732 708 709 c 1
 667 500 l 1
 582 500 l 1
 595 626 l 1
 569 648 543 657 508 657 c 0
 367 657 248 478 248 265 c 0
 248 149 315 77 422 77 c 0
 474 77 528 92 607 127 c 1
442 783 m 1
 575 940 l 1
 715 940 l 1
 527 783 l 1
 442 783 l 1
EndSplineSet
EndChar
StartChar: Ccaron
Encoding: 259 268 10
Width: 600
Flags: MW
HStem: -18 95<368.5 412> 657 84<460 525.5>
VStem: 90 158<207 326.5>
LayerCount: 2
Fore
SplineSet
607 127 m 1
 586 22 l 1
 512 -6 447 -18 377 -18 c 0
 194 -18 90 84 90 264 c 0
 90 389 134 506 217 602 c 0
 298 696 398 741 522 741 c 0
 583 741 638 732 708 709 c 1
 667 500 l 1
 582 500 l 1
 595 626 l 1
 569 648 543 657 508 657 c 0
 367 657 248 478 248 265 c 0
 248 149 315 77 422 77 c 0
 474 77 528 92 607 127 c 1
729 940 m 1
 596 783 l 1
 457 783 l 1
 386 940 l 1
 465 940 l 1
 539 847 l 1
 540 847 l 1
 651 940 l 1
 729 940 l 1
EndSplineSet
EndChar
StartChar: ccaron
Encoding: 297 269 75
Width: 600
Flags: MW
HStem: -12 96<349.5 396> 459 83<391.5 477.5>
VStem: 82 156<176 293 176 304.5>
LayerCount: 2
Fore
SplineSet
607 130 m 1
 586 25 l 1
 499 -1 433 -12 359 -12 c 0
 175 -12 82 61 82 206 c 0
 82 403 247 542 481 542 c 0
 549 542 611 534 678 515 c 1
 642 337 l 1
 558 337 l 1
 566 436 l 1
 531 452 498 459 457 459 c 0
 326 459 238 364 238 222 c 0
 238 130 294 84 405 84 c 0xe0
 457 84 514 97 607 130 c 1
694 783 m 1
 560 626 l 1
 421 626 l 1
 351 783 l 1
 429 783 l 1
 503 690 l 1
 504 690 l 1
 615 783 l 1
 694 783 l 1
EndSplineSet
EndChar
StartChar: Dcaron
Encoding: 260 270 11
Width: 600
Flags: MW
HStem: 0 20 703 20<163 377 377 472.5>
VStem: 506 155<449.5 538>
LayerCount: 2
Fore
SplineSet
18 0 m 1
 35 85 l 1
 83 85 l 1
 194 639 l 1
 146 639 l 1
 163 723 l 1
 377 723 l 2
 568 723 661 639 661 469 c 0
 661 359 626 254 560 166 c 0
 478 54 365 0 216 0 c 2
 18 0 l 1
228 85 m 1
 250 85 l 2
 339 85 411 141 455 243 c 0
 486 315 506 412 506 487 c 0
 506 589 461 636 360 638 c 2
 339 639 l 1
 228 85 l 1
628 940 m 1
 495 783 l 1
 355 783 l 1
 285 940 l 1
 363 940 l 1
 437 847 l 1
 438 847 l 1
 550 940 l 1
 628 940 l 1
EndSplineSet
EndChar
StartChar: dcaron
Encoding: 298 271 77
Width: 600
Flags: W
HStem: -12 20 0 20 444 98<293.5 336.5>
VStem: 52 123<152 202>
LayerCount: 2
Fore
SplineSet
312 0 m 1x70
 327 78 l 1
 273 15 226 -12 171 -12 c 0x90
 92 -12 52 43 52 153 c 0
 52 251 80 347 132 426 c 0
 184 504 250 542 337 542 c 0
 363 542 386 539 418 530 c 1
 449 686 l 1
 399 686 l 1
 416 771 l 1
 586 771 l 1
 449 84 l 1
 489 84 l 1
 472 0 l 1
 312 0 l 1x70
398 431 m 1x70
 387 434 l 2
 372 440 345 444 328 444 c 0
 242 444 175 328 175 179 c 0
 175 125 194 99 233 99 c 0
 269 99 303 124 348 183 c 1
 398 431 l 1x70
655 626 m 1
 605 626 l 1
 634 771 l 1
 755 771 l 1
 732 659 l 2
 722 606 703 565 677 534 c 0
 651 504 610 482 580 482 c 2
 576 482 l 1
 586 532 l 1
 621 536 641 562 652 612 c 2
 655 626 l 1
EndSplineSet
EndChar
StartChar: edotaccent
Encoding: 300 279 83
Width: 600
Flags: MW
HStem: -12 95<338.5 383> 235 84<254 489 254 619 235 489> 456 86<365.5 434> 626 145<377 550 406 522>
VStem: 82 151<168.5 213 168.5 294> 494 140<351 390>
LayerCount: 2
Fore
SplineSet
601 124 m 1
 582 25 l 1
 497 0 421 -12 345 -12 c 0
 176 -12 82 63 82 198 c 0
 82 390 235 542 428 542 c 0
 559 542 634 472 634 349 c 0
 634 322 632 301 624 263 c 2
 619 235 l 1
 235 235 l 1
 234 225 233 216 233 210 c 0
 233 127 287 83 390 83 c 0xec
 448 83 509 95 601 124 c 1
254 319 m 1
 489 319 l 1
 493 336 494 345 494 357 c 0
 494 423 464 456 404 456 c 0
 327 456 280 414 254 319 c 1
377 626 m 1
 406 771 l 1
 550 771 l 1
 522 626 l 1x10
 377 626 l 1
EndSplineSet
EndChar
StartChar: Eogonek
Encoding: 263 280 18
Width: 600
Flags: W
HStem: -181 46<443.5 444.5> 0 84<18 107 35 107 35 572> 0 90<253 500 253 572 434 500 253 511 253 511> 320 84<316 413 299 430> 639 84<163 218 146 686 363 363 363 580>
VStem: 303 94<-109 -93.5>
LayerCount: 2
Fore
SplineSet
18 0 m 1x44
 35 84 l 1
 107 84 l 1xc4
 218 639 l 1
 146 639 l 1
 163 723 l 1
 686 723 l 1
 650 542 l 1
 560 542 l 1
 580 639 l 1
 363 639 l 1
 316 404 l 1
 430 404 l 1
 442 464 l 1
 526 464 l 1
 485 259 l 1
 401 259 l 1
 413 320 l 1
 299 320 l 1
 253 90 l 1
 500 90 l 1x3c
 522 199 l 1
 612 199 l 1
 572 0 l 1
 18 0 l 1x44
434 0 m 1
 511 0 l 1
 431 -32 397 -61 397 -96 c 0
 397 -122 421 -135 466 -135 c 0
 482 -135 498 -133 523 -127 c 1
 515 -167 l 1
 485 -177 460 -181 429 -181 c 0
 346 -181 303 -158 303 -116 c 0
 303 -71 343 -35 434 0 c 1
EndSplineSet
EndChar
StartChar: eogonek
Encoding: 301 281 84
Width: 600
Flags: MW
HStem: -181 46<360.5 361> -12 95<338.5 383> 0 20 235 84<254 489 254 619 235 489> 456 86<365.5 434>
VStem: 82 94 82 151<168.5 213 168.5 294> 494 140<351 390>
LayerCount: 2
Fore
SplineSet
601 124 m 1
 582 25 l 1
 497 0 421 -12 345 -12 c 0
 176 -12 82 63 82 198 c 0
 82 390 235 542 428 542 c 0
 559 542 634 472 634 349 c 0
 634 322 632 301 624 263 c 2
 619 235 l 1
 235 235 l 1
 234 225 233 216 233 210 c 0
 233 127 287 83 390 83 c 0x5b
 448 83 509 95 601 124 c 1
254 319 m 1
 489 319 l 1
 493 336 494 345 494 357 c 0
 494 423 464 456 404 456 c 0
 327 456 280 414 254 319 c 1
350 0 m 1
 428 0 l 1
 348 -32 314 -61 314 -96 c 0
 314 -122 338 -135 383 -135 c 0
 399 -135 414 -133 440 -127 c 1
 431 -167 l 1
 401 -177 376 -181 346 -181 c 0
 263 -181 220 -158 220 -116 c 0xa4
 220 -71 260 -35 350 0 c 1
EndSplineSet
EndChar
StartChar: ecaron
Encoding: 299 283 82
Width: 600
Flags: MW
HStem: -12 95<338.5 383> 235 84<254 489 254 619 235 489> 456 86<365.5 434>
VStem: 82 151<168.5 213 168.5 294> 494 140<351 390>
LayerCount: 2
Fore
SplineSet
601 124 m 1
 582 25 l 1
 497 0 421 -12 345 -12 c 0
 176 -12 82 63 82 198 c 0
 82 390 235 542 428 542 c 0
 559 542 634 472 634 349 c 0
 634 322 632 301 624 263 c 2
 619 235 l 1
 235 235 l 1
 234 225 233 216 233 210 c 0
 233 127 287 83 390 83 c 0xf8
 448 83 509 95 601 124 c 1
254 319 m 1
 489 319 l 1
 493 336 494 345 494 357 c 0
 494 423 464 456 404 456 c 0
 327 456 280 414 254 319 c 1
658 783 m 1
 524 626 l 1
 385 626 l 1
 315 783 l 1
 393 783 l 1
 467 690 l 1
 468 690 l 1
 579 783 l 1
 658 783 l 1
EndSplineSet
EndChar
StartChar: Gbreve
Encoding: 264 286 19
Width: 600
Flags: MW
HStem: -18 96<354.5 403> 250 84<407 481 390 642> 657 84<460 521.5> 783 84<514 573.5 514 574>
VStem: 90 157<212.5 328.5>
LayerCount: 2
Fore
SplineSet
642 334 m 1
 580 24 l 1
 507 -5 440 -18 366 -18 c 0
 193 -18 90 87 90 265 c 0
 90 392 133 507 216 600 c 0
 300 694 401 741 519 741 c 0
 578 741 632 731 702 709 c 1
 660 500 l 1
 576 500 l 1
 589 626 l 1
 563 648 538 657 505 657 c 0
 367 657 247 475 247 268 c 0
 247 157 310 78 399 78 c 0
 410 78 430 80 447 83 c 1
 481 250 l 1
 390 250 l 1
 407 334 l 1
 642 334 l 1
385 940 m 1
 451 940 l 1
 456 889 484 867 544 867 c 0
 603 867 639 889 664 940 c 1
 730 940 l 1
 697 841 622 783 526 783 c 0
 444 783 383 838 383 913 c 0
 383 918 384 928 385 936 c 2
 385 940 l 1
EndSplineSet
EndChar
StartChar: Gcommaaccent
Encoding: 291 290 63
Width: 600
Flags: MW
HStem: -211 48<276 285.5 256 329> -18 96<354.5 403> 250 84<407 481 390 642> 657 84<460 521.5>
VStem: 90 157<212.5 328.5> 333 97<-138 -115.5>
LayerCount: 2
Fore
SplineSet
642 334 m 1
 580 24 l 1
 507 -5 440 -18 366 -18 c 0
 193 -18 90 87 90 265 c 0
 90 392 133 507 216 600 c 0
 300 694 401 741 519 741 c 0
 577 741 633 731 702 709 c 1
 660 500 l 1
 576 500 l 1
 589 626 l 1
 563 648 538 657 505 657 c 0
 367 657 247 475 247 268 c 0
 247 157 310 78 399 78 c 0
 410 78 430 80 447 83 c 1
 481 250 l 1
 390 250 l 1
 407 334 l 1
 642 334 l 1
265 -92 m 1
 274 -48 l 1
 383 -50 430 -72 430 -120 c 0
 430 -170 367 -211 291 -211 c 0
 261 -211 232 -209 207 -205 c 1
 215 -160 l 1
 235 -162 249 -163 263 -163 c 0
 308 -163 333 -150 333 -126 c 0
 333 -105 313 -95 265 -92 c 1
EndSplineSet
EndChar
StartChar: Imacron
Encoding: 284 298 56
Width: 600
Flags: MW
HStem: 0 84<60 245 77 245 389 539> 639 84<205 355 188 684 500 500 500 667> 784 84<276 654 292 637>
LayerCount: 2
Fore
SplineSet
60 0 m 1
 77 84 l 1
 245 84 l 1
 355 639 l 1
 188 639 l 1
 205 723 l 1
 684 723 l 1
 667 639 l 1
 500 639 l 1
 389 84 l 1
 557 84 l 1
 539 0 l 1
 60 0 l 1
276 784 m 1
 292 868 l 1
 654 868 l 1
 637 784 l 1
 276 784 l 1
EndSplineSet
EndChar
StartChar: imacron
Encoding: 320 299 120
Width: 600
Flags: MW
HStem: 0 84<68 265 85 265 410 574> 446 84<174 338 157 499> 627 84<241 619 258 602>
LayerCount: 2
Fore
SplineSet
68 0 m 1
 85 84 l 1
 265 84 l 1
 338 446 l 1
 157 446 l 1
 174 530 l 1
 499 530 l 1
 410 84 l 1
 591 84 l 1
 574 0 l 1xc0
 68 0 l 1
241 627 m 1
 258 711 l 1
 619 711 l 1
 602 627 l 1x20
 241 627 l 1
EndSplineSet
EndChar
StartChar: Iogonek
Encoding: 285 302 57
Width: 600
Flags: MW
HStem: -181 46<386.5 387.5> 0 84<60 245 77 245 389 539 389 454 454 454> 639 84<205 355 188 684 500 500 500 667>
VStem: 246 94<-109.5 -93.5>
LayerCount: 2
Fore
SplineSet
60 0 m 1
 77 84 l 1
 245 84 l 1
 355 639 l 1
 188 639 l 1
 205 723 l 1
 684 723 l 1
 667 639 l 1
 500 639 l 1
 389 84 l 1
 557 84 l 1
 539 0 l 1
 60 0 l 1
377 0 m 1
 454 0 l 1
 374 -32 340 -61 340 -97 c 0
 340 -122 364 -135 409 -135 c 0
 425 -135 441 -133 466 -127 c 1
 458 -167 l 1
 428 -177 403 -181 372 -181 c 0
 289 -181 246 -158 246 -116 c 0
 246 -71 286 -35 377 0 c 1
EndSplineSet
EndChar
StartChar: iogonek
Encoding: 331 303 131
Width: 600
Flags: MW
HStem: -181 46<421.5 422> 0 20 0 84<68 265 85 265 410 574 411 489 489 489> 446 84<174 338 157 499> 626 145<374 547 403 519>
VStem: 68 94
LayerCount: 2
Fore
SplineSet
68 0 m 1
 85 84 l 1
 265 84 l 1
 338 446 l 1
 157 446 l 1
 174 530 l 1
 499 530 l 1
 410 84 l 1
 591 84 l 1
 574 0 l 1x38
 68 0 l 1
374 626 m 1
 403 771 l 1
 547 771 l 1
 519 626 l 1
 374 626 l 1
411 0 m 1
 489 0 l 1
 409 -32 375 -61 375 -96 c 0
 375 -122 399 -135 444 -135 c 0
 460 -135 475 -133 501 -127 c 1
 492 -167 l 1
 462 -177 437 -181 407 -181 c 0
 324 -181 281 -158 281 -116 c 0xc4
 281 -71 321 -35 411 0 c 1
EndSplineSet
EndChar
StartChar: Idotaccent
Encoding: 265 304 24
Width: 600
Flags: MW
HStem: 0 84<60 245 77 245 389 539> 639 84<205 355 188 684 500 500 500 667> 783 145<384 558 413 529>
LayerCount: 2
Fore
SplineSet
60 0 m 1
 77 84 l 1
 245 84 l 1
 355 639 l 1
 188 639 l 1
 205 723 l 1
 684 723 l 1
 667 639 l 1
 500 639 l 1
 389 84 l 1
 557 84 l 1
 539 0 l 1
 60 0 l 1
384 783 m 1
 413 928 l 1
 558 928 l 1
 529 783 l 1
 384 783 l 1
EndSplineSet
EndChar
StartChar: Kcommaaccent
Encoding: 286 310 58
Width: 600
Flags: MW
HStem: -211 48<239 248.5 219 292> 0 20 703 20<163 403 403 403 526 743 743 743>
VStem: 296 97<-138 -115.5>
LayerCount: 2
Fore
SplineSet
18 0 m 1
 35 85 l 1
 83 85 l 1
 194 639 l 1
 145 639 l 1
 163 723 l 1
 403 723 l 1
 387 639 l 1
 338 639 l 1
 287 380 l 1
 299 380 l 1
 563 639 l 1
 509 639 l 1
 526 723 l 1
 743 723 l 1
 726 639 l 1
 669 639 l 1
 424 400 l 1
 597 85 l 1
 617 85 l 1
 600 0 l 1
 361 0 l 1
 377 85 l 1
 438 85 l 1
 292 350 l 1
 281 350 l 1
 227 85 l 1
 276 85 l 1
 259 0 l 1
 18 0 l 1
228 -92 m 1
 237 -48 l 1
 346 -50 393 -72 393 -120 c 0
 393 -170 330 -211 254 -211 c 0
 224 -211 196 -209 170 -205 c 1
 179 -160 l 1
 199 -162 212 -163 226 -163 c 0
 271 -163 296 -150 296 -126 c 0
 296 -105 276 -95 228 -92 c 1
EndSplineSet
EndChar
StartChar: kcommaaccent
Encoding: 321 311 121
Width: 600
Flags: MW
HStem: -211 48<240 248.5 219 292.5> 0 20 446 84<419 462 402 671 582 582 582 654>
VStem: 144 97
LayerCount: 2
Fore
SplineSet
18 0 m 1
 35 85 l 1
 83 85 l 1
 204 686 l 1
 155 686 l 1
 172 771 l 1
 365 771 l 1
 271 301 l 1
 295 301 l 1
 462 446 l 1
 402 446 l 1
 419 530 l 1
 671 530 l 1
 654 446 l 1
 582 446 l 1
 426 311 l 1
 550 85 l 1
 599 85 l 1
 582 0 l 1
 352 0 l 1
 369 85 l 1
 283 241 l 1
 259 241 l 1
 227 85 l 1
 276 85 l 1
 259 0 l 1x60
 18 0 l 1
229 -92 m 1
 238 -48 l 1
 346 -50 393 -72 393 -120 c 0
 393 -170 330 -211 255 -211 c 0
 225 -211 196 -209 170 -205 c 1
 179 -160 l 1
 198 -162 212 -163 226 -163 c 0
 271 -163 296 -150 296 -126 c 0x90
 296 -105 276 -95 229 -92 c 1
EndSplineSet
EndChar
StartChar: Lacute
Encoding: 266 313 25
Width: 600
Flags: W
HStem: 0 84<24 137 41 137 41 576> 0 90<283 516 283 576> 639 84<169 248 152 506 393 393 393 489>
LayerCount: 2
Fore
SplineSet
24 0 m 1x80
 41 84 l 1
 137 84 l 1x80
 248 639 l 1
 152 639 l 1
 169 723 l 1
 506 723 l 1
 489 639 l 1
 393 639 l 1
 283 90 l 1
 516 90 l 1x60
 546 241 l 1
 624 241 l 1
 576 0 l 1
 24 0 l 1x80
337 783 m 1
 470 940 l 1
 609 940 l 1
 421 783 l 1
 337 783 l 1
EndSplineSet
EndChar
StartChar: lacute
Encoding: 303 314 90
Width: 600
Flags: MW
HStem: 0 84<68 265 85 265 410 574> 687 84<222 386 205 547>
LayerCount: 2
Fore
SplineSet
68 0 m 1
 85 84 l 1
 265 84 l 1
 386 687 l 1
 205 687 l 1
 222 771 l 1
 547 771 l 1
 410 84 l 1
 591 84 l 1
 574 0 l 1xc0
 68 0 l 1
448 819 m 1
 581 976 l 1
 720 976 l 1
 532 819 l 1
 448 819 l 1
EndSplineSet
EndChar
StartChar: Lcommaaccent
Encoding: 287 315 59
Width: 600
Flags: W
HStem: -211 48<257 266.5 237 310> 0 84<24 137 41 137 41 576> 0 90<283 516 283 576> 639 84<169 248 152 506 393 393 393 489>
VStem: 314 97<-138 -115.5>
LayerCount: 2
Fore
SplineSet
24 0 m 1x48
 41 84 l 1
 137 84 l 1xc8
 248 639 l 1
 152 639 l 1
 169 723 l 1
 506 723 l 1
 489 639 l 1
 393 639 l 1
 283 90 l 1
 516 90 l 1x38
 546 241 l 1
 624 241 l 1
 576 0 l 1
 24 0 l 1x48
247 -92 m 1
 255 -48 l 1
 364 -50 411 -72 411 -120 c 0
 411 -170 348 -211 272 -211 c 0
 242 -211 214 -209 188 -205 c 1
 197 -160 l 1
 216 -162 230 -163 244 -163 c 0
 289 -163 314 -150 314 -126 c 0
 314 -105 294 -95 247 -92 c 1
EndSplineSet
EndChar
StartChar: lcommaaccent
Encoding: 322 316 122
Width: 600
Flags: MW
HStem: -211 48<265 273.5 244 317.5> 0 84<68 265 85 265 410 574> 687 84<222 386 205 547>
VStem: 194 97
LayerCount: 2
Fore
SplineSet
68 0 m 1
 85 84 l 1
 265 84 l 1
 386 687 l 1
 205 687 l 1
 222 771 l 1
 547 771 l 1
 410 84 l 1
 591 84 l 1
 574 0 l 1x60
 68 0 l 1
254 -92 m 1
 263 -48 l 1
 371 -50 418 -72 418 -120 c 0
 418 -170 355 -211 280 -211 c 0
 250 -211 221 -209 195 -205 c 1
 204 -160 l 1
 223 -162 237 -163 251 -163 c 0
 296 -163 321 -150 321 -126 c 0x90
 321 -105 301 -95 254 -92 c 1
EndSplineSet
EndChar
StartChar: Lcaron
Encoding: 267 317 26
Width: 600
Flags: W
HStem: 0 84<24 137 41 137 41 576> 0 90<283 516 283 576> 639 84<169 248 152 506 393 393 393 489>
LayerCount: 2
Fore
SplineSet
24 0 m 1x80
 41 84 l 1
 137 84 l 1xa0
 248 639 l 1
 152 639 l 1
 169 723 l 1
 506 723 l 1
 489 639 l 1
 393 639 l 1
 283 90 l 1
 516 90 l 1x60
 546 241 l 1
 624 241 l 1
 576 0 l 1
 24 0 l 1x80
605 578 m 1
 555 578 l 1
 584 723 l 1
 705 723 l 1
 682 611 l 2
 672 558 653 517 627 486 c 0
 601 456 560 434 530 434 c 2
 526 434 l 1
 537 484 l 1
 571 488 592 514 602 564 c 2
 605 578 l 1
EndSplineSet
EndChar
StartChar: lcaron
Encoding: 304 318 91
Width: 600
Flags: MW
HStem: 0 84<68 265 85 265 410 574> 687 84<222 386 205 547>
LayerCount: 2
Fore
SplineSet
68 0 m 1
 85 84 l 1
 265 84 l 1
 386 687 l 1
 205 687 l 1
 222 771 l 1
 547 771 l 1
 410 84 l 1
 591 84 l 1
 574 0 l 1
 68 0 l 1
654 626 m 1
 604 626 l 1
 633 771 l 1
 754 771 l 1
 731 659 l 2
 720 606 702 565 676 534 c 0
 650 504 609 482 579 482 c 2
 575 482 l 1
 586 532 l 1
 620 537 641 562 651 612 c 2
 654 626 l 1
EndSplineSet
EndChar
StartChar: Lslash
Encoding: 334 321 164
Width: 600
Flags: W
HStem: 0 84<24 137 41 137 41 576> 0 90<283 516 283 576> 639 84<169 248 152 506 393 393 393 489>
LayerCount: 2
Fore
SplineSet
24 0 m 1x80
 41 84 l 1
 137 84 l 1x80
 179 292 l 1
 73 243 l 1
 91 338 l 1
 197 386 l 1
 248 639 l 1
 152 639 l 1
 169 723 l 1
 506 723 l 1
 489 639 l 1
 393 639 l 1
 357 458 l 1
 516 531 l 1
 497 436 l 1
 337 364 l 1
 283 90 l 1
 516 90 l 1x60
 546 241 l 1
 624 241 l 1
 576 0 l 1
 24 0 l 1x80
EndSplineSet
EndChar
StartChar: lslash
Encoding: 339 322 200
Width: 600
Flags: MW
HStem: 0 84<68 265 85 265 410 574> 687 84<222 386 205 547>
LayerCount: 2
Fore
SplineSet
68 0 m 1
 85 84 l 1
 265 84 l 1
 309 303 l 1
 150 231 l 1
 170 327 l 1
 328 398 l 1
 386 687 l 1
 205 687 l 1
 222 771 l 1
 547 771 l 1
 487 470 l 1
 646 542 l 1
 627 447 l 1
 468 375 l 1
 410 84 l 1
 591 84 l 1
 574 0 l 1
 68 0 l 1
EndSplineSet
EndChar
StartChar: Nacute
Encoding: 268 323 27
Width: 600
Flags: MW
HStem: 0 84<18 83 35 83 180 235> 639 84<163 194 146 308 522 577 674 674 674 722>
LayerCount: 2
Fore
SplineSet
18 0 m 1
 35 84 l 1
 83 84 l 1
 194 639 l 1
 146 639 l 1
 163 723 l 1
 308 723 l 1
 497 235 l 1
 577 639 l 1
 505 639 l 1
 522 723 l 1
 739 723 l 1
 722 639 l 1
 674 639 l 1
 546 0 l 1
 450 0 l 1
 260 485 l 1
 180 84 l 1
 252 84 l 1
 235 0 l 1
 18 0 l 1
378 783 m 1
 512 940 l 1
 651 940 l 1
 463 783 l 1
 378 783 l 1
EndSplineSet
EndChar
StartChar: Ncommaaccent
Encoding: 288 325 60
Width: 600
Flags: MW
HStem: -211 48<251.5 260.5 231 304.5> 0 84<18 83 35 83 180 235> 639 84<163 194 146 308 522 577 674 674 674 722>
VStem: 308 97<-137.5 -115>
LayerCount: 2
Fore
SplineSet
18 0 m 1
 35 84 l 1
 83 84 l 1
 194 639 l 1
 146 639 l 1
 163 723 l 1
 308 723 l 1
 497 235 l 1
 577 639 l 1
 505 639 l 1
 522 723 l 1
 739 723 l 1
 722 639 l 1
 674 639 l 1
 546 0 l 1
 450 0 l 1
 260 485 l 1
 180 84 l 1
 252 84 l 1
 235 0 l 1
 18 0 l 1
241 -92 m 1
 249 -48 l 1
 358 -50 405 -72 405 -120 c 0
 405 -170 342 -211 267 -211 c 0
 236 -211 208 -209 182 -205 c 1
 191 -160 l 1
 210 -162 224 -163 238 -163 c 0
 283 -163 308 -150 308 -125 c 0
 308 -105 288 -94 241 -92 c 1
EndSplineSet
EndChar
StartChar: ncommaaccent
Encoding: 323 326 123
Width: 600
Flags: W
HStem: -211 48<246 254.5 225 298.5> 0 20 510 20<124 314 314 314> 522 20<459 538.5>
VStem: 144 97
LayerCount: 2
Fore
SplineSet
18 0 m 1
 35 84 l 1
 86 84 l 1
 158 446 l 1
 107 446 l 1
 124 530 l 1
 314 530 l 1x60
 298 451 l 1
 377 523 419 542 499 542 c 0
 578 542 616 509 616 442 c 0
 616 422 613 395 606 364 c 2
 551 84 l 1
 602 84 l 1
 585 0 l 1
 332 0 l 1
 349 84 l 1
 412 84 l 1
 458 315 l 2
 463 342 467 369 467 381 c 0
 467 414 449 431 415 431 c 0
 376 431 336 406 277 347 c 1
 225 84 l 1
 288 84 l 1
 271 0 l 1x50
 18 0 l 1
235 -92 m 1
 244 -48 l 1
 352 -50 399 -72 399 -120 c 0
 399 -170 336 -211 261 -211 c 0
 231 -211 202 -209 176 -205 c 1
 185 -160 l 1
 204 -162 218 -163 232 -163 c 0
 277 -163 302 -150 302 -126 c 0x88
 302 -105 282 -95 235 -92 c 1
EndSplineSet
EndChar
StartChar: Ncaron
Encoding: 269 327 28
Width: 600
Flags: MW
HStem: 0 84<18 83 35 83 180 235> 639 84<163 194 146 308 522 577 674 674 674 722>
LayerCount: 2
Fore
SplineSet
18 0 m 1
 35 84 l 1
 83 84 l 1
 194 639 l 1
 146 639 l 1
 163 723 l 1
 308 723 l 1
 497 235 l 1
 577 639 l 1
 505 639 l 1
 522 723 l 1
 739 723 l 1
 722 639 l 1
 674 639 l 1
 546 0 l 1
 450 0 l 1
 260 485 l 1
 180 84 l 1
 252 84 l 1
 235 0 l 1
 18 0 l 1
649 940 m 1
 516 783 l 1
 376 783 l 1
 306 940 l 1
 384 940 l 1
 458 847 l 1
 459 847 l 1
 571 940 l 1
 649 940 l 1
EndSplineSet
EndChar
StartChar: ncaron
Encoding: 306 328 93
Width: 600
Flags: W
HStem: 0 20 510 20<124 314 314 314> 522 20<459 538.5>
LayerCount: 2
Fore
SplineSet
18 0 m 1
 35 84 l 1
 86 84 l 1
 158 446 l 1
 107 446 l 1
 124 530 l 1
 314 530 l 1xc0
 298 451 l 1
 377 523 419 542 499 542 c 0
 578 542 616 509 616 442 c 0
 616 422 613 395 606 364 c 2
 551 84 l 1
 602 84 l 1
 585 0 l 1
 332 0 l 1
 349 84 l 1
 412 84 l 1
 458 315 l 2
 463 342 467 369 467 381 c 0
 467 414 449 431 415 431 c 0
 376 431 336 406 277 347 c 1
 225 84 l 1
 288 84 l 1
 271 0 l 1xa0
 18 0 l 1
630 783 m 1
 496 626 l 1
 357 626 l 1
 287 783 l 1
 365 783 l 1
 439 690 l 1
 440 690 l 1
 551 783 l 1
 630 783 l 1
EndSplineSet
EndChar
StartChar: omacron
Encoding: 324 333 124
Width: 600
Flags: MW
HStem: -12 84<288 362 288 391> 458 84<351 425> 627 84<248 626 265 609>
VStem: 80 150<154.5 267 154.5 296.5> 483 150<263 375.5>
LayerCount: 2
Fore
SplineSet
412 542 m 0
 550 542 633 461 633 328 c 0
 633 139 484 -12 298 -12 c 0
 164 -12 80 71 80 203 c 0xd8
 80 390 228 542 412 542 c 0
396 458 m 0
 306 458 230 338 230 196 c 0
 230 113 259 72 317 72 c 0
 407 72 483 192 483 334 c 0
 483 417 454 458 396 458 c 0
248 627 m 1
 265 711 l 1
 626 711 l 1
 609 627 l 1x20
 248 627 l 1
EndSplineSet
EndChar
StartChar: OE
Encoding: 140 338 160
Width: 600
Flags: W
HStem: -18 84<149 253.5> 0 90<413 533 413 585> 0 175<550 585> 639 84<523 625 523 523> 657 84<329.5 361 296.5 363>
VStem: 62 119<110 167 110 215>
LayerCount: 2
Fore
SplineSet
280 0 m 1x44
 284 17 l 1
 249 -8 223 -18 192 -18 c 0
 106 -18 62 47 62 171 c 0
 62 259 87 399 122 505 c 0
 172 659 249 741 344 741 c 0x8c
 378 741 401 731 421 707 c 1
 425 723 l 1
 712 723 l 1
 679 554 l 1
 608 554 l 1
 625 639 l 1
 523 639 l 1
 476 404 l 1
 531 404 l 1
 543 464 l 1
 613 464 l 1
 572 259 l 1
 502 259 l 1
 514 320 l 1
 459 320 l 1
 413 90 l 1
 533 90 l 1x54
 550 175 l 1
 620 175 l 1x24
 585 0 l 1
 280 0 l 1x44
328 239 m 2x8c
 379 495 l 2
 389 543 394 578 394 598 c 0
 394 636 378 657 348 657 c 0
 311 657 281 622 259 552 c 0
 228 456 181 202 181 132 c 0
 181 88 197 66 229 66 c 0
 278 66 301 106 328 239 c 2x8c
EndSplineSet
EndChar
StartChar: oe
Encoding: 156 339 193
Width: 600
Flags: W
HStem: -12 84<205.5 222.5> -12 106<473 473.5> 229 84<436 522 436 622 419 522> 458 84<269.5 305> 459 83<516.5 520>
VStem: 59 124<119.5 214.5 119.5 269.5> 536 109<408 431>
LayerCount: 2
Fore
SplineSet
601 123 m 1x6e
 581 21 l 1
 536 -2 496 -12 451 -12 c 0x46
 397 -12 358 4 324 42 c 1
 284 4 247 -12 198 -12 c 0
 104 -12 59 46 59 165 c 0
 59 374 169 542 306 542 c 0x96
 354 542 387 524 420 481 c 1
 459 524 494 542 539 542 c 0
 609 542 645 495 645 403 c 0
 645 364 639 311 629 261 c 2
 622 229 l 1
 419 229 l 1
 417 210 416 200 416 189 c 0
 416 127 445 94 501 94 c 0
 532 94 562 103 601 123 c 1x6e
293 209 m 2xb6
 316 320 l 2
 322 351 326 383 326 403 c 0
 326 439 315 458 295 458 c 0
 244 458 183 286 183 143 c 0
 183 96 194 72 217 72 c 0
 250 72 275 118 293 209 c 2xb6
436 313 m 1
 522 313 l 1
 526 336 l 2
 534 385 536 399 536 417 c 0
 536 445 528 459 512 459 c 0x2e
 480 459 457 415 436 313 c 1
EndSplineSet
EndChar
StartChar: Racute
Encoding: 271 340 36
Width: 600
Flags: MW
HStem: 0 84<18 83 35 83 227 295 574 594> 703 20<163 427 427 505>
VStem: 475 162<540 598>
LayerCount: 2
Fore
SplineSet
18 0 m 1
 35 84 l 1
 83 84 l 1
 194 639 l 1
 146 639 l 1
 163 723 l 1
 427 723 l 2
 583 723 637 690 637 593 c 0
 637 487 580 410 449 340 c 1
 574 84 l 1
 611 84 l 1
 594 0 l 1
 442 0 l 1
 291 301 l 1
 271 301 l 1
 227 84 l 1
 312 84 l 1
 295 0 l 1
 18 0 l 1
288 386 m 1
 312 386 l 2
 403 386 475 467 475 570 c 0
 475 626 454 639 367 639 c 2
 338 639 l 1
 288 386 l 1
355 783 m 1
 488 940 l 1
 628 940 l 1
 440 783 l 1
 355 783 l 1
EndSplineSet
EndChar
StartChar: Rcommaaccent
Encoding: 290 342 62
Width: 600
Flags: MW
HStem: -211 48<245 254.5 225 298.5> 0 84<18 83 35 83 227 295 574 594> 703 20<163 427 427 505>
VStem: 302 97<-138 -115.5> 475 162<540 598>
LayerCount: 2
Fore
SplineSet
18 0 m 1
 35 84 l 1
 83 84 l 1
 194 639 l 1
 146 639 l 1
 163 723 l 1
 427 723 l 2
 583 723 637 690 637 593 c 0
 637 487 580 410 449 340 c 1
 574 84 l 1
 611 84 l 1
 594 0 l 1
 442 0 l 1
 291 301 l 1
 271 301 l 1
 227 84 l 1
 312 84 l 1
 295 0 l 1
 18 0 l 1
288 386 m 1
 312 386 l 2
 403 386 475 467 475 570 c 0
 475 626 454 639 367 639 c 2
 338 639 l 1
 288 386 l 1
235 -92 m 1
 243 -48 l 1
 352 -50 399 -72 399 -120 c 0
 399 -170 337 -211 260 -211 c 0
 230 -211 202 -209 176 -205 c 1
 185 -160 l 1
 204 -162 218 -163 232 -163 c 0
 277 -163 302 -150 302 -126 c 0
 302 -105 282 -95 235 -92 c 1
EndSplineSet
EndChar
StartChar: rcommaaccent
Encoding: 325 343 125
Width: 600
Flags: W
HStem: -211 48<177 185.5 156 229.5> 0 84<27 165 44 165 309 449> 433 109<489.5 582.5> 446 84<133 237 116 398>
VStem: 153 97
LayerCount: 2
Fore
SplineSet
27 0 m 1
 44 84 l 1
 165 84 l 1
 237 446 l 1
 116 446 l 1
 133 530 l 1
 398 530 l 1x50
 382 452 l 1
 447 516 499 542 563 542 c 0
 602 542 637 534 676 515 c 1
 642 343 l 1
 557 343 l 1
 560 418 l 1
 544 428 527 433 510 433 c 0
 469 433 423 405 360 342 c 1
 309 84 l 1
 466 84 l 1
 449 0 l 1x60
 27 0 l 1
166 -92 m 1
 175 -48 l 1
 283 -50 330 -72 330 -120 c 0
 330 -170 267 -211 192 -211 c 0
 162 -211 133 -209 107 -205 c 1
 116 -160 l 1
 135 -162 149 -163 163 -163 c 0
 208 -163 233 -150 233 -126 c 0x88
 233 -105 213 -95 166 -92 c 1
EndSplineSet
EndChar
StartChar: rcaron
Encoding: 328 345 128
Width: 600
Flags: W
HStem: 0 84<27 165 44 165 309 449> 433 109<489.5 582.5> 446 84<133 237 116 398>
LayerCount: 2
Fore
SplineSet
27 0 m 1
 44 84 l 1
 165 84 l 1
 237 446 l 1
 116 446 l 1
 133 530 l 1
 398 530 l 1xa0
 382 452 l 1
 447 516 499 542 563 542 c 0
 602 542 637 534 676 515 c 1
 642 343 l 1
 557 343 l 1
 560 418 l 1
 544 428 527 433 510 433 c 0
 469 433 423 405 360 342 c 1
 309 84 l 1
 466 84 l 1
 449 0 l 1xc0
 27 0 l 1
620 783 m 1
 486 626 l 1
 347 626 l 1
 277 783 l 1
 355 783 l 1
 429 690 l 1
 430 690 l 1
 541 783 l 1
 620 783 l 1
EndSplineSet
EndChar
StartChar: Scedilla
Encoding: 274 350 40
Width: 600
Flags: W
HStem: -211 52<231.5 242 213.5 282> -18 85<281.5 323> 0 20 657 85<407.5 455>
VStem: 170 156<534.5 565.5> 286 97<-136 -113>
LayerCount: 2
Fore
SplineSet
60 27 m 1x58
 98 215 l 1
 182 215 l 1
 173 112 l 1
 224 80 262 67 301 67 c 0
 379 67 437 118 437 186 c 0
 437 212 422 233 383 258 c 2
 357 276 l 1
 354 278 l 1
 296 319 l 2
 200 387 170 428 170 494 c 0
 170 637 290 742 454 742 c 0
 513 742 569 731 647 706 c 1
 611 522 l 1
 526 522 l 1
 536 628 l 1
 502 648 472 657 438 657 c 0
 377 657 326 607 326 548 c 0
 326 521 353 489 412 449 c 2
 474 406 l 2
 571 339 592 311 592 251 c 0
 592 189 567 128 520 78 c 0
 462 15 376 -18 270 -18 c 0
 210 -18 152 -5 60 27 c 1x58
266 0 m 1xa4
 332 0 l 1
 285 -55 l 1
 353 -64 383 -84 383 -121 c 0
 383 -170 319 -211 245 -211 c 0
 218 -211 191 -206 156 -196 c 1
 165 -152 l 1
 187 -157 206 -159 221 -159 c 0
 263 -159 286 -147 286 -125 c 0
 286 -101 257 -89 199 -89 c 2
 189 -89 l 1
 266 0 l 1xa4
EndSplineSet
EndChar
StartChar: scedilla
Encoding: 329 351 129
Width: 600
Flags: MW
HStem: -211 52<244.5 255 226.5 295> -12 85<310 359.5 310 385.5> 0 20 458 84<364.5 414.5>
VStem: 154 144<377 406> 227 97 422 146<130 155.5>
LayerCount: 2
Fore
SplineSet
97 25 m 1
 128 181 l 1
 212 181 l 1
 210 108 l 1
 254 84 290 73 330 73 c 0
 389 73 422 98 422 142 c 0
 422 169 400 188 350 203 c 2
 284 223 l 2
 196 249 154 289 154 348 c 0
 154 464 261 542 423 542 c 0
 489 542 546 533 606 513 c 1
 576 361 l 1
 492 361 l 1
 494 437 l 1
 463 452 433 458 396 458 c 0
 333 458 298 433 298 387 c 0
 298 367 320 350 372 333 c 2
 450 308 l 2
 531 281 568 244 568 189 c 0
 568 71 462 -12 309 -12 c 0x5a
 243 -12 177 0 97 25 c 1
279 0 m 1
 345 0 l 1
 297 -55 l 1
 366 -64 396 -84 396 -121 c 0
 396 -170 332 -211 258 -211 c 0
 231 -211 203 -206 169 -196 c 1
 178 -152 l 1
 201 -157 219 -159 234 -159 c 0
 276 -159 299 -147 299 -125 c 0
 299 -101 270 -89 212 -89 c 2
 202 -89 l 1xa4
 279 0 l 1
EndSplineSet
EndChar
StartChar: Scaron
Encoding: 138 352 39
Width: 600
Flags: MW
HStem: -18 85<281.5 323> 657 85<407.5 455>
VStem: 170 156<534.5 565.5>
LayerCount: 2
Fore
SplineSet
60 27 m 1
 98 215 l 1
 182 215 l 1
 173 112 l 1
 224 80 262 67 301 67 c 0
 379 67 437 117 437 186 c 0
 437 212 422 232 383 258 c 0
 364 271 363 271 354 278 c 2
 296 319 l 2
 200 387 170 428 170 494 c 0
 170 637 290 742 454 742 c 0
 512 742 571 731 647 706 c 1
 611 522 l 1
 526 522 l 1
 536 628 l 1
 502 648 472 657 438 657 c 0
 377 657 326 607 326 548 c 0
 326 521 353 489 412 449 c 2
 474 406 l 2
 571 339 592 311 592 251 c 0
 592 189 567 128 520 78 c 0
 462 15 376 -18 270 -18 c 0
 210 -18 152 -5 60 27 c 1
670 940 m 1
 537 783 l 1
 398 783 l 1
 328 940 l 1
 406 940 l 1
 480 847 l 1
 481 847 l 1
 592 940 l 1
 670 940 l 1
EndSplineSet
EndChar
StartChar: Tcommaaccent
Encoding: 282 354 53
Width: 600
Flags: MW
HStem: -211 52<241.5 252 223.5 292> 0 84<119 244 136 244 389 481 136 342> 510 20<129 219 129 129 593 593 593 683> 639 84<241 355 241 241 500 500 500 615>
VStem: 296 97<-136 -113>
LayerCount: 2
Fore
SplineSet
119 0 m 1
 136 84 l 1
 244 84 l 1
 355 639 l 1
 241 639 l 1
 219 530 l 1
 129 530 l 1
 167 723 l 1
 722 723 l 1
 683 530 l 1
 593 530 l 1
 615 639 l 1
 500 639 l 1
 389 84 l 1
 497 84 l 1
 481 0 l 1
 119 0 l 1
276 0 m 1
 342 0 l 1
 294 -55 l 1
 363 -64 393 -84 393 -121 c 0
 393 -170 329 -211 255 -211 c 0
 228 -211 200 -206 166 -196 c 1
 175 -152 l 1
 198 -157 216 -159 231 -159 c 0
 273 -159 296 -147 296 -125 c 0
 296 -101 267 -89 209 -89 c 2
 199 -89 l 1
 276 0 l 1
EndSplineSet
EndChar
StartChar: tcommaaccent
Encoding: 317 355 117
Width: 600
Flags: W
HStem: -211 52<257.5 268 239.5 308> -12 102<299.5 422.5> 0 20 434 84<123 272 140 255 417 611>
VStem: 312 97<-136 -113>
LayerCount: 2
Fore
SplineSet
123 434 m 1x58
 140 518 l 1
 272 518 l 1
 299 650 l 1
 443 650 l 1
 417 518 l 1
 628 518 l 1
 611 434 l 1
 400 434 l 1
 353 202 l 2
 349 182 346 152 346 139 c 0
 346 106 366 90 404 90 c 0
 441 90 488 103 557 132 c 1
 537 33 l 1
 457 2 400 -12 345 -12 c 0
 254 -12 197 33 197 106 c 0
 197 127 202 168 208 198 c 2
 255 434 l 1
 123 434 l 1x58
291 0 m 1xa8
 357 0 l 1
 310 -55 l 1
 379 -64 409 -84 409 -121 c 0
 409 -170 345 -211 271 -211 c 0
 244 -211 215 -206 181 -196 c 1
 190 -152 l 1
 213 -157 232 -159 247 -159 c 0
 289 -159 312 -147 312 -125 c 0
 312 -101 283 -89 224 -89 c 2
 214 -89 l 1
 291 0 l 1xa8
EndSplineSet
EndChar
StartChar: tcaron
Encoding: 311 357 105
Width: 600
Flags: MW
HStem: -12 102<299.5 422.5> 434 84<123 272 140 255 417 611>
LayerCount: 2
Fore
SplineSet
123 434 m 1
 140 518 l 1
 272 518 l 1
 299 650 l 1
 443 650 l 1
 417 518 l 1
 628 518 l 1
 611 434 l 1
 400 434 l 1
 353 202 l 2
 349 182 346 153 346 139 c 0
 346 107 366 90 404 90 c 0
 441 90 488 103 557 132 c 1
 537 33 l 1
 457 2 400 -12 345 -12 c 0
 254 -12 197 33 197 106 c 0
 197 127 202 168 208 198 c 2
 255 434 l 1
 123 434 l 1
599 698 m 1
 549 698 l 1
 578 843 l 1
 699 843 l 1
 676 731 l 2
 666 678 647 637 621 606 c 0
 595 576 554 554 524 554 c 2
 520 554 l 1
 530 604 l 1
 564 608 586 634 596 684 c 2
 599 698 l 1
EndSplineSet
EndChar
StartChar: Umacron
Encoding: 292 362 64
Width: 600
Flags: MW
HStem: -18 85<316.5 350> 703 20<155 396 396 396 542 735 735 735> 784 84<288 666 304 649>
VStem: 95 147<131.5 153>
LayerCount: 2
Fore
SplineSet
138 639 m 1
 155 723 l 1
 396 723 l 1
 379 639 l 1
 331 639 l 1
 259 277 l 2
 248 226 242 181 242 159 c 0
 242 104 285 67 348 67 c 0
 432 67 468 111 495 248 c 2
 574 639 l 1
 525 639 l 1
 542 723 l 1
 735 723 l 1
 718 639 l 1
 670 639 l 1
 595 265 l 2
 574 160 555 111 521 71 c 0
 470 12 396 -18 304 -18 c 0
 175 -18 95 43 95 140 c 0
 95 166 100 204 107 242 c 2
 187 639 l 1
 138 639 l 1
288 784 m 1
 304 868 l 1
 666 868 l 1
 649 784 l 1
 288 784 l 1
EndSplineSet
EndChar
StartChar: umacron
Encoding: 326 363 126
Width: 600
Flags: W
HStem: -12 20 0 20 510 20<121 311 311 311 435 636 636 636> 627 84<239 617 256 600>
LayerCount: 2
Fore
SplineSet
104 446 m 1
 121 530 l 1
 311 530 l 1
 248 215 l 2
 240 177 238 162 238 148 c 0
 238 116 256 98 290 98 c 0
 329 98 370 123 428 183 c 1
 481 446 l 1
 418 446 l 1
 435 530 l 1
 636 530 l 1
 548 84 l 1
 599 84 l 1
 582 0 l 1
 392 0 l 1x60
 408 78 l 1
 328 7 286 -12 206 -12 c 0
 128 -12 90 21 90 88 c 0
 90 108 93 138 99 166 c 2
 155 446 l 1x80
 104 446 l 1
239 627 m 1
 256 711 l 1
 617 711 l 1
 600 627 l 1x10
 239 627 l 1
EndSplineSet
EndChar
StartChar: Uring
Encoding: 276 366 46
Width: 600
Flags: MW
HStem: -18 85<316.5 350> 703 20<155 396 396 396 542 735 735 735> 783 54<475 511 475 517> 958 54<497 533>
VStem: 95 147<131.5 153> 387 55<869.5 904.5 869.5 911> 566 55<890.5 925.5>
LayerCount: 2
Fore
SplineSet
138 639 m 1
 155 723 l 1
 396 723 l 1
 379 639 l 1
 331 639 l 1
 259 277 l 2
 248 226 242 181 242 159 c 0
 242 104 285 67 348 67 c 0
 432 67 468 111 495 248 c 2
 574 639 l 1
 525 639 l 1
 542 723 l 1
 735 723 l 1
 718 639 l 1
 670 639 l 1
 595 265 l 2
 574 160 555 111 521 71 c 0
 470 12 396 -18 304 -18 c 0
 175 -18 95 43 95 140 c 0
 95 166 100 204 107 242 c 2
 187 639 l 1
 138 639 l 1
527 1012 m 0
 582 1012 621 974 621 920 c 0
 621 848 554 783 480 783 c 0
 426 783 387 821 387 875 c 0
 387 947 453 1012 527 1012 c 0
517 958 m 0
 477 958 442 924 442 885 c 0
 442 854 459 837 491 837 c 0
 531 837 566 871 566 910 c 0
 566 941 549 958 517 958 c 0
EndSplineSet
EndChar
StartChar: uring
Encoding: 312 367 110
Width: 600
Flags: W
HStem: -12 20 0 20 510 20<121 311 311 311 435 636 636 636> 626 54<407.5 443 407.5 450> 802 54<429 465>
VStem: 90 55 268 55
LayerCount: 2
Fore
SplineSet
104 446 m 1
 121 530 l 1
 311 530 l 1
 248 215 l 2
 240 177 238 162 238 148 c 0
 238 116 256 98 290 98 c 0
 329 98 370 123 428 183 c 1
 481 446 l 1
 418 446 l 1
 435 530 l 1
 636 530 l 1
 548 84 l 1
 599 84 l 1
 582 0 l 1
 392 0 l 1x60
 408 78 l 1
 328 7 286 -12 206 -12 c 0
 128 -12 90 21 90 88 c 0
 90 108 93 138 99 166 c 2
 155 446 l 1x80
 104 446 l 1
460 856 m 0
 514 856 553 818 553 764 c 0
 553 691 487 626 413 626 c 0
 358 626 320 664 320 718 c 0x1e
 320 791 386 856 460 856 c 0
449 802 m 0
 409 802 375 768 375 728 c 0
 375 697 392 680 423 680 c 0
 463 680 498 715 498 754 c 0
 498 785 481 802 449 802 c 0
EndSplineSet
EndChar
StartChar: Uogonek
Encoding: 293 370 65
Width: 600
Flags: W
HStem: -181 46<334 334.5> -18 85<316.5 350> 0 20 703 20<155 396 396 396 542 735 735 735>
VStem: 95 147<131.5 153> 194 94<-109 -93.5>
LayerCount: 2
Fore
SplineSet
138 639 m 1x58
 155 723 l 1
 396 723 l 1
 379 639 l 1
 331 639 l 1
 259 276 l 2
 248 225 242 181 242 159 c 0
 242 104 285 67 348 67 c 0
 432 67 468 111 495 248 c 2
 574 639 l 1
 525 639 l 1
 542 723 l 1
 735 723 l 1
 718 639 l 1
 670 639 l 1
 595 265 l 2
 574 160 555 111 521 71 c 0
 470 12 396 -18 304 -18 c 0
 175 -18 95 43 95 140 c 0
 95 166 100 204 107 242 c 2
 187 639 l 1
 138 639 l 1x58
324 0 m 1xa4
 401 0 l 1
 322 -32 288 -61 288 -96 c 0
 288 -122 311 -135 357 -135 c 0
 372 -135 388 -133 413 -127 c 1
 405 -167 l 1
 375 -177 350 -181 319 -181 c 0
 237 -181 194 -158 194 -116 c 0
 194 -71 234 -35 324 0 c 1xa4
EndSplineSet
EndChar
StartChar: uogonek
Encoding: 327 371 127
Width: 600
Flags: W
HStem: -181 46<429.5 430> -12 20 0 20 0 20 510 20<121 311 311 311 435 636 636 636>
VStem: 90 94
LayerCount: 2
Fore
SplineSet
104 446 m 1
 121 530 l 1
 311 530 l 1
 248 215 l 2
 240 177 238 162 238 148 c 0
 238 116 256 98 290 98 c 0
 329 98 370 123 428 183 c 1
 481 446 l 1
 418 446 l 1
 435 530 l 1
 636 530 l 1
 548 84 l 1
 599 84 l 1
 582 0 l 1
 392 0 l 1x28
 408 78 l 1
 328 7 286 -12 206 -12 c 0
 128 -12 90 21 90 88 c 0
 90 108 93 138 99 166 c 2
 155 446 l 1x40
 104 446 l 1
419 0 m 1
 497 0 l 1
 417 -32 383 -61 383 -96 c 0
 383 -122 407 -135 452 -135 c 0
 468 -135 483 -133 509 -127 c 1
 500 -167 l 1
 470 -177 445 -181 415 -181 c 0
 332 -181 289 -158 289 -116 c 0x94
 289 -71 329 -35 419 0 c 1
EndSplineSet
EndChar
StartChar: Ydieresis
Encoding: 159 376 54
Width: 600
Flags: MW
HStem: 0 84<116 253 133 253 398 501> 703 20<151 416 416 416 545 738 738 738> 784 108<325 455 347 433 564 651 347 542>
LayerCount: 2
Fore
SplineSet
116 0 m 1
 133 84 l 1
 253 84 l 1
 300 317 l 1
 179 639 l 1
 134 639 l 1
 151 723 l 1
 416 723 l 1
 399 639 l 1
 352 639 l 1
 429 432 l 1
 578 639 l 1
 528 639 l 1
 545 723 l 1
 738 723 l 1
 720 639 l 1
 679 639 l 1
 445 317 l 1
 398 84 l 1
 518 84 l 1
 501 0 l 1
 116 0 l 1
325 784 m 1
 347 892 l 1
 455 892 l 1
 433 784 l 1
 325 784 l 1
542 784 m 1
 564 892 l 1
 672 892 l 1
 651 784 l 1
 542 784 l 1
EndSplineSet
EndChar
StartChar: Zacute
Encoding: 278 377 49
Width: 600
Flags: W
HStem: 0 90<54 72 72 72 234 473> 531 192<217 268 178 684> 639 84<290 508 290 290>
LayerCount: 2
Fore
SplineSet
54 0 m 1xa0
 72 90 l 1
 508 639 l 1
 290 639 l 1xa0
 268 531 l 1
 178 531 l 1x40
 217 723 l 1
 684 723 l 1
 666 633 l 1
 234 90 l 1
 473 90 l 1
 497 211 l 1
 588 211 l 1
 546 0 l 1
 54 0 l 1xa0
390 783 m 1
 523 940 l 1
 662 940 l 1
 474 783 l 1
 390 783 l 1
EndSplineSet
EndChar
StartChar: zacute
Encoding: 314 378 113
Width: 600
Flags: W
HStem: 0 90<258 461 258 528> 349 181<178 226 142 621> 446 84<245 433 245 245 604 604>
LayerCount: 2
Fore
SplineSet
72 0 m 1
 91 96 l 1
 433 446 l 1
 245 446 l 1xa0
 226 349 l 1
 142 349 l 1x40
 178 530 l 1
 621 530 l 1
 604 446 l 1
 258 90 l 1
 461 90 l 1
 481 187 l 1
 565 187 l 1
 528 0 l 1xa0
 72 0 l 1
353 626 m 1
 486 783 l 1
 625 783 l 1
 437 626 l 1
 353 626 l 1
EndSplineSet
EndChar
StartChar: zdotaccent
Encoding: 316 380 115
Width: 600
Flags: W
HStem: 0 90<258 461 258 528> 349 181<178 226 142 621> 446 84<245 433 245 245 604 604> 626 145<346 519 375 491>
LayerCount: 2
Fore
SplineSet
72 0 m 1
 91 96 l 1
 433 446 l 1
 245 446 l 1xa0
 226 349 l 1
 142 349 l 1x40
 178 530 l 1
 621 530 l 1
 604 446 l 1
 258 90 l 1
 461 90 l 1
 481 187 l 1
 565 187 l 1
 528 0 l 1xa0
 72 0 l 1
346 626 m 1
 375 771 l 1
 519 771 l 1
 491 626 l 1x10
 346 626 l 1
EndSplineSet
EndChar
StartChar: florin
Encoding: 131 402 216
Width: 600
Flags: MW
HStem: 344 84<149 208 132 242 386 464> 657 84<528 559>
LayerCount: 2
Fore
SplineSet
13 -145 m 1
 208 344 l 1
 132 344 l 1
 149 428 l 1
 242 428 l 1
 261 476 l 2
 329 650 444 741 593 741 c 0
 625 741 659 737 703 727 c 1
 673 575 l 1
 588 575 l 1
 591 649 l 1
 575 655 565 657 553 657 c 0
 503 657 458 608 421 515 c 2
 386 428 l 1
 481 428 l 1
 464 344 l 1
 352 344 l 1
 158 -145 l 1
 13 -145 l 1
EndSplineSet
EndChar
StartChar: Scommaaccent
Encoding: 332 536 132
Width: 600
Flags: W
HStem: -211 48<218 227 197 271> -18 85<281.5 323> 657 85<407.5 455>
VStem: 170 156<534.5 565.5> 275 97<-138 -115.5>
LayerCount: 2
Fore
SplineSet
60 27 m 1xf0
 98 215 l 1
 182 215 l 1
 173 112 l 1
 224 80 262 67 301 67 c 0
 379 67 437 118 437 186 c 0
 437 212 422 233 383 258 c 2
 357 276 l 1
 354 278 l 1
 296 319 l 2
 200 387 170 428 170 494 c 0
 170 637 290 742 454 742 c 0
 513 742 569 731 647 706 c 1
 611 522 l 1
 526 522 l 1
 536 628 l 1
 502 648 472 657 438 657 c 0
 377 657 326 607 326 548 c 0
 326 521 353 489 412 449 c 2
 474 406 l 2
 571 339 592 311 592 251 c 0
 592 189 567 128 520 78 c 0
 462 15 376 -18 270 -18 c 0
 210 -18 152 -5 60 27 c 1xf0
207 -92 m 1xe8
 216 -48 l 1
 325 -50 372 -72 372 -120 c 0
 372 -170 309 -211 233 -211 c 0
 203 -211 174 -209 148 -205 c 1
 157 -160 l 1
 177 -162 190 -163 204 -163 c 0
 250 -163 275 -150 275 -126 c 0
 275 -105 255 -95 207 -92 c 1xe8
EndSplineSet
EndChar
StartChar: scommaaccent
Encoding: 310 537 104
Width: 600
Flags: MW
HStem: -211 48<245 253.5 224 297.5> -12 85<310 359.5 310 385.5> 458 84<364.5 414.5>
VStem: 154 144<377 406> 223 97 422 146<130 155.5>
LayerCount: 2
Fore
SplineSet
97 25 m 1
 128 181 l 1
 212 181 l 1
 210 108 l 1
 254 84 290 73 330 73 c 0
 389 73 422 98 422 142 c 0
 422 169 400 188 350 203 c 2
 284 223 l 2
 196 249 154 289 154 348 c 0
 154 464 261 542 423 542 c 0
 489 542 546 533 606 513 c 1
 576 361 l 1
 492 361 l 1
 494 437 l 1
 463 452 433 458 396 458 c 0
 333 458 298 433 298 387 c 0
 298 367 320 350 372 333 c 2
 450 308 l 2
 531 281 568 244 568 189 c 0
 568 71 462 -12 309 -12 c 0x74
 243 -12 177 0 97 25 c 1
234 -92 m 1
 243 -48 l 1
 351 -50 398 -72 398 -120 c 0
 398 -170 335 -211 260 -211 c 0
 230 -211 201 -209 175 -205 c 1
 184 -160 l 1
 203 -162 217 -163 231 -163 c 0
 276 -163 301 -150 301 -126 c 0x88
 301 -105 281 -95 234 -92 c 1
EndSplineSet
EndChar
StartChar: circumflex
Encoding: 136 710 286
Width: 600
Flags: W
LayerCount: 2
Fore
SplineSet
254 626 m 1
 387 783 l 1
 526 783 l 1
 597 626 l 1
 518 626 l 1
 444 719 l 1
 443 719 l 1
 332 626 l 1
 254 626 l 1
EndSplineSet
EndChar
StartChar: caron
Encoding: 345 711 287
Width: 600
Flags: W
LayerCount: 2
Fore
SplineSet
628 783 m 1
 494 626 l 1
 355 626 l 1
 285 783 l 1
 363 783 l 1
 437 690 l 1
 438 690 l 1
 549 783 l 1
 628 783 l 1
EndSplineSet
EndChar
StartChar: breve
Encoding: 346 728 288
Width: 600
Flags: MW
HStem: 627 84<413.5 472.5 413.5 473.5>
LayerCount: 2
Fore
SplineSet
284 784 m 1
 350 784 l 1
 355 733 384 711 443 711 c 0
 502 711 539 733 563 784 c 1
 630 784 l 1
 596 685 521 627 426 627 c 0
 343 627 283 682 283 757 c 2x80
 284 784 l 1
EndSplineSet
EndChar
StartChar: dotaccent
Encoding: 343 729 282
Width: 600
Flags: MW
HStem: 626 145<353 526 382 498>
LayerCount: 2
Fore
SplineSet
353 626 m 1
 382 771 l 1
 526 771 l 1
 498 626 l 1x80
 353 626 l 1
EndSplineSet
EndChar
StartChar: ring
Encoding: 344 730 283
Width: 600
Flags: MW
HStem: 626 54<420.5 456 420.5 463> 802 54<442 478>
VStem: 333 55<712.5 748 712.5 754.5> 511 55<734.5 769.5>
LayerCount: 2
Fore
SplineSet
473 856 m 0
 527 856 566 818 566 764 c 0
 566 691 500 626 426 626 c 0
 371 626 333 664 333 718 c 0xf0
 333 791 399 856 473 856 c 0
462 802 m 0
 422 802 388 768 388 728 c 0
 388 697 405 680 436 680 c 0
 476 680 511 715 511 754 c 0
 511 785 494 802 462 802 c 0
EndSplineSet
EndChar
StartChar: ogonek
Encoding: 348 731 292
Width: 600
Flags: MW
HStem: -181 46<299.5 300> 0 20
VStem: 159 94<-109 -93.5>
LayerCount: 2
Fore
SplineSet
289 0 m 1
 367 0 l 1
 287 -32 253 -61 253 -96 c 0
 253 -122 277 -135 322 -135 c 0
 338 -135 353 -133 379 -127 c 1
 370 -167 l 1
 340 -177 315 -181 285 -181 c 0
 202 -181 159 -158 159 -116 c 0xe0
 159 -71 199 -35 289 0 c 1
EndSplineSet
EndChar
StartChar: tilde
Encoding: 152 732 289
Width: 600
Flags: W
HStem: 626 91<505 520.5 505 531> 693 90<359.5 374.5>
LayerCount: 2
Fore
SplineSet
325 626 m 1
 253 626 l 1
 278 736 317 783 382 783 c 0x40
 403 783 422 776 440 762 c 2
 456 750 l 2
 463 744 468 741 469 740 c 0
 484 726 500 717 510 717 c 0
 531 717 545 738 555 783 c 1
 628 783 l 1
 602 673 563 626 499 626 c 0x80
 477 626 459 633 441 647 c 2
 424 660 l 1
 416 667 l 2
 414 668 414 668 413 669 c 2
 405 676 l 2
 392 687 379 693 370 693 c 0x40
 349 693 335 672 325 626 c 1
EndSplineSet
EndChar
StartChar: hungarumlaut
Encoding: 347 733 290
Width: 600
Flags: W
LayerCount: 2
Fore
SplineSet
228 626 m 1
 365 783 l 1
 478 783 l 1
 289 626 l 1
 228 626 l 1
404 626 m 1
 541 783 l 1
 654 783 l 1
 465 626 l 1
 404 626 l 1
EndSplineSet
EndChar
StartChar: endash
Encoding: 150 8211 243
Width: 600
Flags: MW
HStem: 260 72<111 608 126 593>
LayerCount: 2
Fore
SplineSet
111 260 m 1
 126 332 l 1
 608 332 l 1
 593 260 l 1
 111 260 l 1
EndSplineSet
EndChar
StartChar: emdash
Encoding: 151 8212 244
Width: 600
Flags: MW
HStem: 260 72<52 667 67 652>
LayerCount: 2
Fore
SplineSet
52 260 m 1
 67 332 l 1
 667 332 l 1
 652 260 l 1
 52 260 l 1
EndSplineSet
EndChar
StartChar: quoteleft
Encoding: 145 8216 228
Width: 600
Flags: W
LayerCount: 2
Fore
SplineSet
509 626 m 1
 475 458 l 1
 307 458 l 1
 333 588 l 2
 359 720 413 771 528 771 c 2
 538 771 l 1
 526 711 l 1
 519 711 l 2
 482 711 459 685 443 626 c 1
 509 626 l 1
EndSplineSet
EndChar
StartChar: quoteright
Encoding: 146 8217 268
Width: 600
Flags: W
LayerCount: 2
Fore
SplineSet
336 603 m 1
 370 771 l 1
 538 771 l 1
 512 641 l 2
 499 575 477 527 448 499 c 0
 420 473 365 454 324 457 c 2
 316 458 l 1
 307 458 l 1
 319 518 l 1
 326 518 l 2
 363 518 386 543 402 603 c 1
 336 603 l 1
EndSplineSet
EndChar
StartChar: quotesinglbase
Encoding: 130 8218 267
Width: 653
Flags: MW
HStem: 0 20
LayerCount: 2
Fore
SplineSet
251 0 m 1
 285 168 l 1
 453 168 l 1
 427 38 l 2
 400 -95 346 -145 232 -145 c 2
 222 -145 l 1
 234 -85 l 1
 241 -85 l 2
 278 -85 301 -60 317 0 c 1
 251 0 l 1
EndSplineSet
EndChar
StartChar: quotedblleft
Encoding: 147 8220 230
Width: 600
Flags: W
LayerCount: 2
Fore
SplineSet
365 627 m 1
 336 482 l 1
 191 482 l 1
 217 613 l 2
 239 719 294 771 383 771 c 2
 394 771 l 1
 383 717 l 1
 374 718 l 1
 371 718 l 2
 338 718 315 692 308 646 c 2
 304 627 l 1
 365 627 l 1
630 627 m 1
 601 482 l 1
 456 482 l 1
 483 613 l 2
 504 719 559 771 649 771 c 2
 659 771 l 1
 648 717 l 1
 638 718 l 1
 636 718 l 2
 603 718 580 692 573 646 c 2
 569 627 l 1
 630 627 l 1
EndSplineSet
EndChar
StartChar: quotedblright
Encoding: 148 8221 229
Width: 600
Flags: W
LayerCount: 2
Fore
SplineSet
220 626 m 1
 249 771 l 1
 394 771 l 1
 367 640 l 2
 346 535 291 482 201 482 c 2
 191 482 l 1
 202 536 l 1
 212 536 l 2
 247 536 268 559 277 607 c 2
 280 626 l 1
 220 626 l 1
485 626 m 1
 514 771 l 1
 659 771 l 1
 632 640 l 2
 611 535 556 482 466 482 c 2
 456 482 l 1
 467 536 l 1
 477 536 l 2
 512 536 534 559 542 607 c 2
 545 626 l 1
 485 626 l 1
EndSplineSet
EndChar
StartChar: quotedblbase
Encoding: 132 8222 231
Width: 653
Flags: MW
HStem: 0 20
LayerCount: 2
Fore
SplineSet
153 0 m 1
 182 145 l 1
 326 145 l 1
 300 14 l 2
 280 -91 224 -144 134 -144 c 2
 124 -144 l 1
 135 -90 l 1
 144 -90 l 1
 185 -85 200 -69 210 -19 c 2
 213 0 l 1
 153 0 l 1
418 0 m 1
 447 145 l 1
 591 145 l 1
 565 14 l 2
 544 -92 489 -144 399 -144 c 2
 389 -144 l 1
 400 -90 l 1
 409 -90 l 1
 450 -85 465 -69 475 -19 c 2
 478 0 l 1
 418 0 l 1
EndSplineSet
EndChar
StartChar: dagger
Encoding: 134 8224 251
Width: 600
Flags: MW
HStem: 703 20<372 517 517 517>
LayerCount: 2
Fore
SplineSet
199 -145 m 1
 317 386 l 1
 158 374 l 1
 182 494 l 1
 336 482 l 1
 372 723 l 1
 517 723 l 1
 457 482 l 1
 616 494 l 1
 592 374 l 1
 437 386 l 1
 344 -145 l 1
 199 -145 l 1
EndSplineSet
EndChar
StartChar: daggerdbl
Encoding: 135 8225 252
Width: 653
Flags: MW
HStem: 703 20<419 564 564 564>
LayerCount: 2
Fore
SplineSet
246 -145 m 1
 306 96 l 1
 147 84 l 1
 171 204 l 1
 325 193 l 1
 364 386 l 1
 205 374 l 1
 229 494 l 1
 383 482 l 1
 419 723 l 1
 564 723 l 1
 503 482 l 1
 663 494 l 1
 638 374 l 1
 484 386 l 1
 445 193 l 1
 605 204 l 1
 581 84 l 1
 426 96 l 1
 390 -145 l 1
 246 -145 l 1
EndSplineSet
EndChar
StartChar: bullet
Encoding: 149 8226 299
Width: 600
Flags: MW
HStem: 528 20<369.5 445.5>
LayerCount: 2
Fore
SplineSet
413 548 m 0
 478 548 523 503 523 438 c 0
 523 353 444 277 357 277 c 0
 293 277 247 323 247 386 c 0
 247 471 326 548 413 548 c 0
EndSplineSet
EndChar
StartChar: perthousand
Encoding: 137 8240 279
Width: 653
Flags: W
HStem: -18 20 0 66<414.5 428 589 621.5> 277 66<448.5 480 640.5 655> 380 66<213.5 246 213.5 259.5> 657 66<247.5 279> 721 20<583 665 665 665>
VStem: 113 77<480.5 539.5 480.5 558.5> 301 78<562.5 622.5> 314 77<100.5 159.5 100.5 177> 677 78<182.5 242.5>
LayerCount: 2
Fore
SplineSet
280 723 m 0x9b
 347 723 379 686 379 611 c 0
 379 478 308 380 211 380 c 0
 145 380 113 417 113 492 c 0
 113 625 184 723 280 723 c 0x9b
268 657 m 0
 227 657 190 581 190 498 c 0
 190 463 201 446 226 446 c 0
 266 446 301 520 301 605 c 0
 301 640 290 657 268 657 c 0
28 -18 m 1
 583 741 l 1
 665 741 l 1xa4c0
 110 -18 l 1
 28 -18 l 1
558 290 m 1
 591 327 621 343 660 343 c 0
 723 343 755 306 755 231 c 0
 755 100 683 0 589 0 c 0
 552 0 528 16 510 53 c 1
 477 16 447 0 409 0 c 0x60c0
 346 0 314 37 314 112 c 0
 314 242 386 343 477 343 c 0
 516 343 540 327 558 290 c 1
469 277 m 0
 428 277 391 201 391 118 c 0
 391 83 402 66 427 66 c 0
 467 66 502 140 502 225 c 0
 502 260 491 277 469 277 c 0
644 277 m 0
 603 277 566 201 566 118 c 0
 566 83 577 66 601 66 c 0
 642 66 677 140 677 225 c 0
 677 260 666 277 644 277 c 0
EndSplineSet
EndChar
StartChar: guilsinglleft
Encoding: 139 8249 239
Width: 600
Flags: W
LayerCount: 2
Fore
SplineSet
541 411 m 1
 368 266 l 1
 482 122 l 1
 415 55 l 1
 186 265 l 1
 500 476 l 1
 541 411 l 1
EndSplineSet
EndChar
StartChar: guilsinglright
Encoding: 155 8250 238
Width: 600
Flags: W
LayerCount: 2
Fore
SplineSet
165 121 m 1
 339 266 l 1
 224 409 l 1
 292 476 l 1
 520 266 l 1
 206 55 l 1
 165 121 l 1
EndSplineSet
EndChar
StartChar: fraction
Encoding: 342 8260 277
Width: 600
Flags: MW
HStem: -18 20 721 20<632 701 701 701>
LayerCount: 2
Fore
SplineSet
42 -18 m 1
 632 741 l 1
 701 741 l 1
 111 -18 l 1
 42 -18 l 1
EndSplineSet
EndChar
StartChar: Euro
Encoding: 128 8364 217
Width: 600
Flags: MW
HStem: -18 96<395.5 426> 240 73<60 139 104 137 281 471> 422 72<141 162 96 190 332 581> 657 85<522 575>
LayerCount: 2
Fore
SplineSet
60 240 m 1
 104 313 l 1
 139 313 l 1
 144 348 151 384 162 422 c 1
 96 422 l 1
 141 494 l 1
 190 494 l 1
 234 577 267 619 320 661 c 0
 388 715 473 742 571 742 c 0
 619 742 664 736 720 722 c 1
 700 622 l 1
 634 647 595 657 555 657 c 0
 453 657 383 606 332 494 c 1
 626 494 l 1
 581 422 l 1
 307 422 l 1
 296 383 287 347 281 313 c 1
 515 313 l 1
 471 240 l 1
 279 240 l 1
 285 140 348 78 443 78 c 0
 485 78 530 90 600 119 c 1
 579 14 l 1
 511 -8 454 -18 398 -18 c 0
 239 -18 151 69 137 240 c 1
 60 240 l 1
EndSplineSet
EndChar
StartChar: trademark
Encoding: 153 8482 264
Width: 600
Flags: MW
HStem: 703 20<169 392 392 392 410 528 528 528 609 728 728 728>
LayerCount: 2
Fore
SplineSet
139 361 m 1
 149 409 l 1
 185 409 l 1
 238 675 l 1
 202 675 l 1
 192 627 l 1
 150 627 l 1
 169 723 l 1
 392 723 l 1
 373 627 l 1
 331 627 l 1
 340 675 l 1
 304 675 l 1
 251 409 l 1
 287 409 l 1
 278 361 l 1
 139 361 l 1
338 361 m 1
 347 409 l 1
 373 409 l 1
 427 675 l 1
 401 675 l 1
 410 723 l 1
 528 723 l 1
 529 518 l 1
 609 723 l 1
 728 723 l 1
 718 675 l 1
 691 675 l 1
 638 409 l 1
 665 409 l 1
 656 361 l 1
 565 361 l 1
 625 662 l 1
 518 385 l 1
 472 385 l 1
 472 659 l 1
 412 361 l 1
 338 361 l 1
EndSplineSet
EndChar
StartChar: minus
Encoding: 341 8722 260
Width: 600
Flags: MW
HStem: 253 97<99 622 118 602>
LayerCount: 2
Fore
SplineSet
99 253 m 1
 118 350 l 1
 622 350 l 1
 602 253 l 1
 99 253 l 1
EndSplineSet
EndChar
StartChar: fi
Encoding: 336 64257 197
Width: 600
Flags: W
HStem: 0 20 434 84<122 156 105 173 311 482> 626 145<406 688 567 659 539 688> 698 85<378.5 396.5>
LayerCount: 2
Fore
SplineSet
18 0 m 1xd0
 35 85 l 1
 86 85 l 1
 156 434 l 1
 105 434 l 1
 122 518 l 1
 173 518 l 1
 185 582 l 2
 210 707 301 783 427 783 c 0xd0
 460 783 488 777 518 765 c 1
 491 626 l 1
 406 626 l 1x20
 407 692 l 1
 402 697 399 698 394 698 c 0
 363 698 341 664 328 599 c 2
 311 518 l 1
 638 518 l 1
 551 85 l 1
 602 85 l 1
 585 0 l 1
 344 0 l 1
 361 85 l 1
 412 85 l 1
 482 434 l 1
 294 434 l 1
 225 85 l 1
 276 85 l 1
 259 0 l 1
 18 0 l 1xd0
539 626 m 1x20
 567 771 l 1
 688 771 l 1
 659 626 l 1
 539 626 l 1x20
EndSplineSet
EndChar
StartChar: fl
Encoding: 337 64258 198
Width: 600
Flags: MW
HStem: 0 20 434 84<122 156 105 173 311 427> 697 86<397.5 431.5 356 435.5>
LayerCount: 2
Fore
SplineSet
18 0 m 1
 35 85 l 1
 86 85 l 1
 156 434 l 1
 105 434 l 1
 122 518 l 1
 173 518 l 1
 185 576 l 2
 212 714 291 783 421 783 c 0
 442 783 492 779 513 776 c 0
 535 773 551 771 555 771 c 2
 688 771 l 1
 551 85 l 1
 602 85 l 1
 585 0 l 1
 344 0 l 1
 361 85 l 1
 412 85 l 1
 527 658 l 1
 479 686 449 697 422 697 c 0
 373 697 340 662 327 593 c 2
 311 518 l 1
 444 518 l 1
 427 434 l 1
 294 434 l 1
 225 85 l 1
 276 85 l 1
 259 0 l 1
 18 0 l 1
EndSplineSet
EndChar
StartChar: commaaccent
Encoding: 350 -1 294
Width: 333
Flags: MW
HStem: -211 48<95 103.5 74 147.5>
VStem: 151 97<-138 -115.5>
LayerCount: 2
Fore
SplineSet
84 -92 m 1
 93 -48 l 1
 201 -50 248 -72 248 -120 c 0
 248 -170 185 -211 110 -211 c 0
 80 -211 51 -209 25 -205 c 1
 34 -160 l 1
 53 -162 67 -163 81 -163 c 0
 126 -163 151 -150 151 -126 c 0xc0
 151 -105 131 -95 84 -92 c 1
EndSplineSet
EndChar
